<?xml version="1.0" encoding="UTF-8" standalone="no"?>
<!-- Created with Inkscape (http://www.inkscape.org/) -->

<svg
   xmlns:dc="http://purl.org/dc/elements/1.1/"
   xmlns:cc="http://creativecommons.org/ns#"
   xmlns:rdf="http://www.w3.org/1999/02/22-rdf-syntax-ns#"
   xmlns:svg="http://www.w3.org/2000/svg"
   xmlns="http://www.w3.org/2000/svg"
   xmlns:sodipodi="http://sodipodi.sourceforge.net/DTD/sodipodi-0.dtd"
   xmlns:inkscape="http://www.inkscape.org/namespaces/inkscape"
   width="1052.3622"
   height="1488.189"
   id="svg5161"
   version="1.1"
   inkscape:version="0.48.1 r9760"
   sodipodi:docname="campagnol_italique_SPEC.svg">
  <defs
     id="defs5163" />
  <sodipodi:namedview
     id="base"
     pagecolor="#ffffff"
     bordercolor="#666666"
     borderopacity="1.0"
     inkscape:pageopacity="0.0"
     inkscape:pageshadow="2"
     inkscape:zoom="0.98994949"
     inkscape:cx="430.65584"
     inkscape:cy="533.79114"
     inkscape:document-units="px"
     inkscape:current-layer="layer1"
     showgrid="false"
     inkscape:window-width="1280"
     inkscape:window-height="741"
     inkscape:window-x="0"
     inkscape:window-y="26"
     inkscape:window-maximized="1" />
  <metadata
     id="metadata5166">
    <rdf:RDF>
      <cc:Work
         rdf:about="">
        <dc:format>image/svg+xml</dc:format>
        <dc:type
           rdf:resource="http://purl.org/dc/dcmitype/StillImage" />
        <dc:title></dc:title>
      </cc:Work>
    </rdf:RDF>
  </metadata>
  <g
     inkscape:label="Layer 1"
     inkscape:groupmode="layer"
     id="layer1"
     transform="translate(0,435.82679)">
    <path
       style="font-size:medium;font-style:normal;font-variant:normal;font-weight:normal;font-stretch:normal;text-indent:0;text-align:start;text-decoration:none;line-height:normal;letter-spacing:normal;word-spacing:normal;text-transform:none;direction:ltr;block-progression:tb;writing-mode:lr-tb;text-anchor:start;baseline-shift:baseline;color:#000000;fill:#000000;fill-opacity:1;stroke:none;stroke-width:6.25;marker:none;visibility:visible;display:inline;overflow:visible;enable-background:accumulate;font-family:Sans;-inkscape-font-specification:Sans"
       d="m 106.532,184.48844 -3.0625,0.625 c -23.868596,4.89238 -40.314596,21.09172 -50.343796,39.53125 -10.0292,18.43953 -13.8806,39.13993 -12.8125,54.34375 0.534,7.60189 2.1557,13.89209 5.6563,18.06249 1.7502,2.0852 4.1482,3.5954 6.875,3.9688 2.7267,0.3733 5.5729,-0.3673 8.3437,-2 5.5417,-3.2655 11.2493,-9.9573 17.7188,-21.06254 3.7576,-6.45027 7.7464,-14.62323 11.9375,-24.3125 l -6.0938,40.10934 6.1875,0 15.906296,-102.95309 0.9375,-0.1875 z m -6.2813,7.96875 -5.968696,35.65625 c -7.6122,20.84313 -14.6044,36.08448 -20.7813,46.6875 -6.1935,10.63153 -11.6677,16.55419 -15.5,18.81249 -1.9162,1.1291 -3.2858,1.3593 -4.3125,1.2188 -1.0267,-0.1406 -1.9106,-0.6264 -2.9062,-1.8125 -1.9913,-2.3723 -3.7681,-7.60802 -4.25,-14.46879 -0.964,-13.72155 2.6914,-33.65069 12.0937,-50.9375 8.7324,-16.05516 22.3035,-29.6999 41.624996,-35.15625 z"
       id="path3995"
       inkscape:connector-curvature="0"
       sodipodi:nodetypes="ccssssssccccccccssssssc" />
    <path
       style="font-size:medium;font-style:normal;font-variant:normal;font-weight:normal;font-stretch:normal;text-indent:0;text-align:start;text-decoration:none;line-height:normal;letter-spacing:normal;word-spacing:normal;text-transform:none;direction:ltr;block-progression:tb;writing-mode:lr-tb;text-anchor:start;baseline-shift:baseline;color:#000000;fill:#000000;fill-opacity:1;stroke:none;stroke-width:6.25;marker:none;visibility:visible;display:inline;overflow:visible;enable-background:accumulate;font-family:Sans;-inkscape-font-specification:Sans"
       d="m 128.3757,119.92594 -29.062496,171.21879 -0.9375,0.1875 1.25,6.125 3.062496,-0.625 c 23.8685,-4.8924 40.2833,-21.09176 50.3125,-39.53129 10.0292,-18.43953 13.9118,-39.13993 12.8438,-54.34375 -0.5341,-7.60191 -2.187,-13.89208 -5.6875,-18.0625 -1.7503,-2.08521 -4.117,-3.62668 -6.8438,-4 -2.7268,-0.37332 -5.5729,0.3985 -8.3437,2.03125 -5.5417,3.2655 -11.2494,9.92605 -17.7188,21.03125 -3.2542,5.58599 -6.6693,12.319 -10.25,20.3125 l 17.5313,-103.3125 z m 24.0938,67.15625 c 1.0267,0.14057 1.9106,0.62636 2.9062,1.8125 1.9912,2.37228 3.7368,7.63923 4.2188,14.5 0.9639,13.72155 -2.6603,33.61944 -12.0625,50.90625 -8.7275,16.0462 -22.2896,29.69368 -41.5938,35.15629 l 6.1563,-36.34379 c 7.5091,-20.47054 14.4577,-35.5208 19.5625,-46 7.1934,-10.63153 12.6364,-16.55424 16.4687,-18.8125 1.9162,-1.12913 3.317,-1.35932 4.3438,-1.21875 z"
       id="path4003"
       inkscape:connector-curvature="0"
       sodipodi:nodetypes="cccccsssssscccssssccsss" />
    <path
       inkscape:connector-curvature="0"
       style="font-size:medium;font-style:normal;font-variant:normal;font-weight:normal;font-stretch:normal;text-indent:0;text-align:start;text-decoration:none;line-height:normal;letter-spacing:normal;word-spacing:normal;text-transform:none;direction:ltr;block-progression:tb;writing-mode:lr-tb;text-anchor:start;baseline-shift:baseline;color:#000000;fill:#000000;fill-opacity:1;stroke:none;stroke-width:6.25;marker:none;visibility:visible;display:inline;overflow:visible;enable-background:accumulate;font-family:Sans;-inkscape-font-specification:Sans"
       d="m 386.0945,128.39469 c -0.4408,0.009 -0.8849,0.0634 -1.3125,0.15625 -3.421,0.74325 -6.151,3.33872 -9.1563,7.375 -3.0053,4.03628 -6.2278,9.72919 -9.75,17.46875 -8.4709,18.61362 -18.7429,49.16692 -30.625,95.40625 l -15.5,0 -3.125,0 0,6.25 3.125,0 12.9063,0 c -6.4356,29.47035 -14.4974,65.01229 -23.125,107.65629 l -0.625,3.0625 6.125,1.25 -0.375,-3.0625 c 9.7583,-43.2897 17.9471,-79.25197 25.4687,-108.90629 l 17.5,0 3.125,0 0,-6.25 -3.125,0 -15.9062,0 c 11.6801,-45.20388 21.7417,-75.00945 29.8437,-92.8125 3.4066,-7.48546 6.479,-12.87397 9.0625,-16.34375 2.5835,-3.46978 4.7413,-4.80392 5.5,-4.96875 0.3794,-0.0824 0.3877,-0.0731 0.625,0.0625 0.2373,0.13561 0.7022,0.52291 1.1875,1.34375 0.9706,1.64168 1.9539,4.86731 2.5,9.09375 l 0.375,3.09375 6.2188,-0.8125 -0.4063,-3.09375 c -0.6071,-4.69846 -1.582,-8.54152 -3.3125,-11.46875 -0.8653,-1.46361 -1.9503,-2.74409 -3.4375,-3.59375 -0.7436,-0.42483 -1.5996,-0.68318 -2.4687,-0.8125 -0.4346,-0.0647 -0.8718,-0.10231 -1.3125,-0.0937 z"
       id="path4465" />
    <path
       style="font-size:medium;font-style:normal;font-variant:normal;font-weight:normal;font-stretch:normal;text-indent:0;text-align:start;text-decoration:none;line-height:normal;letter-spacing:normal;word-spacing:normal;text-transform:none;direction:ltr;block-progression:tb;writing-mode:lr-tb;text-anchor:start;baseline-shift:baseline;color:#000000;fill:#000000;fill-opacity:1;stroke:none;stroke-width:6.25;marker:none;visibility:visible;display:inline;overflow:visible;enable-background:accumulate;font-family:Sans;-inkscape-font-specification:Sans"
       d="m 105.54392,-341.82527 -62.062402,107.5 5.4062,3.125 20.1562,-34.90625 35.187602,0 0,33.34375 6.25,0 0,-109.0625 -4.9376,0 z m -1.3124,14.78125 0,54.6875 -31.593802,0 31.593802,-54.6875 z"
       id="path4469"
       inkscape:connector-curvature="0" />
    <path
       style="font-size:medium;font-style:normal;font-variant:normal;font-weight:normal;font-stretch:normal;text-indent:0;text-align:start;text-decoration:none;line-height:normal;letter-spacing:normal;word-spacing:normal;text-transform:none;direction:ltr;block-progression:tb;writing-mode:lr-tb;text-anchor:start;baseline-shift:baseline;color:#000000;fill:#000000;fill-opacity:1;stroke:none;stroke-width:6.25;marker:none;visibility:visible;display:inline;overflow:visible;enable-background:accumulate;font-family:Sans;-inkscape-font-specification:Sans"
       d="m 148.10652,-341.85652 -36.1876,112.21875 4.2813,0 c 32.1289,0 55.2277,-17.38052 62.8437,-33.09375 1.9041,-3.92831 2.859,-7.82656 2.5,-11.5 -0.3589,-3.67344 -2.2723,-7.12485 -5.5312,-9.21875 -3.4767,-2.23381 -8.1588,-3.01509 -14.0312,-2.46875 13.1437,-9.96808 21.9564,-20.82052 24.1562,-31.03125 1.4948,-6.93823 -0.7289,-13.88829 -6.8438,-18.28125 -6.1148,-4.39296 -15.5371,-6.625 -28.9374,-6.625 z m 4.5312,6.34375 c 11.3039,0.27587 18.9415,2.40563 23.0312,5.34375 4.3771,3.1445 5.4811,6.74118 4.375,11.875 -2.212,10.26764 -15.9811,25.39991 -36.8437,37.28125 l 2.6563,5.625 c 14.6055,-5.5428 23.3371,-4.99415 26.7812,-2.78125 1.722,1.10645 2.4815,2.45446 2.6875,4.5625 0.206,2.10804 -0.3608,4.96775 -1.9063,8.15625 -5.8681,12.10698 -25.3721,27.68275 -52.8437,29.25 z"
       id="path4473"
       inkscape:connector-curvature="0"
       sodipodi:nodetypes="ccsccscssscccccccsccc" />
    <path
       style="font-size:medium;font-style:normal;font-variant:normal;font-weight:normal;font-stretch:normal;text-indent:0;text-align:start;text-decoration:none;line-height:normal;letter-spacing:normal;word-spacing:normal;text-transform:none;direction:ltr;block-progression:tb;writing-mode:lr-tb;text-anchor:start;baseline-shift:baseline;color:#000000;fill:#000000;fill-opacity:1;stroke:none;stroke-width:6.25;marker:none;visibility:visible;display:inline;overflow:visible;enable-background:accumulate;font-family:Sans;-inkscape-font-specification:Sans"
       d="m 231.29392,-341.76277 c -14.5966,3.69864 -25.9158,15.0926 -33.8437,28.875 -7.9279,13.7824 -12.5543,30.0978 -13.5625,44.53125 -1.0082,14.43345 1.2876,27.29723 9.3438,33.75 4.028,3.22639 9.5125,4.38123 15.5624,2.9375 6.05,-1.44373 12.7767,-5.24587 20.5,-11.78125 l -4.0312,-4.78125 c -7.2562,6.14011 -13.288,9.36668 -17.9062,10.46875 -4.6183,1.10207 -7.6745,0.31921 -10.2188,-1.71875 -5.0887,-4.07593 -7.9686,-15.01886 -7.0312,-28.4375 0.9373,-13.41864 5.3659,-29.00697 12.75,-41.84375 7.384,-12.83678 17.6108,-22.80614 29.9687,-25.9375 l -1.5313,-6.0625 z"
       id="path4475"
       inkscape:connector-curvature="0" />
    <path
       style="font-size:medium;font-style:normal;font-variant:normal;font-weight:normal;font-stretch:normal;text-indent:0;text-align:start;text-decoration:none;line-height:normal;letter-spacing:normal;word-spacing:normal;text-transform:none;direction:ltr;block-progression:tb;writing-mode:lr-tb;text-anchor:start;baseline-shift:baseline;color:#000000;fill:#000000;fill-opacity:1;stroke:none;stroke-width:6.25;marker:none;visibility:visible;display:inline;overflow:visible;enable-background:accumulate;font-family:Sans;-inkscape-font-specification:Sans"
       d="m 268.51272,-341.29402 c -3.6428,0.19969 -7.6531,0.86651 -12,2.03125 l -1.7812,0.46875 -25.6876,105.28125 6.0626,1.46875 24.7812,-101.5625 c 7.1341,-1.70326 12.8136,-1.83875 17.0625,-0.8125 4.6026,1.11167 7.6639,3.37851 9.8437,6.6875 4.3597,6.61798 4.7517,18.07891 1.4063,30.84375 -3.3454,12.76484 -10.2419,26.68132 -19.1875,38.03125 -8.9456,11.34993 -19.9207,20.07707 -31.0625,23.0625 l 1.625,6.03125 c 13.0526,-3.49743 24.8372,-13.15714 34.3437,-25.21875 9.5066,-12.06161 16.7486,-26.59454 20.3438,-40.3125 3.5952,-13.71796 3.7307,-26.79635 -2.25,-35.875 -2.9903,-4.53933 -7.6242,-7.90191 -13.5938,-9.34375 -2.9847,-0.72092 -6.2634,-0.98094 -9.9062,-0.78125 z"
       id="path4477"
       inkscape:connector-curvature="0"
       sodipodi:nodetypes="scccccssssccsssss" />
    <path
       style="font-size:medium;font-style:normal;font-variant:normal;font-weight:normal;font-stretch:normal;text-indent:0;text-align:start;text-decoration:none;line-height:normal;letter-spacing:normal;word-spacing:normal;text-transform:none;direction:ltr;block-progression:tb;writing-mode:lr-tb;text-anchor:start;baseline-shift:baseline;color:#000000;fill:#000000;fill-opacity:1;stroke:none;stroke-width:6.25;marker:none;visibility:visible;display:inline;overflow:visible;enable-background:accumulate;font-family:Sans;-inkscape-font-specification:Sans"
       d="m 309.41892,-341.85652 -30.0624,112.21875 50.4374,0 0,-6.25 -42.2812,0 10.9375,-40.84375 23.2187,0 0,-6.25 -21.5312,0 14.0938,-52.625 30.4374,0 0,-6.25 z"
       id="path4479"
       inkscape:connector-curvature="0"
       sodipodi:nodetypes="ccccccccccccc" />
    <path
       style="font-size:medium;font-style:normal;font-variant:normal;font-weight:normal;font-stretch:normal;text-indent:0;text-align:start;text-decoration:none;line-height:normal;letter-spacing:normal;word-spacing:normal;text-transform:none;direction:ltr;block-progression:tb;writing-mode:lr-tb;text-anchor:start;baseline-shift:baseline;color:#000000;fill:#000000;fill-opacity:1;stroke:none;stroke-width:6.25;marker:none;visibility:visible;display:inline;overflow:visible;enable-background:accumulate;font-family:Sans;-inkscape-font-specification:Sans"
       d="m 361.54392,-341.85652 -29.8437,111.28125 6.0625,1.625 c 4.196,-15.94388 8.511,-31.85695 12.7812,-47.78125 l 22.9688,0 0,-6.25 -21.2812,0 14.0937,-52.625 30.4375,0 0,-6.25 z"
       id="path4483"
       inkscape:connector-curvature="0"
       sodipodi:nodetypes="ccccccccccc" />
    <path
       style="font-size:medium;font-style:normal;font-variant:normal;font-weight:normal;font-stretch:normal;text-indent:0;text-align:start;text-decoration:none;line-height:normal;letter-spacing:normal;word-spacing:normal;text-transform:none;direction:ltr;block-progression:tb;writing-mode:lr-tb;text-anchor:start;baseline-shift:baseline;color:#000000;fill:#000000;fill-opacity:1;stroke:none;stroke-width:6.25;marker:none;visibility:visible;display:inline;overflow:visible;enable-background:accumulate;font-family:Sans;-inkscape-font-specification:Sans"
       d="m 434.95022,-341.85652 c -17.1527,0 -30.6794,10.12617 -40,23.78125 -9.3206,13.65508 -14.7845,30.94148 -16.5,46.59375 -1.7155,15.65227 -0.082,29.7526 7.125,37.34375 3.6035,3.79557 9.0012,5.50533 14.7813,4.09375 5.78,-1.41158 12.0397,-5.47725 19.1562,-12.59375 l 0.6875,-0.71875 6.5625,-40.3125 -31.5625,0 0,6.25 24.1875,0 -5.0312,31.03125 c -6.3161,6.15768 -11.6009,9.33663 -15.4688,10.28125 -4.0194,0.9816 -6.4785,0.0817 -8.7812,-2.34375 -4.6055,-4.85092 -7.0489,-17.64176 -5.4376,-32.34375 1.6114,-14.70199 6.9013,-31.19818 15.4688,-43.75 8.5675,-12.55182 20.0938,-21.0625 34.8125,-21.0625 l 3.125,0 0,-6.25 z"
       id="path4487"
       inkscape:connector-curvature="0"
       sodipodi:nodetypes="ssssscccccccsssssccs" />
    <path
       style="font-size:medium;font-style:normal;font-variant:normal;font-weight:normal;font-stretch:normal;text-indent:0;text-align:start;text-decoration:none;line-height:normal;letter-spacing:normal;word-spacing:normal;text-transform:none;direction:ltr;block-progression:tb;writing-mode:lr-tb;text-anchor:start;baseline-shift:baseline;color:#000000;fill:#000000;fill-opacity:1;stroke:none;stroke-width:6.25;marker:none;visibility:visible;display:inline;overflow:visible;enable-background:accumulate;font-family:Sans;-inkscape-font-specification:Sans"
       d="m 453.73152,-342.54402 -30.0313,111.96875 6.0625,1.625 12.7812,-47.78125 33.5313,0 -12.375,46.15625 6.0625,1.625 30,-112 -6.0312,-1.59375 -15.9688,59.5625 -33.5312,0 15.5312,-57.96875 z"
       id="path4489"
       inkscape:connector-curvature="0"
       sodipodi:nodetypes="ccccccccccccc" />
    <path
       style="font-size:medium;font-style:normal;font-variant:normal;font-weight:normal;font-stretch:normal;text-indent:0;text-align:start;text-decoration:none;line-height:normal;letter-spacing:normal;word-spacing:normal;text-transform:none;direction:ltr;block-progression:tb;writing-mode:lr-tb;text-anchor:start;baseline-shift:baseline;color:#000000;fill:#000000;fill-opacity:1;stroke:none;stroke-width:6.25;marker:none;visibility:visible;display:inline;overflow:visible;enable-background:accumulate;font-family:Sans;-inkscape-font-specification:Sans"
       d="m 510.63772,-342.54402 -30,111.96875 6.0312,1.625 30.0313,-112 z"
       id="path4495"
       inkscape:connector-curvature="0"
       sodipodi:nodetypes="ccccc" />
    <path
       style="font-size:medium;font-style:normal;font-variant:normal;font-weight:normal;font-stretch:normal;text-indent:0;text-align:start;text-decoration:none;line-height:normal;letter-spacing:normal;word-spacing:normal;text-transform:none;direction:ltr;block-progression:tb;writing-mode:lr-tb;text-anchor:start;baseline-shift:baseline;color:#000000;fill:#000000;fill-opacity:1;stroke:none;stroke-width:6.25;marker:none;visibility:visible;display:inline;overflow:visible;enable-background:accumulate;font-family:Sans;-inkscape-font-specification:Sans"
       d="m 543.35652,-341.85652 0,6.25 20.25,0 -24.875,100.1875 c -7.106,1.67661 -12.6943,1.67498 -16.8126,0.46875 -4.4633,-1.30732 -7.4035,-3.85048 -9.5,-7.5 -4.1928,-7.29905 -4.305,-19.57781 -0.9062,-32.40625 l 0.8125,-3 -6.0313,-1.625 -0.8124,3.03125 c -3.6433,13.75115 -4.0892,27.39517 1.5,37.125 2.7945,4.86492 7.264,8.64003 13.1874,10.375 5.9235,1.73497 13.1884,1.53182 21.9376,-0.8125 l 1.7812,-0.5 27.7188,-111.59375 z"
       id="path4497"
       inkscape:connector-curvature="0"
       sodipodi:nodetypes="ccccsccccccscccc" />
    <path
       style="font-size:medium;font-style:normal;font-variant:normal;font-weight:normal;font-stretch:normal;text-indent:0;text-align:start;text-decoration:none;line-height:normal;letter-spacing:normal;word-spacing:normal;text-transform:none;direction:ltr;block-progression:tb;writing-mode:lr-tb;text-anchor:start;baseline-shift:baseline;color:#000000;fill:#000000;fill-opacity:1;stroke:none;stroke-width:6.25;marker:none;visibility:visible;display:inline;overflow:visible;enable-background:accumulate;font-family:Sans;-inkscape-font-specification:Sans"
       d="m 582.54392,-342.54402 -30.0312,111.96875 6.0625,1.625 30,-112 z"
       id="path4499"
       inkscape:connector-curvature="0"
       sodipodi:nodetypes="ccccc" />
    <path
       style="font-size:medium;font-style:normal;font-variant:normal;font-weight:normal;font-stretch:normal;text-indent:0;text-align:start;text-decoration:none;line-height:normal;letter-spacing:normal;word-spacing:normal;text-transform:none;direction:ltr;block-progression:tb;writing-mode:lr-tb;text-anchor:start;baseline-shift:baseline;color:#000000;fill:#000000;fill-opacity:1;stroke:none;stroke-width:6.25;marker:none;visibility:visible;display:inline;overflow:visible;enable-background:accumulate;font-family:Sans;-inkscape-font-specification:Sans"
       d="m 625.41882,-343.10652 -51.2499,67.25 32,47.40625 5.1562,-3.46875 -29.4999,-43.6875 48.56235,-63.71875 z"
       id="path4501"
       inkscape:connector-curvature="0"
       sodipodi:nodetypes="ccccccc" />
    <path
       style="font-size:medium;font-style:normal;font-variant:normal;font-weight:normal;font-stretch:normal;text-indent:0;text-align:start;text-decoration:none;line-height:normal;letter-spacing:normal;word-spacing:normal;text-transform:none;direction:ltr;block-progression:tb;writing-mode:lr-tb;text-anchor:start;baseline-shift:baseline;color:#000000;fill:#000000;fill-opacity:1;stroke:none;stroke-width:6.25;marker:none;visibility:visible;display:inline;overflow:visible;enable-background:accumulate;font-family:Sans;-inkscape-font-specification:Sans"
       d="m 647.16637,-345.72597 -30.25,112.90625 50.4375,0 0,-6.25 -42.28125,0 28.15625,-105.0625 z"
       id="path4503"
       inkscape:connector-curvature="0"
       sodipodi:nodetypes="ccccccc" />
    <path
       style="font-size:medium;font-style:normal;font-variant:normal;font-weight:normal;font-stretch:normal;text-indent:0;text-align:start;text-decoration:none;line-height:normal;letter-spacing:normal;word-spacing:normal;text-transform:none;direction:ltr;block-progression:tb;writing-mode:lr-tb;text-anchor:start;baseline-shift:baseline;color:#000000;fill:#000000;fill-opacity:1;stroke:none;stroke-width:6.25;marker:none;visibility:visible;display:inline;overflow:visible;enable-background:accumulate;font-family:Sans;-inkscape-font-specification:Sans"
       d="m 757.85072,-342.45027 -35.4375,53.875 -12.9375,-52.90625 -6.03125,-0.0625 -29.21875,108.96875 6.0625,1.625 26.03125,-97.15625 11.71875,48.46875 6.15625,0 29.25,-44.71875 -21.46875,91.90625 6.09375,1.4375 25.43745,-109 z"
       id="path4505"
       inkscape:connector-curvature="0"
       sodipodi:nodetypes="cccccccccccccc" />
    <path
       style="font-size:medium;font-style:normal;font-variant:normal;font-weight:normal;font-stretch:normal;text-indent:0;text-align:start;text-decoration:none;line-height:normal;letter-spacing:normal;word-spacing:normal;text-transform:none;direction:ltr;block-progression:tb;writing-mode:lr-tb;text-anchor:start;baseline-shift:baseline;color:#000000;fill:#000000;fill-opacity:1;stroke:none;stroke-width:6.25;marker:none;visibility:visible;display:inline;overflow:visible;enable-background:accumulate;font-family:Sans;-inkscape-font-specification:Sans"
       d="m 99.600718,-205.40116 -25.375,94.6875 -14.1875,-91.34375 -6.0938,-0.34375 -29.2187,108.968749 6.0625,1.625 25.375,-94.718749 14.1875,91.374999 6.0938,0.3125 29.218702,-108.968749 z"
       id="path4507"
       inkscape:connector-curvature="0"
       sodipodi:nodetypes="ccccccccccc" />
    <path
       style="font-size:medium;font-style:normal;font-variant:normal;font-weight:normal;font-stretch:normal;text-indent:0;text-align:start;text-decoration:none;line-height:normal;letter-spacing:normal;word-spacing:normal;text-transform:none;direction:ltr;block-progression:tb;writing-mode:lr-tb;text-anchor:start;baseline-shift:baseline;color:#000000;fill:#000000;fill-opacity:1;stroke:none;stroke-width:6.05700016;marker:none;visibility:visible;display:inline;overflow:visible;enable-background:accumulate;font-family:Sans;-inkscape-font-specification:Sans"
       d="m 142.59452,-204.59423 c -8.5517,-2.31378 -17.3799,2.91635 -24.8174,11.72392 -7.4375,8.80757 -13.898,21.61349 -17.943402,36.56522 -4.0454,14.95173 -4.9232,29.26813 -2.9413,40.62426 1.982,11.35613 6.968702,20.324069 15.520302,22.637839 8.5517,2.31378 17.3799,-2.91635 24.8174,-11.723919 7.4375,-8.80757 13.8981,-21.61349 17.9435,-36.56522 4.0453,-14.95173 4.9231,-29.26812 2.9412,-40.62426 -1.9819,-11.35613 -6.9686,-20.32406 -15.5203,-22.63784 z m -1.6338,6.03821 c 5.0619,1.36956 9.2133,7.5145 10.9856,17.66973 1.7723,10.15522 1.0284,23.73029 -2.811,37.92044 -3.8393,14.19016 -10.0416,26.28839 -16.6926,34.16457 -6.651,7.87618 -13.3343,11.089649 -18.3962,9.720089 -5.0619,-1.369569 -9.2132,-7.514509 -10.9856,-17.669739 -1.7723,-10.15522 -1.0284,-23.73028 2.811,-37.92044 3.8393,-14.19015 10.0416,-26.28839 16.6926,-34.16457 6.651,-7.87618 13.3344,-11.08965 18.3962,-9.72008 z"
       id="path4509"
       inkscape:connector-curvature="0" />
    <path
       style="font-size:medium;font-style:normal;font-variant:normal;font-weight:normal;font-stretch:normal;text-indent:0;text-align:start;text-decoration:none;line-height:normal;letter-spacing:normal;word-spacing:normal;text-transform:none;direction:ltr;block-progression:tb;writing-mode:lr-tb;text-anchor:start;baseline-shift:baseline;color:#000000;fill:#000000;fill-opacity:1;stroke:none;stroke-width:6.25;marker:none;visibility:visible;display:inline;overflow:visible;enable-background:accumulate;font-family:Sans;-inkscape-font-specification:Sans"
       d="m 178.16322,-204.71366 -31.6875,111.218749 6,1.71875 30.3438,-106.531249 c 12.2137,0.41287 20.2832,3.78041 24.8437,8.375 4.8623,4.89864 6.2752,11.20109 4.8438,17.90625 -2.8629,13.41031 -17.8115,27.71875 -40.6875,27.71875 l -4.125,0 0,6.25 4.125,0 c 25.4791,0 43.226,-15.85611 46.8125,-32.65625 1.7932,-8.40007 -0.1487,-17.19472 -6.5313,-23.625 -6.3826,-6.43028 -16.8509,-10.375 -31.5937,-10.375 z"
       id="path4511"
       inkscape:connector-curvature="0"
       sodipodi:nodetypes="ccccsssccssssc" />
    <path
       style="font-size:medium;font-style:normal;font-variant:normal;font-weight:normal;font-stretch:normal;text-indent:0;text-align:start;text-decoration:none;line-height:normal;letter-spacing:normal;word-spacing:normal;text-transform:none;direction:ltr;block-progression:tb;writing-mode:lr-tb;text-anchor:start;baseline-shift:baseline;color:#000000;fill:#000000;fill-opacity:1;stroke:none;stroke-width:6.05734539;marker:none;visibility:visible;display:inline;overflow:visible;enable-background:accumulate;font-family:Sans;-inkscape-font-specification:Sans"
       d="m 257.75702,-205.11991 c -6.9849,0.30529 -13.9258,5.09385 -19.9688,12.25 -7.4375,8.80757 -13.9234,21.61077 -17.9687,36.5625 -4.0454,14.95173 -4.9195,29.26887 -2.9375,40.625 1.1903,6.82053 3.4892,12.76416 6.9687,16.937499 l -1.3125,0 -1.625,5.78125 41.9688,25.59375 3.25,-5.3125 -33.4375,-19.8125 3.9687,-0.0313 c 7.1752,-0.0616 14.3555,-4.89956 20.5625,-12.249999 7.4375,-8.80757 13.8921,-21.61077 17.9375,-36.5625 4.0454,-14.95173 4.9194,-29.26886 2.9375,-40.625 -1.9819,-11.35613 -6.9483,-20.31122 -15.5,-22.625 -1.6034,-0.43383 -3.2319,-0.6017 -4.8437,-0.53125 z m 0.3125,6.25 c 0.3056,-0.0154 0.6086,-0.0122 0.9062,0 0.6802,0.0278 1.3673,0.1413 2,0.3125 5.0619,1.36956 9.1964,7.50102 10.9688,17.65625 1.7723,10.15522 1.0268,23.74735 -2.8125,37.9375 -3.8394,14.19016 -10.0366,26.28007 -16.6875,34.15625 -6.651,7.87618 -13.3444,11.088309 -18.4063,9.718749 -5.0619,-1.369569 -9.1964,-7.501019 -10.9687,-17.656249 -1.7724,-10.15522 -1.0269,-23.74734 2.8125,-37.9375 3.8393,-14.19015 10.0365,-26.28007 16.6875,-34.15625 5.4558,-6.46093 10.9155,-9.80015 15.5,-10.03125 z"
       id="path4513"
       inkscape:connector-curvature="0"
       sodipodi:nodetypes="sssscccccccssssscsssssssssc" />
    <path
       style="font-size:medium;font-style:normal;font-variant:normal;font-weight:normal;font-stretch:normal;text-indent:0;text-align:start;text-decoration:none;line-height:normal;letter-spacing:normal;word-spacing:normal;text-transform:none;direction:ltr;block-progression:tb;writing-mode:lr-tb;text-anchor:start;baseline-shift:baseline;color:#000000;fill:#000000;fill-opacity:1;stroke:none;stroke-width:6.25;marker:none;visibility:visible;display:inline;overflow:visible;enable-background:accumulate;font-family:Sans;-inkscape-font-specification:Sans"
       d="m 297.63202,-204.71366 -31.1563,111.249999 6.0313,1.6875 14.4375,-51.562499 30,51.968749 5.4375,-3.125 -25.4063,-43.937499 c 22.6319,-2.01138 38.1998,-16.68689 41.4063,-32.3125 1.7245,-8.4043 -0.2612,-17.20416 -7.6875,-23.625 -5.4264,-6.42084 -15.9447,-10.34375 -30.6875,-10.34375 z m 4.6875,6.40625 c 12.218,0.41287 20.33,3.77155 24.9375,8.375 4.9123,4.90808 6.375,11.23657 5,17.9375 -2.7502,13.40185 -17.5615,27.6875 -40.4375,27.6875 l -4.5938,0 z"
       id="path4517"
       inkscape:connector-curvature="0"
       sodipodi:nodetypes="cccccccsssccssscc" />
    <path
       style="font-size:medium;font-style:normal;font-variant:normal;font-weight:normal;font-stretch:normal;text-indent:0;text-align:start;text-decoration:none;line-height:normal;letter-spacing:normal;word-spacing:normal;text-transform:none;direction:ltr;block-progression:tb;writing-mode:lr-tb;text-anchor:start;baseline-shift:baseline;color:#000000;fill:#000000;fill-opacity:1;stroke:none;stroke-width:6.25;marker:none;visibility:visible;display:inline;overflow:visible;enable-background:accumulate;font-family:Sans;-inkscape-font-specification:Sans"
       d="m 385.66322,-204.65116 c -12.0397,0 -20.5738,1.64863 -26.625,4.9375 -6.0512,3.28887 -9.4016,8.50557 -10.3125,14.25 -1.8218,11.48885 4.2669,24.86653 9.5625,38.0625 5.2956,13.19597 9.7117,26.08583 7.3438,34.375 -1.184,4.14459 -3.7113,7.40048 -9.3438,10 -5.6325,2.59952 -14.4133,4.281249 -27.1562,4.281249 l -3.125,0 0,6.25 3.125,0 c 13.2729,0 22.8357,-1.65268 29.75,-4.84375 6.9142,-3.191069 11.1294,-8.186599 12.7812,-13.968749 3.3036,-11.56431 -2.2663,-25.16216 -7.5937,-38.4375 -5.3275,-13.27534 -10.4827,-26.38537 -9.1563,-34.75 0.6632,-4.18231 2.4908,-7.21702 7.0938,-9.71875 4.6029,-2.50173 12.2034,-4.1875 23.6562,-4.1875 l 3.125,0 0,-6.25 -3.125,0 z"
       id="path4519"
       inkscape:connector-curvature="0" />
    <path
       style="font-size:medium;font-style:normal;font-variant:normal;font-weight:normal;font-stretch:normal;text-indent:0;text-align:start;text-decoration:none;line-height:normal;letter-spacing:normal;word-spacing:normal;text-transform:none;direction:ltr;block-progression:tb;writing-mode:lr-tb;text-anchor:start;baseline-shift:baseline;color:#000000;fill:#000000;fill-opacity:1;stroke:none;stroke-width:6.25;marker:none;visibility:visible;display:inline;overflow:visible;enable-background:accumulate;font-family:Sans;-inkscape-font-specification:Sans"
       d="m 394.78822,-204.71366 0,6.25 18.8438,0 -28.1563,105.031249 6.0313,1.625 28.5937,-106.656249 22.9375,0 0,-6.25 z"
       id="path4521"
       inkscape:connector-curvature="0"
       sodipodi:nodetypes="ccccccccc" />
    <path
       style="font-size:medium;font-style:normal;font-variant:normal;font-weight:normal;font-stretch:normal;text-indent:0;text-align:start;text-decoration:none;line-height:normal;letter-spacing:normal;word-spacing:normal;text-transform:none;direction:ltr;block-progression:tb;writing-mode:lr-tb;text-anchor:start;baseline-shift:baseline;color:#000000;fill:#000000;fill-opacity:1;stroke:none;stroke-width:6.25;marker:none;visibility:visible;display:inline;overflow:visible;enable-background:accumulate;font-family:Sans;-inkscape-font-specification:Sans"
       d="m 448.53822,-205.46366 -0.9687,2.96875 c -11.2763,34.16696 -15.9179,60.48991 -16.25,78.71875 -0.1661,9.11442 0.7113,16.18804 2.5625,21.40625 1.8511,5.218209 5.0641,9.046619 9.5312,9.531249 4.4671,0.48463 8.5605,-2.30205 12.3438,-6.84375 3.7832,-4.541699 7.5022,-11.168429 11.0312,-20.093749 7.058,-17.85064 13.3425,-44.79081 16.5938,-81.4375 l 0.2812,-3.125 -6.2187,-0.5625 -0.2813,3.125 c -3.2121,36.20502 -9.4548,62.65954 -16.1875,79.6875 -3.3664,8.51398 -6.8744,14.65402 -10,18.40625 -3.1256,3.752229 -5.6318,4.759869 -6.875,4.624999 -1.2432,-0.13487 -2.8641,-1.323469 -4.3125,-5.406249 -1.4484,-4.08278 -2.3761,-10.58262 -2.2187,-19.21875 0.3147,-17.27226 4.8018,-43.10304 15.9375,-76.84375 l 0.9687,-2.96875 -5.9375,-1.96875 z"
       id="path4525"
       inkscape:connector-curvature="0" />
    <path
       style="font-size:medium;font-style:normal;font-variant:normal;font-weight:normal;font-stretch:normal;text-indent:0;text-align:start;text-decoration:none;line-height:normal;letter-spacing:normal;word-spacing:normal;text-transform:none;direction:ltr;block-progression:tb;writing-mode:lr-tb;text-anchor:start;baseline-shift:baseline;color:#000000;fill:#000000;fill-opacity:1;stroke:none;stroke-width:6.25;marker:none;visibility:visible;display:inline;overflow:visible;enable-background:accumulate;font-family:Sans;-inkscape-font-specification:Sans"
       d="m 535.81952,-205.74491 -44.0313,95.875 0,-94.84375 -6.25,0 0,109.093749 5.9688,1.28125 50,-108.781249 z"
       id="path4527"
       inkscape:connector-curvature="0"
       sodipodi:nodetypes="cccccccc" />
    <path
       style="font-size:medium;font-style:normal;font-variant:normal;font-weight:normal;font-stretch:normal;text-indent:0;text-align:start;text-decoration:none;line-height:normal;letter-spacing:normal;word-spacing:normal;text-transform:none;direction:ltr;block-progression:tb;writing-mode:lr-tb;text-anchor:start;baseline-shift:baseline;color:#000000;fill:#000000;fill-opacity:1;stroke:none;stroke-width:6.25;marker:none;visibility:visible;display:inline;overflow:visible;enable-background:accumulate;font-family:Sans;-inkscape-font-specification:Sans"
       d="m 592.19451,-205.74491 -20.49999,42.46875 0,-41.4375 -5.25,0 0,55.03125 -18.25,39.75 0,-94.78125 -6.25,0 0,109.093749 5.9375,1.28125 18.5625,-40.374999 0,39.093749 5.9375,1.28125 49.99999,-108.781249 -6.6875,-2.625 -43.99999,95.8125 0,-38.40625 26.18749,-54.78125 z"
       id="path4529"
       inkscape:connector-curvature="0"
       sodipodi:nodetypes="ccccccccccccccccccc" />
    <path
       style="font-size:medium;font-style:normal;font-variant:normal;font-weight:normal;font-stretch:normal;text-indent:0;text-align:start;text-decoration:none;line-height:normal;letter-spacing:normal;word-spacing:normal;text-transform:none;direction:ltr;block-progression:tb;writing-mode:lr-tb;text-anchor:start;baseline-shift:baseline;color:#000000;fill:#000000;fill-opacity:1;stroke:none;stroke-width:6.25;marker:none;visibility:visible;display:inline;overflow:visible;enable-background:accumulate;font-family:Sans;-inkscape-font-specification:Sans"
       d="m 668.75701,-205.86991 -27.1563,47.0625 -12.4687,-46.59375 -6.0625,1.59375 14.125,52.65625 -32.7188,56.656249 5.4063,3.125 29.5937,-51.249999 13.625,50.812499 6.0313,-1.625 -15.25,-56.843749 30.2812,-52.46875 z"
       id="path4533"
       inkscape:connector-curvature="0"
       sodipodi:nodetypes="ccccccccccccc" />
    <path
       style="font-size:medium;font-style:normal;font-variant:normal;font-weight:normal;font-stretch:normal;text-indent:0;text-align:start;text-decoration:none;line-height:normal;letter-spacing:normal;word-spacing:normal;text-transform:none;direction:ltr;block-progression:tb;writing-mode:lr-tb;text-anchor:start;baseline-shift:baseline;color:#000000;fill:#000000;fill-opacity:1;stroke:none;stroke-width:6.25;marker:none;visibility:visible;display:inline;overflow:visible;enable-background:accumulate;font-family:Sans;-inkscape-font-specification:Sans"
       d="m 725.25701,-205.86991 -27.1563,47.0625 -12.4687,-46.59375 -6.0625,1.59375 13.125,52.65625 -31.7188,56.656249 5.4063,3.125 64.2812,-111.374999 z"
       id="path4537"
       inkscape:connector-curvature="0"
       sodipodi:nodetypes="ccccccccc" />
    <path
       style="font-size:medium;font-style:normal;font-variant:normal;font-weight:normal;font-stretch:normal;text-indent:0;text-align:start;text-decoration:none;line-height:normal;letter-spacing:normal;word-spacing:normal;text-transform:none;direction:ltr;block-progression:tb;writing-mode:lr-tb;text-anchor:start;baseline-shift:baseline;color:#000000;fill:#000000;fill-opacity:1;stroke:none;stroke-width:6.25;marker:none;visibility:visible;display:inline;overflow:visible;enable-background:accumulate;font-family:Sans;-inkscape-font-specification:Sans"
       d="m 732.88201,-204.71366 0,6.25 34.375,0 -70.6875,105.968749 48.2187,0 0,-6.25 -36.5625,0 70.75,-105.968749 z"
       id="path4541"
       inkscape:connector-curvature="0"
       sodipodi:nodetypes="ccccccccc" />
    <path
       style="font-size:medium;font-style:normal;font-variant:normal;font-weight:normal;font-stretch:normal;text-indent:0;text-align:start;text-decoration:none;line-height:normal;letter-spacing:normal;word-spacing:normal;text-transform:none;direction:ltr;block-progression:tb;writing-mode:lr-tb;text-anchor:start;baseline-shift:baseline;color:#000000;fill:#000000;fill-opacity:1;stroke:none;stroke-width:6.25;marker:none;visibility:visible;display:inline;overflow:visible;enable-background:accumulate;font-family:Sans;-inkscape-font-specification:Sans"
       d="m 209.4382,183.08219 c -14.5966,3.69864 -25.9471,15.0926 -33.875,28.875 -7.9279,13.7824 -12.5543,30.06655 -13.5625,44.5 -1.0082,14.43345 1.2876,27.32848 9.3438,33.78124 4.028,3.2264 9.5437,4.3812 15.5937,2.9375 6.05,-1.4437 12.7767,-5.2459 20.5,-11.78124 l -4.0312,-4.78125 c -7.2563,6.14011 -13.3193,9.36669 -17.9375,10.46879 -4.6183,1.102 -7.6744,0.3192 -10.2188,-1.71879 -5.0887,-4.07593 -7.9373,-15.05011 -7,-28.46875 0.9373,-13.41864 5.366,-28.97572 12.75,-41.8125 7.384,-12.83678 17.6109,-22.80614 29.9688,-25.9375 l -1.5313,-6.0625 z"
       id="path4547"
       inkscape:connector-curvature="0" />
    <path
       style="font-size:medium;font-style:normal;font-variant:normal;font-weight:normal;font-stretch:normal;text-indent:0;text-align:start;text-decoration:none;line-height:normal;letter-spacing:normal;word-spacing:normal;text-transform:none;direction:ltr;block-progression:tb;writing-mode:lr-tb;text-anchor:start;baseline-shift:baseline;color:#000000;fill:#000000;fill-opacity:1;stroke:none;stroke-width:6.25;marker:none;visibility:visible;display:inline;overflow:visible;enable-background:accumulate;font-family:Sans;-inkscape-font-specification:Sans"
       d="m 279.532,120.26969 -10.125,65.40625 c -22.7366,5.38876 -38.5487,21.0746 -48.2813,38.96875 -10.0292,18.43953 -13.9118,39.13993 -12.8437,54.34375 0.534,7.60189 2.1869,13.89209 5.6875,18.06249 1.7502,2.0852 4.1169,3.5954 6.8437,3.9688 2.7268,0.3733 5.5729,-0.3673 8.3438,-2 5.5416,-3.2655 11.2493,-9.9573 17.7187,-21.06254 3.7667,-6.46578 7.7978,-14.6541 12,-24.375 l -6.125,39.68754 3.0938,0.5 3.0625,0.4687 16.0312,-103.46874 0.8125,-0.15625 -0.4375,-2.21875 10.4063,-67.15625 z m -11.3125,72.1875 -6,35.78125 c -7.5926,20.77207 -14.5869,35.98301 -20.75,46.5625 -6.1935,10.63153 -11.6364,16.55419 -15.4688,18.81249 -1.9162,1.1291 -3.317,1.3593 -5.3437,1.2188 -0.027,-0.1406 -0.9107,-0.6264 -1.9063,-1.8125 -1.9912,-2.3723 -3.7368,-7.60802 -4.2187,-14.46879 -0.964,-13.72155 2.6602,-33.65069 12.0625,-50.9375 8.7323,-16.05516 22.3035,-29.6999 41.625,-35.15625 z"
       id="path4553"
       inkscape:connector-curvature="0"
       sodipodi:nodetypes="ccsssssscccccccccccssssssc" />
    <path
       style="font-size:medium;font-style:normal;font-variant:normal;font-weight:normal;font-stretch:normal;text-indent:0;text-align:start;text-decoration:none;line-height:normal;letter-spacing:normal;word-spacing:normal;text-transform:none;direction:ltr;block-progression:tb;writing-mode:lr-tb;text-anchor:start;baseline-shift:baseline;color:#000000;fill:#000000;fill-opacity:1;stroke:none;stroke-width:6.25;marker:none;visibility:visible;display:inline;overflow:visible;enable-background:accumulate;font-family:Sans;-inkscape-font-specification:Sans"
       d="m 322.8132,182.20719 c -2.7206,0.29565 -5.63,1.439 -8.875,3.3125 -9.1231,5.26724 -17.1711,16.9653 -23.9375,30.78125 -6.7664,13.81595 -12.0325,29.79012 -14.4375,43.78125 -0.1345,0.78219 -0.165,1.48099 -0.2812,2.25 l -0.1563,0.0625 0.125,0.28125 c -0.8838,5.97534 -1.3258,11.61142 -0.9062,16.46875 0.4816,5.5756 1.8734,10.38634 5.125,13.65624 3.2515,3.2699 8.3303,4.2258 13.8125,2.625 5.4821,-1.6008 11.7593,-5.4403 19.4375,-11.93749 l 2.4062,-2 -4.0625,-4.78125 -2.375,2.03125 c -7.3014,6.17831 -13.0827,9.49799 -17.1562,10.68749 -4.0736,1.1895 -6.0158,0.5871 -7.625,-1.0312 -1.6093,-1.6183 -2.9305,-4.99693 -3.3438,-9.78129 -0.2936,-3.39858 -0.01,-7.56936 0.5,-12 25.2245,-11.24404 42.4262,-35.10862 48.5938,-54.3125 4.6112,-9.67547 6.0176,-18.13309 3.4375,-24.25 -1.2901,-3.05845 -4.1518,-5.46294 -7.625,-5.84375 -0.8684,-0.0952 -1.7495,-0.0985 -2.6563,0 z m 1.9688,6.21875 c 1.4067,0.15423 1.9241,0.54904 2.5625,2.0625 1.2767,3.02693 0.7957,10.71105 -2.5313,19.625 -6.243,16.72675 -21.4342,37.87392 -42.625,48.875 2.4398,-12.78445 7.2854,-27.37601 13.4375,-39.9375 6.4916,-13.25467 14.5606,-24.1546 21.4375,-28.125 3.6734,-2.12082 6.312,-2.65423 7.7188,-2.5 z"
       id="path4559"
       inkscape:connector-curvature="0" />
    <path
       style="font-size:medium;font-style:normal;font-variant:normal;font-weight:normal;font-stretch:normal;text-indent:0;text-align:start;text-decoration:none;line-height:normal;letter-spacing:normal;word-spacing:normal;text-transform:none;direction:ltr;block-progression:tb;writing-mode:lr-tb;text-anchor:start;baseline-shift:baseline;color:#000000;fill:#000000;fill-opacity:1;stroke:none;stroke-width:6.25;marker:none;visibility:visible;display:inline;overflow:visible;enable-background:accumulate;font-family:Sans;-inkscape-font-specification:Sans"
       d="m 426.657,181.64469 -2.0625,0.625 c -23.8686,4.89238 -40.2833,21.09172 -50.3125,39.53125 -10.0293,18.43953 -13.9118,39.13993 -12.8438,54.34375 0.534,7.60191 2.187,13.89204 5.6875,18.06254 1.7503,2.0852 4.117,3.6266 6.8438,4 2.7267,0.3733 5.6041,-0.3985 8.375,-2.0313 5.5416,-3.2655 11.218,-9.926 17.6875,-21.03124 3.7565,-6.44842 7.7789,-14.627 11.9687,-24.3125 l -5.7187,37.21874 -0.4375,-1.1562 -2.9375,1.125 c -15.8311,5.9813 -26.3351,12.8712 -32.6875,20.2187 -6.3525,7.3475 -8.4324,15.3303 -6.9063,22.4375 3.0521,14.2144 18.9985,24 36.6563,24 l 1.6875,0 26.3437,-166.71874 0.9375,-0.1875 z m -5.3125,7.96875 -5.9688,35.84375 c -7.5884,20.75705 -14.5585,35.95674 -21.7187,46.53125 -5.1935,10.63153 -10.6677,16.55419 -14.5,18.81249 -1.9162,1.1291 -3.2858,1.3593 -4.3125,1.2188 -1.0268,-0.1406 -1.9419,-0.6264 -2.9375,-1.8125 -1.9913,-2.3723 -3.7368,-7.63927 -4.2188,-14.50004 -0.9639,-13.72155 2.6915,-33.61944 12.0938,-50.90625 8.7261,-16.04373 22.2631,-29.72321 41.5625,-35.1875 z m -15.9375,104.12499 -8.0938,54.5 c -14.126,-0.9549 -25.8393,-9.2489 -27.9062,-18.875 -1.0983,-5.115 0.1585,-10.8169 5.5312,-17.0312 5.3727,-6.2144 14.9972,-12.7296 30.1875,-18.4688 z"
       id="path4576"
       inkscape:connector-curvature="0"
       sodipodi:nodetypes="ccssssssccccsssccccccsssssscccsscc" />
    <path
       style="font-size:medium;font-style:normal;font-variant:normal;font-weight:normal;font-stretch:normal;text-indent:0;text-align:start;text-decoration:none;line-height:normal;letter-spacing:normal;word-spacing:normal;text-transform:none;direction:ltr;block-progression:tb;writing-mode:lr-tb;text-anchor:start;baseline-shift:baseline;color:#000000;fill:#000000;fill-opacity:1;stroke:none;stroke-width:6.25;marker:none;visibility:visible;display:inline;overflow:visible;enable-background:accumulate;font-family:Sans;-inkscape-font-specification:Sans"
       d="m 451.0632,119.92594 -29.4062,173.31249 6.1563,1.0313 6.875,-40.62504 c 14.4224,-26.33287 25.5031,-44.73447 33.25,-55.25 3.916,-5.31558 7.1256,-8.64862 8.9375,-9.84375 0.6953,-0.45867 0.7684,-0.41471 0.8125,-0.4375 0.4509,0.9403 1.0434,4.47794 0.7812,9.78125 -0.2661,5.38286 -1.1841,12.61589 -2.6875,21.5625 -5.3777,28.97416 -10.9857,52.99632 -16.5312,76.62504 l 6.0625,1.4375 c 5.8411,-25.75407 12.4054,-52.29386 16.625,-77.03129 1.5267,-9.08534 2.4633,-16.48481 2.75,-22.28125 0.2866,-5.79644 0.1927,-9.86047 -1.4688,-13.0625 -0.8308,-1.60101 -2.5363,-3.13173 -4.5312,-3.375 -1.995,-0.24327 -3.7011,0.52018 -5.2813,1.5625 -3.1604,2.08464 -6.3961,5.77314 -10.5,11.34375 -6.3262,8.58723 -15.0437,23.14559 -25.1562,41 6.5364,-38.23154 12.9044,-76.49196 19.4687,-114.71875 z"
       id="path4584"
       inkscape:connector-curvature="0"
       sodipodi:nodetypes="ccccsscsccccsssssccc" />
    <path
       inkscape:connector-curvature="0"
       style="font-size:medium;font-style:normal;font-variant:normal;font-weight:normal;font-stretch:normal;text-indent:0;text-align:start;text-decoration:none;line-height:normal;letter-spacing:normal;word-spacing:normal;text-transform:none;direction:ltr;block-progression:tb;writing-mode:lr-tb;text-anchor:start;baseline-shift:baseline;color:#000000;fill:#000000;fill-opacity:1;stroke:none;stroke-width:6.25;marker:none;visibility:visible;display:inline;overflow:visible;enable-background:accumulate;font-family:Sans;-inkscape-font-specification:Sans"
       d="m 503.5632,180.86344 c -2.843,0 -5.2187,2.34449 -5.2187,5.1875 0,1.45218 0.6104,2.79475 1.5937,3.75 -6.4252,31.06907 -13.8502,58.25572 -17.8437,76.9375 -2.0516,9.59722 -3.263,16.79814 -2.7813,21.93749 0.2408,2.5697 0.9226,5.1649 3.375,6.5625 2.4524,1.3976 5.1588,0.5989 7.5938,-0.75 l 0.031,-0.031 c 16.7455,-9.28762 27.1562,-22.31249 27.1562,-22.31249 l -4.875,-3.90625 c 0,0 -9.787,12.16335 -25.3437,20.78124 -0.768,0.4254 -1.1769,0.5653 -1.4063,0.625 -0.091,-0.2455 -0.234,-0.7249 -0.3125,-1.5625 -0.32,-3.41474 0.6731,-10.63925 2.6875,-20.06249 3.943,-18.44535 11.4408,-45.95088 17.9375,-77.46875 1.5395,-0.91704 2.5938,-2.60795 2.5938,-4.5 0,-2.84301 -2.3445,-5.1875 -5.1875,-5.1875 z m 0,4.15625 c 0.5347,0 1.0313,0.49652 1.0313,1.03125 0,0.53474 -0.4966,1.0625 -1.0313,1.0625 -0.5347,0 -1.0625,-0.52776 -1.0625,-1.0625 0,-0.53473 0.5278,-1.03125 1.0625,-1.03125 z"
       id="path4592" />
    <path
       style="font-size:medium;font-style:normal;font-variant:normal;font-weight:normal;font-stretch:normal;text-indent:0;text-align:start;text-decoration:none;line-height:normal;letter-spacing:normal;word-spacing:normal;text-transform:none;direction:ltr;block-progression:tb;writing-mode:lr-tb;text-anchor:start;baseline-shift:baseline;color:#000000;fill:#000000;fill-opacity:1;stroke:none;stroke-width:6.25;marker:none;visibility:visible;display:inline;overflow:visible;enable-background:accumulate;font-family:Sans;-inkscape-font-specification:Sans"
       d="m 543.8757,180.53812 c -2.843,0 -6.2187,2.34449 -6.2187,5.1875 0,1.49279 1.6871,2.85237 2.7187,3.8125 l -15.3437,100.71871 -8.4375,0 c -12.1888,0 -20.1859,4.2522 -23.9688,11 -3.7829,6.7479 -3.3312,15.1167 -1.0312,23.125 2.2999,8.0084 6.5158,15.8209 11.2812,21.8125 4.7654,5.9917 9.8095,10.625 15.6875,10.625 l 2.6875,0 -0.5937,-2.6562 9.7812,-57.6563 13.375,0 0,-6.25 -12.4375,0 15.2188,-100.09371 c 1.4835,-0.92989 2.5,-2.58761 2.5,-4.4375 0,-2.84301 -2.3758,-5.1875 -5.2188,-5.1875 z m 0,4.15625 c 0.5347,0 1.0313,0.49652 1.0313,1.03125 0,0.53474 -0.4966,1.03125 -1.0313,1.03125 -0.5347,0 -1.0312,-0.49651 -1.0312,-1.03125 0,-0.53473 0.4965,-1.03125 1.0312,-1.03125 z m -27.2812,111.81246 7.5,0 -8.0625,53.0625 c -2.2715,-1.2292 -5.3598,-3.6159 -8.25,-7.25 -4.2276,-5.3154 -8.1578,-12.5885 -10.1875,-19.6562 -2.0298,-7.0678 -2.0873,-13.7845 0.4687,-18.3438 2.556,-4.5592 7.7073,-7.8125 18.5313,-7.8125 z"
       id="path4605"
       inkscape:connector-curvature="0" />
    <path
       style="font-size:medium;font-style:normal;font-variant:normal;font-weight:normal;font-stretch:normal;text-indent:0;text-align:start;text-decoration:none;line-height:normal;letter-spacing:normal;word-spacing:normal;text-transform:none;direction:ltr;block-progression:tb;writing-mode:lr-tb;text-anchor:start;baseline-shift:baseline;color:#000000;fill:#000000;fill-opacity:1;stroke:none;stroke-width:6.25;marker:none;visibility:visible;display:inline;overflow:visible;enable-background:accumulate;font-family:Sans;-inkscape-font-specification:Sans"
       d="m 586.6882,117.38268 -0.5312,3.09375 -29.6875,170.1875 -0.5313,3.0937 6.1563,1.0625 0.5312,-3.0625 29.6875,-170.2187 0.5313,-3.0625 z m 28.8125,63.5625 -1.875,2.5 c -16.9472,22.5331 -27.1211,36.142 -32.8437,44.21875 -2.8614,4.03838 -4.5993,6.65153 -5.625,8.53125 -0.5129,0.93986 -0.8715,1.60857 -1.0625,2.71875 -0.095,0.55509 -0.1927,1.34083 0.3125,2.34375 0.5051,1.00292 1.736,1.74158 2.5312,1.875 1.5904,0.26684 2.1009,-0.18048 2.75,-0.4375 0.6491,-0.25702 1.2562,-0.55579 1.9063,-0.875 1.3,-0.63842 2.7313,-1.35672 3.9062,-1.75 1.1749,-0.39328 1.9705,-0.27263 1.875,-0.3125 0.036,0.10636 0.095,0.40549 0.1563,1.21875 0.017,18.13132 1.9688,30.92255 3.9687,39.25 2.0086,8.3635 4.1875,12.4687 4.1875,12.4687 l 1.4688,2.75 5.39286,-2.9687 -1.36166,-2.75 c 0,0 -1.7393,-3.0855 -3.625,-10.9375 -1.8857,-7.85201 -3.7812,-20.225 -3.7812,-38.03125 l 0,-0.125 -0.031,-0.125 c -0.2182,-2.90603 -1.6379,-5.55801 -3.9687,-6.53125 -2.1178,-0.88432 -4.0336,-0.46382 -5.7188,0.0625 0.7172,-1.05829 0.8586,-1.39084 1.8438,-2.78125 5.6192,-7.93079 15.7457,-21.5366 32.6875,-44.0625 l 1.875,-2.5 -4.9688,-3.75 z"
       id="path4618"
       inkscape:connector-curvature="0"
       sodipodi:nodetypes="cccccccccccccccsscsccsccccssccscccccc" />
    <path
       style="font-size:medium;font-style:normal;font-variant:normal;font-weight:normal;font-stretch:normal;text-indent:0;text-align:start;text-decoration:none;line-height:normal;letter-spacing:normal;word-spacing:normal;text-transform:none;direction:ltr;block-progression:tb;writing-mode:lr-tb;text-anchor:start;baseline-shift:baseline;color:#000000;fill:#000000;fill-opacity:1;stroke:none;stroke-width:6.25;marker:none;visibility:visible;display:inline;overflow:visible;enable-background:accumulate;font-family:Sans;-inkscape-font-specification:Sans"
       d="m 648.5546,123.26969 -6.2188,0.34375 c 0.5612,9.98181 -3.5136,30.17293 -8.9687,52.6875 -5.4551,22.51457 -12.1949,47.62095 -16.7188,68.84375 -2.2619,10.6114 -3.9861,20.26574 -4.6875,28.21875 -0.7013,7.95301 -0.6563,14.13729 1.7813,18.65629 1.2188,2.2594 3.4671,4.1179 6.125,4.4687 2.6579,0.3509 5.3381,-0.5076 8.2187,-2.0937 5.7613,-3.1724 12.7997,-9.60476 22.2188,-20.25004 l -4.6875,-4.15625 c -9.2061,10.4045 -16.126,16.49459 -20.5625,18.93749 -2.2183,1.2215 -3.71,1.4315 -4.375,1.3438 -0.665,-0.088 -0.8888,-0.2016 -1.4375,-1.2188 -1.0974,-2.0345 -1.7242,-7.65283 -1.0625,-15.15624 0.6617,-7.50341 2.3281,-16.95521 4.5625,-27.4375 4.4687,-20.96457 11.2363,-46.06004 16.7187,-68.6875 5.4825,-22.62746 9.7677,-42.51099 9.0938,-54.5 z"
       id="path4631"
       inkscape:connector-curvature="0" />
    <path
       inkscape:connector-curvature="0"
       style="font-size:medium;font-style:normal;font-variant:normal;font-weight:normal;font-stretch:normal;text-indent:0;text-align:start;text-decoration:none;line-height:normal;letter-spacing:normal;word-spacing:normal;text-transform:none;direction:ltr;block-progression:tb;writing-mode:lr-tb;text-anchor:start;baseline-shift:baseline;color:#000000;fill:#000000;fill-opacity:1;stroke:none;stroke-width:6.25;marker:none;visibility:visible;display:inline;overflow:visible;enable-background:accumulate;font-family:Sans;-inkscape-font-specification:Sans"
       d="m 675.50071,184.23844 -19.43751,108.96879 6.1563,1.0937 7.40621,-41.56249 c 14.0956,-25.6835 24.4645,-42.83816 31.2813,-51.78125 3.2425,-4.25398 5.7905,-6.46592 6.8437,-7.09375 0.06,0.14078 -10e-4,-0.0373 0.063,0.21875 0.4564,1.82626 0.5593,5.97302 0.031,11.59375 -0.5281,5.62073 -1.6239,12.83134 -3.1562,21.375 -4.9605,25.69621 -9.6855,47.69685 -14.5313,69.06249 l 6.0938,1.375 c 3.0472,-14.23352 6.311,-28.75602 9.3125,-42.90624 l 0.125,0.0625 1.5,-2.75 c 14.6565,-26.80019 25.2285,-44.23561 32.2187,-53.40625 3.2425,-4.25398 5.7906,-6.46592 6.8438,-7.09375 0.058,0.13938 7e-4,-0.0281 0.063,0.21875 0.4564,1.82626 0.5592,5.97302 0.031,11.59375 -0.528,5.62073 -1.6239,12.80009 -3.1562,21.34375 -3.0647,17.08733 -7.9208,39.57079 -13.8438,66.03129 l -0.6875,3.0625 6.0938,1.3437 0.6875,-3.0312 c 5.9278,-26.48219 10.8062,-48.99678 13.9062,-66.28129 1.5501,-8.64226 2.6635,-15.99516 3.2188,-21.90625 0.5553,-5.91109 0.6565,-10.31032 -0.1875,-13.6875 -0.422,-1.68859 -1.0957,-3.31669 -2.75,-4.4375 -0.8272,-0.5604 -1.8077,-0.82582 -2.7813,-0.84375 -0.9735,-0.0179 -1.946,0.20706 -2.75,0.5625 -3.2156,1.42177 -5.9282,4.45293 -9.6562,9.34375 -6.0391,7.92293 -14.1452,21.02169 -24.8125,39.96875 0.4199,-2.1927 0.8286,-4.37751 1.2187,-6.53125 1.5501,-8.64226 2.6635,-15.96391 3.2188,-21.875 0.5553,-5.91109 0.6565,-10.31032 -0.1875,-13.6875 -0.422,-1.68859 -1.0957,-3.34794 -2.75,-4.46875 -1.6543,-1.12081 -3.9234,-0.99214 -5.5313,-0.28125 -3.2156,1.42177 -5.9282,4.45293 -9.6562,9.34375 -5.5655,7.30159 -13.5686,20.60645 -23.0313,37.21875 l 8.75,-49.0625 -6.1562,-1.09375 z"
       id="path4637" />
    <path
       style="font-size:medium;font-style:normal;font-variant:normal;font-weight:normal;font-stretch:normal;text-indent:0;text-align:start;text-decoration:none;line-height:normal;letter-spacing:normal;word-spacing:normal;text-transform:none;direction:ltr;block-progression:tb;writing-mode:lr-tb;text-anchor:start;baseline-shift:baseline;color:#000000;fill:#000000;fill-opacity:1;stroke:none;stroke-width:6.25;marker:none;visibility:visible;display:inline;overflow:visible;enable-background:accumulate;font-family:Sans;-inkscape-font-specification:Sans"
       d="m 91.668328,415.81059 c -6.6033,37.42141 -13.7954,75.74188 -19.4062,108.99999 l 6.1562,1.0625 0,-0.031 7.4063,-41.53124 c 14.0953,-25.683 24.464502,-42.8382 31.281202,-51.7812 3.2407,-4.25157 5.7581,-6.46425 6.8125,-7.09375 0.06,0.14109 0,-0.0396 0.063,0.21875 0.4564,1.82626 0.5593,5.97302 0.031,11.59375 -0.5281,5.62073 -1.5927,12.83134 -3.125,21.375 -3.0647,17.08733 -7.952,39.57079 -13.875,66.03129 l -0.6875,3.0312 6.0938,1.375 0.6875,-3.0625 c 5.9278,-26.48214 10.8374,-48.99673 13.9375,-66.28124 1.55,-8.64226 2.6634,-15.96391 3.2187,-21.875 0.5553,-5.91109 0.6253,-10.31032 -0.2187,-13.6875 -0.4221,-1.68859 -1.0957,-3.34794 -2.75,-4.46875 -1.6544,-1.12081 -3.8922,-0.99214 -5.5,-0.28125 -3.2157,1.42177 -5.9283,4.45293 -9.6563,9.34375 -5.5562,7.28931 -13.591802,20.55743 -23.031202,37.125 2.8565,-16.33152 5.9128,-32.6284 8.7187,-48.96875 z"
       id="path4651"
       inkscape:connector-curvature="0"
       sodipodi:nodetypes="cccccsccssccccssssssccc" />
    <path
       style="font-size:medium;font-style:normal;font-variant:normal;font-weight:normal;font-stretch:normal;text-indent:0;text-align:start;text-decoration:none;line-height:normal;letter-spacing:normal;word-spacing:normal;text-transform:none;direction:ltr;block-progression:tb;writing-mode:lr-tb;text-anchor:start;baseline-shift:baseline;color:#000000;fill:#000000;fill-opacity:1;stroke:none;stroke-width:6.25;marker:none;visibility:visible;display:inline;overflow:visible;enable-background:accumulate;font-family:Sans;-inkscape-font-specification:Sans"
       d="m 258.26212,412.46684 c -2.7268,-0.37332 -5.573,0.3985 -8.3438,2.03125 -5.5417,3.2655 -11.2493,9.92605 -17.7187,21.03125 -3.7528,6.44193 -7.7524,14.60897 -11.9375,24.28125 l 6.0937,-39.59375 -6.1875,-0.96875 -16.0312,103.49999 -0.8125,0.1563 0.4375,2.2187 -10.375,67.15634 6.1562,0.9375 10.1563,-65.37504 c 22.7254,-5.3935 38.5516,-21.08007 48.2812,-38.96879 10.0292,-18.43953 13.8805,-39.13993 12.8125,-54.34375 -0.534,-7.60191 -2.1557,-13.89208 -5.6562,-18.0625 -1.7503,-2.08521 -4.1483,-3.62668 -6.875,-4 z m -0.8438,6.1875 c 1.0267,0.14057 1.9107,0.62636 2.9063,1.8125 1.9912,2.37228 3.768,7.63923 4.25,14.5 0.9639,13.72155 -2.6915,33.61944 -12.0938,50.90625 -8.7287,16.0484 -22.2853,29.72646 -41.5937,35.18749 l 5.9375,-35.68749 c 7.6121,-20.84313 14.6043,-36.08448 20.7812,-46.6875 6.1935,-10.63153 11.6676,-16.55424 15.5,-18.8125 1.9162,-1.12913 3.2858,-1.35932 4.3125,-1.21875 z"
       id="path4717"
       inkscape:connector-curvature="0"
       sodipodi:nodetypes="ssscccccccccssssssssccsss" />
    <path
       sodipodi:nodetypes="cccccsssssscccssssccsss"
       inkscape:connector-curvature="0"
       id="path4725"
       d="m 305.80842,588.32982 29.0625,-171.21874 0.9375,-0.1875 -1.25,-6.125 -3.0625,0.625 c -23.8686,4.89238 -40.2833,21.09172 -50.3125,39.53125 -10.0292,18.43953 -13.9118,39.13993 -12.8438,54.34375 0.5341,7.60191 2.187,13.8921 5.6875,18.0625 1.7503,2.0852 4.117,3.6267 6.8438,4 2.7268,0.3733 5.5729,-0.3985 8.3437,-2.0313 5.5417,-3.2655 11.2494,-9.926 17.7188,-21.0312 3.2541,-5.58599 6.6693,-12.319 10.25,-20.3125 l -17.5313,103.31254 z m -24.0938,-67.15624 c -1.0267,-0.1406 -1.9106,-0.6264 -2.9062,-1.8125 -1.9912,-2.37228 -3.7368,-7.63923 -4.2188,-14.5 -0.9639,-13.72155 2.6603,-33.61944 12.0625,-50.90625 8.7275,-16.0462 22.2896,-29.69368 41.5938,-35.15625 l -6.1563,36.34375 c -7.5091,20.47054 -14.4577,35.5208 -20.5625,46 -6.1934,10.63153 -11.6364,16.55425 -15.4687,18.81245 -1.9162,1.1292 -3.317,1.3594 -4.3438,1.2188 z"
       style="font-size:medium;font-style:normal;font-variant:normal;font-weight:normal;font-stretch:normal;text-indent:0;text-align:start;text-decoration:none;line-height:normal;letter-spacing:normal;word-spacing:normal;text-transform:none;direction:ltr;block-progression:tb;writing-mode:lr-tb;text-anchor:start;baseline-shift:baseline;color:#000000;fill:#000000;fill-opacity:1;stroke:none;stroke-width:6.25;marker:none;visibility:visible;display:inline;overflow:visible;enable-background:accumulate;font-family:Sans;-inkscape-font-specification:Sans" />
    <path
       style="font-size:medium;font-style:normal;font-variant:normal;font-weight:normal;font-stretch:normal;text-indent:0;text-align:start;text-decoration:none;line-height:normal;letter-spacing:normal;word-spacing:normal;text-transform:none;direction:ltr;block-progression:tb;writing-mode:lr-tb;text-anchor:start;baseline-shift:baseline;color:#000000;fill:#000000;fill-opacity:1;stroke:none;stroke-width:6.25;marker:none;visibility:visible;display:inline;overflow:visible;enable-background:accumulate;font-family:Sans;-inkscape-font-specification:Sans"
       d="m 349.66832,415.84184 -19.4374,108.93754 6.1875,1.0625 7.375,-41.46879 c 10.5753,-19.27579 19.0361,-33.75875 25.4687,-43.5 3.317,-5.0229 6.1161,-8.87055 8.375,-11.5 1.9502,-2.26986 3.4296,-3.4236 4.2188,-3.90625 0.2416,0.81185 0.5294,2.38389 0.5312,4.875 -0.8476,12.77474 -2.2277,21.28534 -4.2187,32.125 l 6.1563,1.125 c 1.6517,-11.05126 4.2407,-22.46963 4.3124,-33.25 0,-3.45665 -0.199,-6.09836 -1.4062,-8.40625 -0.6036,-1.15395 -1.6654,-2.30291 -3.125,-2.8125 -1.4596,-0.50959 -2.9633,-0.26364 -4.1875,0.25 -2.4483,1.02729 -4.4948,2.98525 -7.0313,5.9375 -2.5362,2.95225 -5.4387,6.93736 -8.8437,12.09375 -4.5938,6.95665 -10.4536,16.91671 -16.9375,28.3125 2.9451,-16.25332 5.7343,-32.53509 8.7188,-48.78125 z"
       id="path4727"
       inkscape:connector-curvature="0"
       sodipodi:nodetypes="cccccccccccssccsccc" />
    <path
       style="font-size:medium;font-style:normal;font-variant:normal;font-weight:normal;font-stretch:normal;text-indent:0;text-align:start;text-decoration:none;line-height:normal;letter-spacing:normal;word-spacing:normal;text-transform:none;direction:ltr;block-progression:tb;writing-mode:lr-tb;text-anchor:start;baseline-shift:baseline;color:#000000;fill:#000000;fill-opacity:1;stroke:none;stroke-width:6.25;marker:none;visibility:visible;display:inline;overflow:visible;enable-background:accumulate;font-family:Sans;-inkscape-font-specification:Sans"
       d="m 426.19962,416.31059 c -12.0397,0 -20.4114,1.62422 -26.2188,4.96875 -5.8074,3.34453 -8.7135,8.76085 -9.0312,14.53125 -0.6355,11.54079 6.805,24.79967 13.4687,38 6.6637,13.20033 12.4575,26.23354 10.9687,34.40625 -0.7443,4.08635 -2.8393,7.18819 -8.125,9.75004 -5.2856,2.5618 -13.882,4.25 -26.625,4.25 l -3.125,0 0,6.25 3.125,0 c 13.273,0 22.6821,-1.6463 29.3438,-4.875 6.6617,-3.2288 10.4674,-8.40965 11.5312,-14.25004 2.1278,-11.68078 -4.8006,-25.10403 -11.5,-38.375 -6.6993,-13.27097 -13.2701,-26.49981 -12.8124,-34.8125 0.2288,-4.15634 1.6589,-6.99144 5.9062,-9.4375 4.2473,-2.44606 11.6409,-4.15625 23.0938,-4.15625 l 3.125,0 0,-6.25 -3.125,0 z"
       id="path4734"
       inkscape:connector-curvature="0" />
    <path
       style="font-size:medium;font-style:normal;font-variant:normal;font-weight:normal;font-stretch:normal;text-indent:0;text-align:start;text-decoration:none;line-height:normal;letter-spacing:normal;word-spacing:normal;text-transform:none;direction:ltr;block-progression:tb;writing-mode:lr-tb;text-anchor:start;baseline-shift:baseline;color:#000000;fill:#000000;fill-opacity:1;stroke:none;stroke-width:6.25;marker:none;visibility:visible;display:inline;overflow:visible;enable-background:accumulate;font-family:Sans;-inkscape-font-specification:Sans"
       d="M 470.3125 786.8125 L 464.09375 787.15625 L 464.25 790.28125 C 464.81111 800.26306 460.76761 820.45418 455.3125 842.96875 C 454.58968 845.95199 453.79199 849.06581 453.03125 852.125 L 439.75 852.125 L 436.625 852.125 L 436.625 858.375 L 439.75 858.375 L 451.5 858.375 C 446.94232 876.51979 442.07812 895.31943 438.5625 911.8125 C 436.3006 922.4239 434.60756 932.04699 433.90625 940 C 433.20494 947.95301 433.21864 954.16855 435.65625 958.6875 C 436.87506 960.94698 439.15461 962.8054 441.8125 963.15625 C 444.47039 963.5071 447.11938 962.64869 450 961.0625 C 455.76124 957.89012 462.79964 951.45778 472.21875 940.8125 L 474.3125 938.46875 L 469.625 934.3125 L 467.5625 936.65625 C 458.35644 947.06075 451.43652 953.15082 447 955.59375 C 444.78174 956.81522 443.29002 957.02528 442.625 956.9375 C 441.95998 956.8497 441.70497 956.73598 441.15625 955.71875 C 440.05882 953.68428 439.46334 948.06591 440.125 940.5625 C 440.78666 933.05909 442.45312 923.60729 444.6875 913.125 C 448.25852 896.37203 453.26742 877.03639 457.9375 858.375 L 487.4375 858.375 L 490.5625 858.375 L 490.5625 852.125 L 487.4375 852.125 L 459.46875 852.125 C 460.10244 849.56532 460.76733 846.94552 461.375 844.4375 C 466.85746 821.81004 471.17394 801.92651 470.5 789.9375 L 470.3125 786.8125 z "
       transform="translate(0,-435.82679)"
       id="path4740" />
    <path
       sodipodi:nodetypes="cccccsccssccccssssssccc"
       inkscape:connector-curvature="0"
       id="path4746"
       d="m 528.45678,527.71711 c 6.6032,-37.4214 13.7953,-75.7419 19.4062,-109 l -6.1562,-1.0625 0,0.031 -7.4063,41.5313 c -14.0954,25.683 -24.4646,42.8382 -31.2812,51.7812 -3.2407,4.2516 -5.7581,6.4642 -6.8125,7.0937 -0.06,-0.141 0,0.04 -0.063,-0.2187 -0.4565,-1.8263 -0.5593,-5.9731 -0.031,-11.5938 0.528,-5.6207 1.5926,-12.8313 3.125,-21.375 3.0646,-17.0873 7.952,-39.5708 13.875,-66.0312 l 0.6875,-3.0313 -6.0938,-1.375 -0.6875,3.0625 c -5.9278,26.4822 -10.8374,48.9967 -13.9375,66.2813 -1.55,8.6422 -2.6634,15.9639 -3.2187,21.875 -0.5554,5.911 -0.6253,10.3103 0.2187,13.6875 0.422,1.6886 1.0957,3.3479 2.75,4.4687 1.6543,1.1209 3.8922,0.9922 5.5,0.2813 3.2156,-1.4218 5.9283,-4.4529 9.6563,-9.3438 5.5561,-7.2893 13.5918,-20.5574 23.0312,-37.125 -2.8565,16.3315 -5.9128,32.6284 -8.7187,48.9688 z"
       style="font-size:medium;font-style:normal;font-variant:normal;font-weight:normal;font-stretch:normal;text-indent:0;text-align:start;text-decoration:none;line-height:normal;letter-spacing:normal;word-spacing:normal;text-transform:none;direction:ltr;block-progression:tb;writing-mode:lr-tb;text-anchor:start;baseline-shift:baseline;color:#000000;fill:#000000;fill-opacity:1;stroke:none;stroke-width:6.25;marker:none;visibility:visible;display:inline;overflow:visible;enable-background:accumulate;font-family:Sans;-inkscape-font-specification:Sans" />
    <path
       style="font-size:medium;font-style:normal;font-variant:normal;font-weight:normal;font-stretch:normal;text-indent:0;text-align:start;text-decoration:none;line-height:normal;letter-spacing:normal;word-spacing:normal;text-transform:none;direction:ltr;block-progression:tb;writing-mode:lr-tb;text-anchor:start;baseline-shift:baseline;color:#000000;fill:#000000;fill-opacity:1;stroke:none;stroke-width:6.25;marker:none;visibility:visible;display:inline;overflow:visible;enable-background:accumulate;font-family:Sans;-inkscape-font-specification:Sans"
       d="m 560.625,413.34375 -0.59375,3.0625 c -5.48169,28.31825 -10.14392,51.76601 -13.15625,69.375 -1.50617,8.8045 -2.61554,16.1431 -3.1875,21.96875 -0.57196,5.82565 -0.71537,9.99621 0.0937,13.21875 0.40456,1.61127 1.12737,3.37866 3.03125,4.3125 1.90388,0.93384 3.96593,0.29016 5.40625,-0.59375 2.88064,-1.76781 5.4952,-5.00419 9.125,-10.15625 7.25959,-10.30411 17.70256,-28.26992 32.40625,-55.15625 l 0.25,-0.46875 0.0937,-0.5 6.8125,-40.875 0.53125,-3.0625 -6.1875,-1.03125 -0.5,3.0625 -6.71875,40.3125 c -14.51688,26.52918 -24.94734,44.38074 -31.8125,54.125 -2.92285,4.14862 -5.12235,6.50434 -6.4375,7.625 -0.27563,-1.83361 -0.35966,-5.25103 0.125,-10.1875 0.54599,-5.56115 1.63167,-12.8018 3.125,-21.53125 2.98666,-17.45889 7.63974,-40.91335 13.125,-69.25 l 0.59375,-3.0625 -6.125,-1.1875 z"
       id="path4748"
       inkscape:connector-curvature="0" />
    <path
       style="font-size:medium;font-style:normal;font-variant:normal;font-weight:normal;font-stretch:normal;text-indent:0;text-align:start;text-decoration:none;line-height:normal;letter-spacing:normal;word-spacing:normal;text-transform:none;direction:ltr;block-progression:tb;writing-mode:lr-tb;text-anchor:start;baseline-shift:baseline;color:#000000;fill:#000000;fill-opacity:1;stroke:none;stroke-width:6.25;marker:none;visibility:visible;display:inline;overflow:visible;enable-background:accumulate;font-family:Sans;-inkscape-font-specification:Sans"
       d="m 611.05808,413.34981 -0.5938,3.0625 c -5.4817,28.3183 -10.144,51.766 -13.1562,69.375 -1.5063,8.8045 -2.5843,16.1431 -3.1563,21.9688 -0.572,5.8256 -0.7471,9.9962 0.063,13.2188 0.4046,1.6112 1.1275,3.3474 3.0312,4.2812 1.904,0.9338 3.966,0.3214 5.4063,-0.5625 2.8806,-1.7678 5.4952,-5.0042 9.125,-10.1563 2.8675,-4.07 6.2544,-9.3992 10.1875,-15.9375 -0.8908,6.1847 -1.4435,11.3149 -1.5625,15.3125 -0.1066,3.5803 -0.036,6.2126 1,8.5626 0.5182,1.1749 1.5147,2.4629 3.0625,3 1.5478,0.537 3.0866,0.151 4.25,-0.4375 2.3268,-1.1772 4.2072,-3.2188 6.6562,-6.3125 2.4493,-3.0938 5.3136,-7.2496 8.6876,-12.5938 6.7476,-10.6886 15.5523,-26.1031 26.8437,-46.75 l 0.25,-0.4688 0.094,-0.5312 6.7813,-40.8438 0.5313,-3.0937 -6.1563,-1 -0.5313,3.0625 -6.7187,40.3437 c -11.1241,20.329 -19.8224,35.5581 -26.375,45.9375 -3.3047,5.2347 -6.0929,9.2587 -8.3125,12.0625 -1.5678,1.9805 -2.7365,3.0914 -3.5938,3.8126 -0.1603,-1.027 -0.2813,-2.4617 -0.2187,-4.5626 0.1877,-6.302 1.6327,-16.7367 4.0313,-30.4375 4.0584,-7.1238 8.5364,-15.148 13.5312,-24.2812 l 0.25,-0.4688 0.094,-0.5312 6.8124,-40.8438 0.5,-3.0937 -6.1562,-1 -0.5312,3.0625 -6.7188,40.3437 -31.7812,54.0938 c -2.937,4.1686 -5.1582,6.5142 -6.4688,7.625 -0.2791,-1.8251 -0.3304,-5.2609 0.1562,-10.2188 0.5461,-5.5611 1.6005,-12.8018 3.0938,-21.5312 2.9867,-17.4589 7.6711,-40.8821 13.1562,-69.2188 l 0.5938,-3.0625 z"
       id="path4750"
       inkscape:connector-curvature="0"
       sodipodi:nodetypes="cccsccsscscssccccccccccscccccccccccccccsccc" />
    <path
       style="font-size:medium;font-style:normal;font-variant:normal;font-weight:normal;font-stretch:normal;text-indent:0;text-align:start;text-decoration:none;line-height:normal;letter-spacing:normal;word-spacing:normal;text-transform:none;direction:ltr;block-progression:tb;writing-mode:lr-tb;text-anchor:start;baseline-shift:baseline;color:#000000;fill:#000000;fill-opacity:1;stroke:none;stroke-width:6.25;marker:none;visibility:visible;display:inline;overflow:visible;enable-background:accumulate;font-family:Sans;-inkscape-font-specification:Sans"
       d="m 760.28125,412.8125 -1.90625,2.5 c -16.93304,22.51429 -27.43307,36.05616 -33.65625,44 -3.11159,3.97192 -5.14656,6.56467 -6.40625,8.1875 -0.62984,0.81142 -1.04937,1.37459 -1.375,1.84375 -0.16281,0.23458 -0.28137,0.40471 -0.46875,0.78125 -0.0937,0.18827 -0.24598,0.3645 -0.34375,1 -0.0489,0.31775 -0.10481,0.80529 0.125,1.5 0.22981,0.69471 0.95308,1.53816 1.6875,1.875 1.46885,0.67367 2.04193,0.2106 2.375,0.0937 0.33307,-0.11685 0.48994,-0.20482 0.625,-0.28125 0.27012,-0.15286 0.44606,-0.2498 0.625,-0.375 0.35788,-0.2504 0.72645,-0.53866 1.15625,-0.84375 0.85959,-0.61019 1.92048,-1.29759 2.75,-1.65625 0.69386,-0.30001 0.77737,-0.21159 0.65625,-0.28125 0.0376,0.13049 0.10355,0.48521 0.15625,0.96875 0.003,0.0304 -0.003,0.0303 0,0.0625 0.009,18.39443 3.55652,31.55911 7.15625,40.15625 3.60411,8.60759 7.46875,12.875 7.46875,12.875 l 2.125,2.28125 4.59375,-4.25 -2.125,-2.28125 c 0,0 -3.02231,-3.17337 -6.3125,-11.03125 -3.29019,-7.85788 -6.65625,-20.17953 -6.65625,-37.8125 l 0,-0.125 0,-0.0937 c -0.21185,-2.8211 -1.32058,-5.38886 -3.59375,-6.46875 -0.28906,-0.13732 -0.56104,-0.1655 -0.84375,-0.25 0.6405,-0.81486 0.79675,-1.02252 1.5625,-2 6.24365,-7.96996 16.76284,-21.54904 33.71875,-44.09375 l 1.875,-2.5 -4.96875,-3.78125 z"
       id="path4763"
       inkscape:connector-curvature="0" />
    <path
       style="font-size:medium;font-style:normal;font-variant:normal;font-weight:normal;font-stretch:normal;text-indent:0;text-align:start;text-decoration:none;line-height:normal;letter-spacing:normal;word-spacing:normal;text-transform:none;direction:ltr;block-progression:tb;writing-mode:lr-tb;text-anchor:start;baseline-shift:baseline;color:#000000;fill:#000000;fill-opacity:1;stroke:none;stroke-width:6.25;marker:none;visibility:visible;display:inline;overflow:visible;enable-background:accumulate;font-family:Sans;-inkscape-font-specification:Sans"
       d="m 688.875,412.78125 -4.59375,4.25 2.125,2.28125 c 0,0 3.02231,3.20462 6.3125,11.0625 3.29019,7.85788 6.65625,20.14828 6.65625,37.78125 l 0,0.125 0,0.125 c 0.21185,2.8211 1.32058,5.35761 3.59375,6.4375 0.29523,0.14025 0.58641,0.19602 0.875,0.28125 -0.64024,0.81453 -0.79713,1.02301 -1.5625,2 -6.24365,7.96996 -16.79409,21.54904 -33.75,44.09375 l -1.875,2.5 5,3.75 1.875,-2.5 c 16.93304,-22.51429 27.43307,-36.05616 33.65625,-44 3.11159,-3.97192 5.14656,-6.53342 6.40625,-8.15625 0.62984,-0.81142 1.08062,-1.37459 1.40625,-1.84375 0.16281,-0.23458 0.28137,-0.40471 0.46875,-0.78125 0.0937,-0.18827 0.24598,-0.39575 0.34375,-1.03125 0.0489,-0.31775 0.10481,-0.80529 -0.125,-1.5 -0.22981,-0.69471 -0.95308,-1.53816 -1.6875,-1.875 -1.46885,-0.67367 -2.07318,-0.2106 -2.40625,-0.0937 -0.33307,0.11685 -0.48994,0.20482 -0.625,0.28125 -0.27012,0.15286 -0.41481,0.28105 -0.59375,0.40625 -0.35788,0.2504 -0.72645,0.50741 -1.15625,0.8125 -0.85959,0.61019 -1.95173,1.29759 -2.78125,1.65625 -0.69576,0.30083 -0.78025,0.24186 -0.65625,0.3125 -0.0465,-0.1582 -0.0981,-0.44384 -0.15625,-1.21875 -0.0298,-18.30678 -3.53621,-31.39773 -7.125,-39.96875 -3.60411,-8.60759 -7.5,-12.875 -7.5,-12.875 l -2.125,-2.3125 z"
       id="path4765"
       inkscape:connector-curvature="0" />
    <path
       style="font-size:medium;font-style:normal;font-variant:normal;font-weight:normal;font-stretch:normal;text-indent:0;text-align:start;text-decoration:none;line-height:normal;letter-spacing:normal;word-spacing:normal;text-transform:none;direction:ltr;block-progression:tb;writing-mode:lr-tb;text-anchor:start;baseline-shift:baseline;color:#000000;fill:#000000;fill-opacity:1;stroke:none;stroke-width:6.25;marker:none;visibility:visible;display:inline;overflow:visible;enable-background:accumulate;font-family:Sans;-inkscape-font-specification:Sans"
       d="m 775.03125,849.25 c -5.48149,28.31722 -10.15259,51.73653 -13.1875,69.34375 -1.51746,8.80361 -2.63241,16.14498 -3.21875,21.96875 -0.58634,5.82377 -0.75601,10.00128 0.0313,13.21875 0.39361,1.60874 1.09465,3.36664 3,4.3125 1.90535,0.94586 4.005,0.29179 5.4375,-0.59375 2.86501,-1.77108 5.44512,-4.97399 9.0625,-10.125 5.53959,-7.88817 13.69656,-21.90372 23.46875,-39.34375 L 781,1015.8125 l 6.15625,1.0625 28.78125,-166.5 -6.15625,-1.0625 -6.96875,40.3125 c -14.51722,26.5302 -24.93668,44.40984 -31.78125,54.15625 -2.88758,4.1118 -5.06155,6.42468 -6.375,7.5625 -0.26039,-1.85245 -0.30583,-5.25629 0.1875,-10.15625 0.56009,-5.56303 1.65142,-12.8009 3.15625,-21.53125 3.00966,-17.46069 7.70204,-40.88102 13.1875,-69.21875 z"
       transform="translate(0,-435.82679)"
       id="path4767"
       inkscape:connector-curvature="0"
       sodipodi:nodetypes="csscsssccccccscsscc" />
    <path
       inkscape:connector-curvature="0"
       style="font-size:medium;font-style:normal;font-variant:normal;font-weight:normal;font-stretch:normal;text-indent:0;text-align:start;text-decoration:none;line-height:normal;letter-spacing:normal;word-spacing:normal;text-transform:none;direction:ltr;block-progression:tb;writing-mode:lr-tb;text-anchor:start;baseline-shift:baseline;color:#000000;fill:#000000;fill-opacity:1;stroke:none;stroke-width:6.25;marker:none;visibility:visible;display:inline;overflow:visible;enable-background:accumulate;font-family:Sans;-inkscape-font-specification:Sans"
       d="m 870.46428,407.31861 c -0.4041,0 -0.7865,0.045 -1.1562,0.094 -2.9586,0.3875 -6.2384,1.7831 -10.5938,3.1562 -8.7107,2.7463 -20.4496,5.3979 -31.3438,0.5938 l -2.5312,5.7187 c 13.1579,5.8025 26.6314,2.5311 35.75,-0.3437 3.2716,-1.0315 5.0425,-1.5667 6.8438,-2.0938 l -48.3126,104.1563 c -0.425,0.9174 -0.7467,1.7197 -0.9062,2.6563 -0.1595,0.9365 -0.17,2.2467 0.6875,3.4375 0.8575,1.1907 2.2595,1.6178 3.1875,1.6875 0.928,0.07 1.6571,-0.075 2.4375,-0.25 3.1217,-0.6987 7.0059,-2.4291 11.9063,-4.0625 9.8004,-3.267 22.5843,-5.9972 33.6562,0.5312 l 3.1562,-5.375 c -13.5119,-7.9673 -28.4402,-4.5409 -38.7812,-1.0937 -3.9805,1.3269 -6.4735,2.2634 -8.6875,3 l 48.0937,-103.7813 c 0.8095,-1.7462 1.6952,-3.229 0.6563,-5.5625 -0.5194,-1.1668 -1.7848,-2.0307 -2.75,-2.2813 -0.4826,-0.1253 -0.9084,-0.1833 -1.3125,-0.1875 z"
       id="path4769" />
    <path
       inkscape:connector-curvature="0"
       id="path4946"
       d="m 181.99673,415.60304 c -8.5517,-2.31378 -17.3799,2.91635 -24.8174,11.72392 -7.4375,8.80757 -13.898,21.61349 -17.9434,36.56522 -4.0454,14.95173 -4.9232,29.26813 -2.9413,40.62426 1.9819,11.35613 6.9686,20.32404 15.5203,22.63784 8.5517,2.3138 17.3799,-2.9164 24.8174,-11.72392 7.4375,-8.80757 13.89799,-21.61349 17.94339,-36.56522 4.0454,-14.95173 4.9232,-29.26812 2.9413,-40.62426 -1.9819,-11.35613 -6.9686,-20.32406 -15.52029,-22.63784 z m -1.6338,6.03821 c 5.06189,1.36956 9.21329,7.5145 10.98559,17.66973 1.7723,10.15522 1.0284,23.73029 -2.811,37.92044 -3.83929,14.19016 -10.04159,26.28839 -16.69259,34.16457 -6.651,7.87619 -13.3343,11.08969 -18.3962,9.72009 -5.0619,-1.3696 -9.2133,-7.51451 -10.9856,-17.66974 -1.7723,-10.15522 -1.0284,-23.73028 2.811,-37.92044 3.8393,-14.19015 10.0416,-26.28839 16.6926,-34.16457 6.651,-7.87618 13.3343,-11.08965 18.3962,-9.72008 z"
       style="font-size:medium;font-style:normal;font-variant:normal;font-weight:normal;font-stretch:normal;text-indent:0;text-align:start;text-decoration:none;line-height:normal;letter-spacing:normal;word-spacing:normal;text-transform:none;direction:ltr;block-progression:tb;writing-mode:lr-tb;text-anchor:start;baseline-shift:baseline;color:#000000;fill:#000000;fill-opacity:1;stroke:none;stroke-width:6.05700016;marker:none;visibility:visible;display:inline;overflow:visible;enable-background:accumulate;font-family:Sans;-inkscape-font-specification:Sans" />
    <path
       style="font-size:medium;font-style:normal;font-variant:normal;font-weight:normal;font-stretch:normal;text-indent:0;text-align:start;text-decoration:none;line-height:normal;letter-spacing:normal;word-spacing:normal;text-transform:none;direction:ltr;block-progression:tb;writing-mode:lr-tb;text-anchor:start;baseline-shift:baseline;color:#000000;fill:#000000;fill-opacity:1;stroke:none;stroke-width:6.25;marker:none;visibility:visible;display:inline;overflow:visible;enable-background:accumulate;font-family:Sans;-inkscape-font-specification:Sans"
       d="m 183.07444,622.95815 -53.25,53.21875 4.4062,4.4375 45,-45 -26.1562,97.62504 6.0312,1.625 29.1876,-108.90629 z"
       id="path4948"
       inkscape:connector-curvature="0"
       sodipodi:nodetypes="cccccccc" />
    <path
       sodipodi:nodetypes="cscc"
       inkscape:connector-curvature="0"
       id="path4950"
       d="m 192.61384,655.32897 c 0,0 13.6795,-30.17431 48.91259,-30.17431 35.2331,0 -61.13289,105.88518 -61.13289,105.88518 l 67.02109,10e-5"
       style="fill:none;stroke:#000000;stroke-width:6.25;stroke-linecap:square;stroke-linejoin:bevel;stroke-miterlimit:4;stroke-opacity:1;stroke-dasharray:none" />
    <path
       style="font-size:medium;font-style:normal;font-variant:normal;font-weight:normal;font-stretch:normal;text-indent:0;text-align:start;text-decoration:none;line-height:normal;letter-spacing:normal;word-spacing:normal;text-transform:none;direction:ltr;block-progression:tb;writing-mode:lr-tb;text-anchor:start;baseline-shift:baseline;color:#000000;fill:#000000;fill-opacity:1;stroke:none;stroke-width:6.25;marker:none;visibility:visible;display:inline;overflow:visible;enable-background:accumulate;font-family:Sans;-inkscape-font-specification:Sans"
       d="m 307.51193,620.27065 c -37.0173,0 -51.75,32 -51.75,32 l -1.2813,2.84375 5.6876,2.59375 1.2812,-2.84375 c 0,0 12.6136,-28.34375 46.0625,-28.34375 1.9819,0 3.0919,0.41927 3.625,0.8125 0.5331,0.39323 0.7846,0.77953 0.9375,1.875 0.3059,2.19094 -0.7564,6.78921 -3.3438,12.3125 -5.1745,11.04658 -15.6892,26.09644 -26.7187,40.375 l -1.9063,2.46875 0,0.21875 1.8126,2.53125 c 8.3995,11.82507 15.3143,23.22834 18,31.03125 1.3427,3.90146 1.4291,6.78239 0.9687,7.96879 -0.2302,0.5931 -0.443,0.87 -1.0313,1.1875 -0.588,0.3174 -1.6356,0.625 -3.2812,0.625 -33.4489,0 -46.0625,-28.34379 -46.0625,-28.34379 l -1.3125,-2.84375 -5.6875,2.5625 1.2813,2.84375 c 0,0 14.7639,32.03129 51.7812,32.03129 2.3568,0 4.4504,-0.4037 6.25,-1.375 1.7996,-0.9714 3.1964,-2.5771 3.9062,-4.4063 1.42,-3.6585 0.6586,-7.73491 -0.9062,-12.28124 -3.0313,-8.80719 -9.8413,-19.85071 -18.0312,-31.46875 10.8514,-14.11419 21.1156,-28.80556 26.5937,-40.5 2.8076,-5.99364 4.5245,-11.12912 3.875,-15.78125 -0.3247,-2.32606 -1.4675,-4.60938 -3.4375,-6.0625 -1.97,-1.45312 -4.474,-2.03125 -7.3125,-2.03125 z"
       id="path4952"
       inkscape:connector-curvature="0"
       sodipodi:nodetypes="sccccsscccccccscsccccsscscscss" />
    <path
       style="font-size:medium;font-style:normal;font-variant:normal;font-weight:normal;font-stretch:normal;text-indent:0;text-align:start;text-decoration:none;line-height:normal;letter-spacing:normal;word-spacing:normal;text-transform:none;direction:ltr;block-progression:tb;writing-mode:lr-tb;text-anchor:start;baseline-shift:baseline;color:#000000;fill:#000000;fill-opacity:1;stroke:none;stroke-width:6.25;marker:none;visibility:visible;display:inline;overflow:visible;enable-background:accumulate;font-family:Sans;-inkscape-font-specification:Sans"
       d="m 361.07443,620.8019 -0.8125,3.03125 c -9.9432,37.10864 -41.5937,68.46875 -41.5937,68.46875 l -5.4376,5.375 49.8126,0 -9.5313,35.56254 6.0313,1.625 29.9687,-111.90629 -6.0313,-1.625 -18.7812,70.09375 -36.625,0 c 9.5016,-10.53034 30.2039,-35.97144 38.25,-66 l 0.7812,-3 z"
       id="path4956"
       inkscape:connector-curvature="0"
       sodipodi:nodetypes="cccccccccccccc" />
    <path
       style="font-size:medium;font-style:normal;font-variant:normal;font-weight:normal;font-stretch:normal;text-indent:0;text-align:start;text-decoration:none;line-height:normal;letter-spacing:normal;word-spacing:normal;text-transform:none;direction:ltr;block-progression:tb;writing-mode:lr-tb;text-anchor:start;baseline-shift:baseline;color:#000000;fill:#000000;fill-opacity:1;stroke:none;stroke-width:6.25;marker:none;visibility:visible;display:inline;overflow:visible;enable-background:accumulate;font-family:Sans;-inkscape-font-specification:Sans"
       d="m 406.29323,622.02065 -16.4376,64.3125 4,0 c 16.7543,0 27.6499,2.86181 33.375,6.59375 2.8626,1.86597 4.4399,3.85658 5.1563,5.8125 0.7164,1.95592 0.6587,4.00656 -0.2187,6.34375 -1.7549,4.67439 -7.2249,10.25214 -15.9688,14.625 -8.7439,4.37289 -20.6165,7.61069 -34.6875,8.21879 l -3.125,0.125 0.25,6.25 3.125,-0.125 c 14.8671,-0.6425 27.5564,-4.0429 37.2187,-8.875 9.6624,-4.83219 16.4445,-11.05761 19.0626,-18.03129 1.309,-3.48684 1.4807,-7.21075 0.2187,-10.65625 -1.262,-3.4455 -3.8752,-6.48235 -7.5937,-8.90625 -6.8254,-4.44908 -17.6631,-7.05307 -32.8438,-7.46875 l 13.3438,-51.96875 37.7187,0 0,-6.25 z"
       id="path4960"
       inkscape:connector-curvature="0"
       sodipodi:nodetypes="ccssscsccccscssccccc" />
    <path
       style="font-size:medium;font-style:normal;font-variant:normal;font-weight:normal;font-stretch:normal;text-indent:0;text-align:start;text-decoration:none;line-height:normal;letter-spacing:normal;word-spacing:normal;text-transform:none;direction:ltr;block-progression:tb;writing-mode:lr-tb;text-anchor:start;baseline-shift:baseline;color:#000000;fill:#000000;fill-opacity:1;stroke:none;stroke-width:6.25;marker:none;visibility:visible;display:inline;overflow:visible;enable-background:accumulate;font-family:Sans;-inkscape-font-specification:Sans"
       d="m 505.57443,622.02065 0,6.25 51.1875,0 -59.9687,103.90629 5.4062,3.125 65.4062,-113.28129 z"
       id="path4962"
       inkscape:connector-curvature="0"
       sodipodi:nodetypes="ccccccc" />
    <path
       style="font-size:medium;font-style:normal;font-variant:normal;font-weight:normal;font-stretch:normal;text-indent:0;text-align:start;text-decoration:none;line-height:normal;letter-spacing:normal;word-spacing:normal;text-transform:none;direction:ltr;block-progression:tb;writing-mode:lr-tb;text-anchor:start;baseline-shift:baseline;color:#000000;fill:#000000;fill-opacity:1;stroke:none;stroke-width:6.25;marker:none;visibility:visible;display:inline;overflow:visible;enable-background:accumulate;font-family:Sans;-inkscape-font-specification:Sans"
       d="m 635.57443,622.4894 c -7.4869,-0.17376 -15.8035,0.43987 -24.0312,1.40625 -21.9408,2.57702 -43.0938,7.71875 -43.0938,7.71875 l -5.1562,1.25 3.625,3.90625 c 0,0 22.1952,24.0198 36.8124,47.71875 0.8292,1.34427 1.5105,2.66081 2.2813,4 -11.4834,10.721 -21.3723,20.55558 -25.0937,29.09375 -0.939,2.1542 -1.4799,4.3099 -1.3438,6.49999 0.1361,2.1901 1.1178,4.3774 2.8125,5.9375 3.3895,3.1203 8.6515,4.1563 16.4375,4.1563 7.875,0 13.7552,-1.5699 17.8125,-4.8438 4.0573,-3.2739 5.8339,-8.18121 5.8437,-13.34374 0.015,-7.92836 -3.4934,-16.96761 -8.5312,-26.28125 10.6702,-9.81062 22.3345,-20.01298 31.5312,-29.1875 5.0744,-5.06215 9.3668,-9.77604 12.3438,-14.09375 2.977,-4.31771 5.0374,-8.37248 3.9062,-12.59375 -0.9588,-3.57851 -3.7269,-6.196 -7.0624,-7.84375 -3.3356,-1.64775 -7.3634,-2.52926 -11.9063,-3.03125 -2.2715,-0.25099 -4.6919,-0.41083 -7.1875,-0.46875 z m -0.125,6.25 c 2.3411,0.0516 4.5729,0.21075 6.625,0.4375 4.1042,0.45351 7.5378,1.29839 9.8438,2.4375 2.3059,1.13911 3.3746,2.3263 3.7812,3.84375 0.2344,0.87469 -0.4525,3.66604 -3.0312,7.40625 -2.5788,3.74021 -6.6524,8.32054 -11.5938,13.25 -8.6676,8.64664 -19.8394,18.46343 -30.3125,28.0625 -0.589,-0.99212 -1.1059,-1.97512 -1.7187,-2.96875 -13.0795,-21.20573 -29.2803,-39.37671 -34.0313,-44.625 5.8917,-1.34659 19.9393,-4.43555 37.25,-6.46875 8.0423,-0.9446 16.1642,-1.52969 23.1875,-1.375 z m -26.2812,65.40625 c 4.2938,8.37706 7.0731,16.19603 7.0624,21.8125 -0.01,3.87359 -1.0249,6.50285 -3.5,8.49999 -2.475,1.9972 -6.873,3.4688 -13.9062,3.4688 -7.1222,0 -10.9756,-1.3844 -12.1875,-2.5 -0.6059,-0.5579 -0.7944,-0.9247 -0.8437,-1.7188 -0.049,-0.7941 0.1917,-2.05737 0.875,-3.62499 2.6149,-5.99959 11.6667,-15.72577 22.5,-25.9375 z"
       id="path4964"
       inkscape:connector-curvature="0" />
    <path
       style="font-size:medium;font-style:normal;font-variant:normal;font-weight:normal;font-stretch:normal;text-indent:0;text-align:start;text-decoration:none;line-height:normal;letter-spacing:normal;word-spacing:normal;text-transform:none;direction:ltr;block-progression:tb;writing-mode:lr-tb;text-anchor:start;baseline-shift:baseline;color:#000000;fill:#000000;fill-opacity:1;stroke:none;stroke-width:6.25;marker:none;visibility:visible;display:inline;overflow:visible;enable-background:accumulate;font-family:Sans;-inkscape-font-specification:Sans"
       d="m 717.16823,622.1769 c -1.408,-0.0222 -2.8511,0.29341 -4.25,0.75 -5.596,1.82636 -12.1498,6.51198 -19.1563,12.625 -14.0129,12.22604 -29.1858,29.9874 -34.25,43.40625 -1.2661,3.35471 -1.9599,6.47492 -1.5,9.5 0.4599,3.02508 2.5195,5.87336 5.5625,7.15625 5.3814,2.26878 13.1179,1.09568 24.6562,-2.9375 -6.5654,10.73081 -14.1991,22.72303 -23.4374,36.62504 l -1.7188,2.625 5.2188,3.4375 1.7187,-2.5938 c 19.4837,-29.3192 32.751,-51.32462 41.2813,-67.56249 8.5302,-16.23787 12.3987,-26.49395 12.875,-33.375 0.2381,-3.44053 -0.4763,-6.61117 -2.9688,-8.375 -1.2462,-0.88191 -2.6233,-1.25901 -4.0312,-1.28125 z m -0.25,6.28125 c 0.4414,-0.006 0.6446,0.0855 0.6562,0.0937 0.023,0.0165 0.5398,0.46285 0.375,2.84375 -0.3296,4.7618 -3.816,14.97067 -12.1875,30.90625 -3.2895,6.26176 -7.5798,13.72527 -12.4375,21.90625 l -2.8125,1.0625 c -13.7443,5.2525 -21.8363,5.71674 -24.5,4.59375 -1.3318,-0.5615 -1.6107,-1.01647 -1.8125,-2.34375 -0.2018,-1.32728 0.1079,-3.59706 1.1562,-6.375 4.1936,-11.11175 19.1418,-29.22414 32.5313,-40.90625 6.6947,-5.84105 13.1696,-10.13504 16.9687,-11.375 0.9498,-0.30999 1.6211,-0.40031 2.0626,-0.40625 z"
       id="path4966"
       inkscape:connector-curvature="0" />
    <path
       style="font-size:medium;font-style:normal;font-variant:normal;font-weight:normal;font-stretch:normal;text-indent:0;text-align:start;text-decoration:none;line-height:normal;letter-spacing:normal;word-spacing:normal;text-transform:none;direction:ltr;block-progression:tb;writing-mode:lr-tb;text-anchor:start;baseline-shift:baseline;color:#000000;fill:#000000;fill-opacity:1;stroke:none;stroke-width:6.25;marker:none;visibility:visible;display:inline;overflow:visible;enable-background:accumulate;font-family:Sans;-inkscape-font-specification:Sans"
       d="m 490.82443,620.7394 -1.75,2.625 c -19.4837,29.31921 -32.7197,51.32463 -41.25,67.5625 -8.5303,16.23787 -12.43,26.49395 -12.9062,33.37504 -0.2382,3.4405 0.5075,6.6111 3,8.375 2.4924,1.7638 5.4832,1.4131 8.2812,0.5 5.5959,-1.8264 12.1185,-6.4808 19.125,-12.59379 14.0129,-12.22604 29.1858,-29.9874 34.25,-43.40625 1.2661,-3.35471 1.9599,-6.50617 1.5,-9.53125 -0.4599,-3.02508 -2.5195,-5.87336 -5.5625,-7.15625 -5.3807,-2.26849 -13.1204,-1.09437 -24.6563,2.9375 6.5632,-10.72637 14.2045,-22.73103 23.4376,-36.625 l 1.7187,-2.59375 -5.1875,-3.46875 z m -0.75,45.03125 c 1.3492,0.0339 2.3653,0.21925 3.0312,0.5 1.3319,0.5615 1.6107,0.98522 1.8126,2.3125 0.2018,1.32728 -0.1392,3.59706 -1.1876,6.375 -4.1935,11.11175 -19.1105,29.22414 -32.5,40.90625 -6.6947,5.84105 -13.1695,10.13504 -16.9687,11.37504 -1.8996,0.6199 -2.7267,0.3602 -2.75,0.3437 -0.023,-0.016 -0.5085,-0.4628 -0.3437,-2.8437 0.3295,-4.76184 3.816,-14.97071 12.1874,-30.90629 3.2882,-6.2592 7.5512,-13.72943 12.4063,-21.90625 l 2.8125,-1.09375 c 10.3082,-3.93938 17.4525,-5.16415 21.5,-5.0625 z"
       id="path4968"
       inkscape:connector-curvature="0" />
    <path
       style="font-size:medium;font-style:normal;font-variant:normal;font-weight:normal;font-stretch:normal;text-indent:0;text-align:start;text-decoration:none;line-height:normal;letter-spacing:normal;word-spacing:normal;text-transform:none;direction:ltr;block-progression:tb;writing-mode:lr-tb;text-anchor:start;baseline-shift:baseline;color:#000000;fill:#000000;fill-opacity:1;stroke:none;stroke-width:6.05700016;marker:none;visibility:visible;display:inline;overflow:visible;enable-background:accumulate;font-family:Sans;-inkscape-font-specification:Sans"
       d="m 111.26854,621.3131 c -8.5516,-2.31378 -17.379801,2.91635 -24.817301,11.72392 -7.4375,8.80757 -13.898,21.61349 -17.9434,36.56522 -4.0454,14.95173 -4.9232,29.26813 -2.9413,40.62426 1.9819,11.35613 6.9686,20.32404 15.5203,22.63784 8.5517,2.3138 17.3799,-2.9164 24.817401,-11.72392 7.4375,-8.80757 13.898,-21.61349 17.9434,-36.56522 4.0454,-14.95173 4.9232,-29.26812 2.9413,-40.62426 -1.9819,-11.35613 -6.9686,-20.32406 -15.5203,-22.63784 z m -1.6337,6.03821 c 5.0619,1.36956 9.2132,7.5145 10.9856,17.66973 1.7723,10.15522 1.0284,23.73029 -2.811,37.92044 -3.8393,14.19016 -10.0416,26.28839 -16.6926,34.16457 -6.651001,7.87619 -13.334301,11.08969 -18.396201,9.72009 -5.0619,-1.3696 -9.2132,-7.51451 -10.9856,-17.66974 -1.7723,-10.15522 -1.0284,-23.73028 2.811,-37.92044 3.8393,-14.19015 10.0416,-26.28839 16.6926,-34.16457 6.651,-7.87618 13.334301,-11.08965 18.396201,-9.72008 z"
       id="path4970"
       inkscape:connector-curvature="0" />
    <path
       style="font-size:medium;font-style:normal;font-variant:normal;font-weight:normal;font-stretch:normal;text-indent:0;text-align:start;text-decoration:none;line-height:normal;letter-spacing:normal;word-spacing:normal;text-transform:none;direction:ltr;block-progression:tb;writing-mode:lr-tb;text-anchor:start;baseline-shift:baseline;color:#000000;fill:#000000;fill-opacity:1;stroke:none;stroke-width:6.25;marker:none;visibility:visible;display:inline;overflow:visible;enable-background:accumulate;font-family:Sans;-inkscape-font-specification:Sans"
       d="m 806.32443,621.14565 c -3.7841,0.0661 -8.0039,1.34396 -12.6562,3.25 -12.4064,5.08277 -27.5472,15.41786 -37.875,27.34375 -5.164,5.96294 -9.1453,12.32145 -10.75,18.875 -1.6048,6.55355 -0.5741,13.45862 4.1874,19.09375 l 4.7813,-4.03125 c -3.5114,-4.15569 -4.1543,-8.46573 -2.9063,-13.5625 1.2481,-5.09677 4.6575,-10.79767 9.4063,-16.28125 9.4976,-10.96716 24.2346,-21.04091 35.5,-25.65625 5.6327,-2.30767 10.4879,-3.0649 12.5313,-2.59375 1.0216,0.23558 1.2213,0.44871 1.4374,0.90625 0.2162,0.45754 0.4267,1.6083 -0.094,3.6875 -1.0409,4.15839 -4.8953,11.40159 -12.6563,21.5 -7.7609,10.09841 -19.3862,23.16753 -35.875,39.65625 l -0.9374,0.90625 0,23.34375 6.25,0 0,-20.78125 c 16.0695,-16.12844 27.6888,-29.10804 35.5312,-39.3125 8.0107,-10.42344 12.2874,-17.93806 13.75,-23.78125 0.7313,-2.9216 0.7743,-5.57494 -0.3125,-7.875 -1.0868,-2.30006 -3.3597,-3.80702 -5.6875,-4.34375 -1.1639,-0.26837 -2.3636,-0.36579 -3.625,-0.34375 z"
       id="path5026"
       inkscape:connector-curvature="0"
       sodipodi:nodetypes="cssccccsscccscccccsssscc" />
    <path
       style="font-size:medium;font-style:normal;font-variant:normal;font-weight:normal;font-stretch:normal;text-indent:0;text-align:start;text-decoration:none;line-height:normal;letter-spacing:normal;word-spacing:normal;text-transform:none;direction:ltr;block-progression:tb;writing-mode:lr-tb;text-anchor:start;baseline-shift:baseline;color:#000000;fill:#000000;fill-opacity:1;fill-rule:nonzero;stroke:none;stroke-width:15.10574055;marker:none;visibility:visible;display:inline;overflow:visible;enable-background:accumulate;font-family:Sans;-inkscape-font-specification:Sans"
       d="m 763.46083,723.73664 c -2.843,0 -5.2107,2.3677 -5.2107,5.2107 0,2.843 2.3677,5.2236 5.2107,5.2236 2.843,0 5.2106,-2.3806 5.2106,-5.2236 0,-2.843 -2.3676,-5.2107 -5.2106,-5.2107 z m 0,4.1763 c 0.5347,0 1.0343,0.4997 1.0343,1.0344 0,0.5347 -0.4996,1.0344 -1.0343,1.0344 -0.5348,0 -1.0344,-0.4997 -1.0344,-1.0344 0,-0.5347 0.4996,-1.0344 1.0344,-1.0344 z"
       id="path5028"
       inkscape:connector-curvature="0" />
    <path
       style="font-size:medium;font-style:normal;font-variant:normal;font-weight:normal;font-stretch:normal;text-indent:0;text-align:start;text-decoration:none;line-height:normal;letter-spacing:normal;word-spacing:normal;text-transform:none;direction:ltr;block-progression:tb;writing-mode:lr-tb;text-anchor:start;baseline-shift:baseline;color:#000000;fill:#000000;fill-opacity:1;stroke:none;stroke-width:6.25;marker:none;visibility:visible;display:inline;overflow:visible;enable-background:accumulate;font-family:Sans;-inkscape-font-specification:Sans"
       d="m 820.41823,622.08315 0,95.5 6.25,0 0,-95.5 z"
       id="path5030"
       inkscape:connector-curvature="0"
       sodipodi:nodetypes="ccccc" />
    <path
       style="font-size:medium;font-style:normal;font-variant:normal;font-weight:normal;font-stretch:normal;text-indent:0;text-align:start;text-decoration:none;line-height:normal;letter-spacing:normal;word-spacing:normal;text-transform:none;direction:ltr;block-progression:tb;writing-mode:lr-tb;text-anchor:start;baseline-shift:baseline;color:#000000;fill:#000000;fill-opacity:1;fill-rule:nonzero;stroke:none;stroke-width:15.10574055;marker:none;visibility:visible;display:inline;overflow:visible;enable-background:accumulate;font-family:Sans;-inkscape-font-specification:Sans"
       d="m 823.46083,723.73664 c -2.843,0 -5.2107,2.3677 -5.2107,5.2107 0,2.843 2.3677,5.2236 5.2107,5.2236 2.843,0 5.2106,-2.3806 5.2106,-5.2236 0,-2.843 -2.3676,-5.2107 -5.2106,-5.2107 z m 0,4.1763 c 0.5347,0 1.0343,0.4997 1.0343,1.0344 0,0.5347 -0.4996,1.0344 -1.0343,1.0344 -0.5348,0 -1.0344,-0.4997 -1.0344,-1.0344 0,-0.5347 0.4996,-1.0344 1.0344,-1.0344 z"
       id="path5032"
       inkscape:connector-curvature="0" />
    <path
       style="font-size:medium;font-style:normal;font-variant:normal;font-weight:normal;font-stretch:normal;text-indent:0;text-align:start;text-decoration:none;line-height:normal;letter-spacing:normal;word-spacing:normal;text-transform:none;direction:ltr;block-progression:tb;writing-mode:lr-tb;text-anchor:start;baseline-shift:baseline;color:#000000;fill:#000000;fill-opacity:1;stroke:none;stroke-width:6.25;marker:none;visibility:visible;display:inline;overflow:visible;enable-background:accumulate;font-family:Sans;-inkscape-font-specification:Sans"
       d="m 870.85563,623.0519 -4.7812,4.0625 c 2.6965,3.19129 3.642,6.44253 3.4375,10.125 -0.2045,3.68247 -1.6899,7.80197 -4.25,12.03125 -5.1203,8.45857 -14.4062,17.19715 -24.0937,23.875 l 3.5312,5.125 c 10.2259,-7.04896 20.058,-16.12011 25.9062,-25.78125 2.9242,-4.83057 4.8746,-9.83224 5.1563,-14.90625 0.2817,-5.07401 -1.2497,-10.20384 -4.9063,-14.53125 z"
       id="path5034"
       inkscape:connector-curvature="0" />
    <path
       style="font-size:medium;font-style:normal;font-variant:normal;font-weight:normal;font-stretch:normal;text-indent:0;text-align:start;text-decoration:none;line-height:normal;letter-spacing:normal;word-spacing:normal;text-transform:none;direction:ltr;block-progression:tb;writing-mode:lr-tb;text-anchor:start;baseline-shift:baseline;color:#000000;fill:#000000;fill-opacity:1;stroke:none;stroke-width:6.25;marker:none;visibility:visible;display:inline;overflow:visible;enable-background:accumulate;font-family:Sans;-inkscape-font-specification:Sans"
       d="m 925.19943,619.27065 -32.8125,18.9375 3.125,5.40625 32.8125,-18.9375 -3.125,-5.40625 z"
       id="path5036"
       inkscape:connector-curvature="0" />
    <path
       inkscape:connector-curvature="0"
       style="font-size:medium;font-style:normal;font-variant:normal;font-weight:normal;font-stretch:normal;text-indent:0;text-align:start;text-decoration:none;line-height:normal;letter-spacing:normal;word-spacing:normal;text-transform:none;direction:ltr;block-progression:tb;writing-mode:lr-tb;text-anchor:start;baseline-shift:baseline;color:#000000;fill:#000000;fill-opacity:1;stroke:none;stroke-width:6.25;marker:none;visibility:visible;display:inline;overflow:visible;enable-background:accumulate;font-family:Sans;-inkscape-font-specification:Sans"
       d="m 403.57392,-41.419021 c -14.5966,3.69864 -25.9471,15.0926 -33.875,28.875 -7.9279,13.7824005 -12.5543,30.06655 -13.5625,44.5 -1.0082,14.43345 1.2876,27.32848 9.3438,33.78125 4.028,3.22639 9.5437,4.38123 15.5937,2.9375 1.7936,-0.42802 3.6416,-1.08514 5.5625,-1.9375 l -0.5937,0.5 c 2.6965,3.19129 3.642,6.44253 3.4375,10.125 -0.2046,3.68247 -1.69,7.80197 -4.25,12.03125 -5.1204,8.45857 -14.4063,17.197151 -24.0938,23.875001 l 3.5313,5.125 c 10.2258,-7.04896 20.058,-16.12011 25.9062,-25.781251 2.9242,-4.83057 4.8745,-9.83224 5.1563,-14.90625 0.2609,-4.70102 -1.0564,-9.44819 -4.1563,-13.5625 3.1389,-1.87936 6.4766,-4.26853 10,-7.25 l -4.0312,-4.78125 c -7.2563,6.14011 -13.3193,9.36668 -17.9375,10.46875 -4.6183,1.10207 -7.6745,0.31921 -10.2188,-1.71875 -5.0887,-4.07593 -7.9373,-15.05011 -7,-28.46875 0.9373,-13.41864 5.366,-28.9757195 12.75,-41.8124995 7.384,-12.8367805 17.6109,-22.8061405 29.9688,-25.9375005 l -1.5313,-6.0625 z"
       id="path5062" />
    <path
       inkscape:connector-curvature="0"
       style="font-size:medium;font-style:normal;font-variant:normal;font-weight:normal;font-stretch:normal;text-indent:0;text-align:start;text-decoration:none;line-height:normal;letter-spacing:normal;word-spacing:normal;text-transform:none;direction:ltr;block-progression:tb;writing-mode:lr-tb;text-anchor:start;baseline-shift:baseline;color:#000000;fill:#000000;fill-opacity:1;stroke:none;stroke-width:6.05700016;marker:none;visibility:visible;display:inline;overflow:visible;enable-background:accumulate;font-family:Sans;-inkscape-font-specification:Sans"
       d="m 310.66763,-47.838661 -7.125,26.625 c -0.1364,-1.13157 -0.2802,-2.26373 -0.4687,-3.34375 -1.9819,-11.35613 -6.9795,-20.31122 -15.5313,-22.625 -8.5516,-2.31378 -17.375,2.91118 -24.8124,11.71875 -7.4376,8.80757 -13.8921,21.61077 -17.9376,36.5625005 -4.0453,14.9517295 -4.9506,29.2688695 -2.9687,40.6249995 1.9819,11.35613 6.9796,20.34248 15.5313,22.65625 8.5516,2.31378 17.375,-2.94243 24.8124,-11.75 0.8047,-0.95291 1.5951,-1.95583 2.375,-3 l -3.9374,14.75 50.4374,0 0,-6.25 -42.2812,0 10.25,-38.25 c 0.2615,-0.85606 0.5046,-1.72215 0.75,-2.59375 l 23.1562,0 0,-6.25 -21.5312,0 14.0938,-52.625 30.4374,0 0,-6.25 -35.25,0 z m -27.7812,6.40625 c 1.0522,-0.066 2.0821,0.0245 3.0312,0.28125 5.0619,1.36956 9.1964,7.53227 10.9688,17.6875 1.5508,8.88582 1.1903,20.3815105 -1.5,32.6250005 -0.027,0.12527 -0.066,0.24958 -0.094,0.375 l -2.375,8.8437495 c -3.8655,12.47935 -9.5067,23.0845 -15.5312,30.21875 -6.651,7.87618 -13.3445,11.08831 -18.4062,9.71875 -5.0619,-1.36957 -9.1965,-7.50102 -10.9688,-17.65625 -1.7723,-10.15522 -1.0269,-23.71609 2.8125,-37.9062495 3.8393,-14.1901505 10.0365,-26.3113205 16.6875,-34.1875005 5.4039,-6.3994 10.8154,-9.7141 15.375,-10 z"
       id="path5067" />
    <path
       inkscape:connector-curvature="0"
       style="font-size:medium;font-style:normal;font-variant:normal;font-weight:normal;font-stretch:normal;text-indent:0;text-align:start;text-decoration:none;line-height:normal;letter-spacing:normal;word-spacing:normal;text-transform:none;direction:ltr;block-progression:tb;writing-mode:lr-tb;text-anchor:start;baseline-shift:baseline;color:#000000;fill:#000000;fill-opacity:1;stroke:none;stroke-width:6.25;marker:none;visibility:visible;display:inline;overflow:visible;enable-background:accumulate;font-family:Sans;-inkscape-font-specification:Sans"
       d="m 180.66763,-47.838661 -23.6874,88.40625 0,-85.25 -4.9376,0 -62.062398,107.5 5.4062,3.125 20.156198,-34.90625 35.1876,0 0,32.875 -0.125,0.46875 0.125,0 6.25,0 44.0624,0 0,-6.25 -42.2812,0 10.9375,-40.84375 23.2187,0 0,-6.25 -21.5312,0 14.0938,-52.625 30.4374,0 0,-6.25 -35.25,0 z m -29.9374,17.9375 0,54.6875 -31.5938,0 31.5938,-54.6875 z"
       id="path5072" />
  </g>
</svg>
