<?xml version="1.0" encoding="UTF-8" standalone="no"?>
<!-- Created with Inkscape (http://www.inkscape.org/) -->

<svg
   xmlns:dc="http://purl.org/dc/elements/1.1/"
   xmlns:cc="http://creativecommons.org/ns#"
   xmlns:rdf="http://www.w3.org/1999/02/22-rdf-syntax-ns#"
   xmlns:svg="http://www.w3.org/2000/svg"
   xmlns="http://www.w3.org/2000/svg"
   xmlns:sodipodi="http://sodipodi.sourceforge.net/DTD/sodipodi-0.dtd"
   xmlns:inkscape="http://www.inkscape.org/namespaces/inkscape"
   width="744.09448819"
   height="1052.3622047"
   id="svg4079"
   version="1.1"
   inkscape:version="0.48.1 r9760"
   sodipodi:docname="New document 6">
  <defs
     id="defs4081" />
  <sodipodi:namedview
     id="base"
     pagecolor="#ffffff"
     bordercolor="#666666"
     borderopacity="1.0"
     inkscape:pageopacity="0.0"
     inkscape:pageshadow="2"
     inkscape:zoom="0.35"
     inkscape:cx="375"
     inkscape:cy="520"
     inkscape:document-units="px"
     inkscape:current-layer="layer1"
     showgrid="false"
     inkscape:window-width="554"
     inkscape:window-height="464"
     inkscape:window-x="1"
     inkscape:window-y="60"
     inkscape:window-maximized="0" />
  <metadata
     id="metadata4084">
    <rdf:RDF>
      <cc:Work
         rdf:about="">
        <dc:format>image/svg+xml</dc:format>
        <dc:type
           rdf:resource="http://purl.org/dc/dcmitype/StillImage" />
        <dc:title></dc:title>
      </cc:Work>
    </rdf:RDF>
  </metadata>
  <g
     inkscape:label="Layer 1"
     inkscape:groupmode="layer"
     id="layer1">
    <path
       inkscape:connector-curvature="0"
       style="font-size:medium;font-style:normal;font-variant:normal;font-weight:normal;font-stretch:normal;text-indent:0;text-align:start;text-decoration:none;line-height:normal;letter-spacing:normal;word-spacing:normal;text-transform:none;direction:ltr;block-progression:tb;writing-mode:lr-tb;text-anchor:start;baseline-shift:baseline;color:#000000;fill:#000000;fill-opacity:1;stroke:none;stroke-width:6.25;marker:none;visibility:visible;display:inline;overflow:visible;enable-background:accumulate;font-family:Sans;-inkscape-font-specification:Sans"
       d="m 284.95733,475.54045 c -2.3568,0 -4.4504,0.40362 -6.25,1.375 -1.7996,0.97138 -3.1965,2.57702 -3.9062,4.40625 -1.4201,3.65846 -0.6586,7.73492 0.9062,12.28125 3.0313,8.80719 9.8414,19.85071 18.0312,31.46875 -10.8514,14.11419 -21.1156,28.80556 -26.5937,40.50001 -2.8076,5.99364 -4.5245,11.12912 -3.875,15.78125 0.3247,2.32606 1.4675,4.60938 3.4375,6.0625 1.97,1.45312 4.474,2.03125 7.3125,2.03125 23.1827,0 37.6303,-12.55626 45.1875,-21.9375 -0.5536,7.19695 -0.3675,12.8786 1.9062,17.09375 1.219,2.25948 3.4673,4.1179 6.125,4.46875 2.658,0.35085 5.3383,-0.50756 8.2188,-2.09375 5.7613,-3.17238 12.7995,-9.60472 22.2188,-20.25 l 2.0624,-2.34375 -4.6562,-4.15625 -2.0938,2.34375 c -9.206,10.4045 -16.126,16.49457 -20.5624,18.9375 -2.2183,1.22147 -3.7102,1.43154 -4.375,1.34375 -0.6651,-0.0878 -0.8887,-0.20152 -1.4376,-1.21875 -1.0973,-2.03447 -1.7243,-7.65284 -1.0624,-15.15625 0.6616,-7.50341 2.3281,-16.95522 4.5624,-27.43751 0.4715,-2.2118 0.9825,-4.48151 1.5,-6.78125 l 15.9063,0 0,-6.25 -14.4687,0 c 0.8248,-3.52838 1.6716,-7.1152 2.5624,-10.75 l -6.4062,0 c -0.8824,3.63333 -1.7399,7.2178 -2.5625,10.75 l -12.8437,0 0,6.25 11.4062,0 c -0.4128,1.84504 -0.8057,3.67775 -1.1875,5.46875 -1.1067,5.192 -2.0826,10.13467 -2.875,14.78125 l -1.0625,2.34376 c 0,0 -12.6136,28.34375 -46.0625,28.34375 -1.9819,0 -3.0919,-0.41927 -3.625,-0.8125 -0.5331,-0.39323 -0.7846,-0.77953 -0.9375,-1.875 -0.3059,-2.19094 0.7563,-6.78921 3.3438,-12.3125 5.1745,-11.04658 15.6892,-26.09645 26.7187,-40.37501 l 1.9063,-2.46875 0,-0.21875 -1.8126,-2.53125 c -8.3994,-11.82507 -15.3143,-23.22834 -18,-31.03125 -1.3426,-3.90146 -1.4291,-6.78242 -0.9687,-7.96875 0.2302,-0.59317 0.4429,-0.87007 1.0313,-1.1875 0.5879,-0.31743 1.6356,-0.625 3.2812,-0.625 33.4489,0 46.0625,28.34375 46.0625,28.34375 l 1.3125,2.84375 5.6875,-2.5625 -1.2813,-2.84375 c 0,0 -14.7639,-32.03125 -51.7812,-32.03125 z"
       id="path4038" />
    <path
       style="font-size:medium;font-style:normal;font-variant:normal;font-weight:normal;font-stretch:normal;text-indent:0;text-align:start;text-decoration:none;line-height:normal;letter-spacing:normal;word-spacing:normal;text-transform:none;direction:ltr;block-progression:tb;writing-mode:lr-tb;text-anchor:start;baseline-shift:baseline;color:#000000;fill:#000000;fill-opacity:1;stroke:none;stroke-width:6.25;marker:none;visibility:visible;display:inline;overflow:visible;enable-background:accumulate;font-family:Sans;-inkscape-font-specification:Sans"
       d="m 458.58233,454.4467 c -4.2718,0.10423 -9.0299,0.85742 -14.3438,2.28125 -42.4602,11.37719 -61.758,49.52709 -70.2812,84.125 -8.5232,34.59792 -6.5938,66.31251 -6.5938,66.31251 l 0.1876,3.125 6.2187,-0.375 -0.1875,-3.125 c 0,0 -1.7903,-30.9117 6.4688,-64.43751 8.259,-33.5258 26.2657,-68.99722 65.8124,-79.59375 9.8742,-2.64577 17.0401,-2.55964 22.0313,-0.8125 4.9912,1.74714 8.058,5.04532 10.0937,9.96875 4.0716,9.84687 2.8137,26.32698 -1.25,43.625 -7.5754,32.24642 -23.4822,65.99175 -25.6874,70.59376 l -10.5313,0 15.3437,-99.84376 0.9376,-0.1875 -1.25,-6.125 -3.0626,0.625 c -23.8685,4.89238 -40.3145,21.06047 -50.3437,39.5 -10.0292,18.43953 -13.8806,39.17119 -12.8125,54.37501 0.534,7.60191 2.187,13.89208 5.6875,18.0625 1.7503,2.08521 4.117,3.59543 6.8437,3.96875 2.7268,0.37332 5.573,-0.36725 8.3438,-2 5.5417,-3.2655 11.2493,-9.9573 17.7188,-21.0625 3.7666,-6.46578 7.7978,-14.6541 12,-24.37501 l -6.6876,43.31251 21.75,0 0.875,-1.78125 c 0,0 18.5944,-37.97763 26.9688,-73.62501 4.1872,-17.82369 6.0541,-35.0944 0.9375,-47.46875 -2.5583,-6.18717 -7.1543,-11.13808 -13.8125,-13.46875 -3.3291,-1.16534 -7.1032,-1.69798 -11.375,-1.59375 z m -9.3125,33.5 -6,35.78125 c -7.5925,20.77207 -14.5868,35.98302 -20.75,46.56251 -6.1935,10.63153 -11.6364,16.55424 -15.4687,18.8125 -1.9162,1.12913 -3.3171,1.35932 -4.3438,1.21875 -1.0267,-0.14057 -1.9106,-0.62636 -2.9062,-1.8125 -1.9913,-2.37228 -3.7681,-7.60798 -4.25,-14.46875 -0.964,-13.72155 2.6915,-33.6507 12.0937,-50.93751 8.7324,-16.05516 22.3036,-29.6999 41.625,-35.15625 z"
       id="path4061"
       inkscape:connector-curvature="0"
       sodipodi:nodetypes="sssccccssscsccccccsscsscccccssssccsssccsc" />
  </g>
</svg>
