<?xml version="1.0" encoding="UTF-8" standalone="no"?>
<!-- Created with Inkscape (http://www.inkscape.org/) -->

<svg
   xmlns:dc="http://purl.org/dc/elements/1.1/"
   xmlns:cc="http://creativecommons.org/ns#"
   xmlns:rdf="http://www.w3.org/1999/02/22-rdf-syntax-ns#"
   xmlns:svg="http://www.w3.org/2000/svg"
   xmlns="http://www.w3.org/2000/svg"
   xmlns:sodipodi="http://sodipodi.sourceforge.net/DTD/sodipodi-0.dtd"
   xmlns:inkscape="http://www.inkscape.org/namespaces/inkscape"
   width="744.09448819"
   height="1052.3622047"
   id="svg3977"
   version="1.1"
   inkscape:version="0.48.1 r9760"
   sodipodi:docname="New document 3">
  <defs
     id="defs3979" />
  <sodipodi:namedview
     id="base"
     pagecolor="#ffffff"
     bordercolor="#666666"
     borderopacity="1.0"
     inkscape:pageopacity="0.0"
     inkscape:pageshadow="2"
     inkscape:zoom="0.35"
     inkscape:cx="375"
     inkscape:cy="520"
     inkscape:document-units="px"
     inkscape:current-layer="layer1"
     showgrid="false"
     inkscape:window-width="554"
     inkscape:window-height="464"
     inkscape:window-x="1"
     inkscape:window-y="60"
     inkscape:window-maximized="0" />
  <metadata
     id="metadata3982">
    <rdf:RDF>
      <cc:Work
         rdf:about="">
        <dc:format>image/svg+xml</dc:format>
        <dc:type
           rdf:resource="http://purl.org/dc/dcmitype/StillImage" />
        <dc:title></dc:title>
      </cc:Work>
    </rdf:RDF>
  </metadata>
  <g
     inkscape:label="Layer 1"
     inkscape:groupmode="layer"
     id="layer1">
    <path
       inkscape:connector-curvature="0"
       style="font-size:medium;font-style:normal;font-variant:normal;font-weight:normal;font-stretch:normal;text-indent:0;text-align:start;text-decoration:none;line-height:normal;letter-spacing:normal;word-spacing:normal;text-transform:none;direction:ltr;block-progression:tb;writing-mode:lr-tb;text-anchor:start;baseline-shift:baseline;color:#000000;fill:#000000;fill-opacity:1;stroke:none;stroke-width:6.25;marker:none;visibility:visible;display:inline;overflow:visible;enable-background:accumulate;font-family:Sans;-inkscape-font-specification:Sans"
       d="m 323.22783,437.67468 c -6.94014,0 -12.65625,5.71611 -12.65625,12.65625 0,5.07045 3.05812,9.45909 7.40625,11.46875 -6.31551,30.15732 -13.44366,56.50559 -17.34375,74.75 -2.05159,9.59722 -3.29417,16.79814 -2.8125,21.9375 0.24084,2.56968 0.92257,5.16494 3.375,6.5625 2.45243,1.39756 5.15878,0.63014 7.59375,-0.71875 16.76814,-9.28898 27.1875,-22.375 27.1875,-22.375 l -4.875,-3.90625 c 0,0 -9.75576,12.1946 -25.3125,20.8125 -0.75413,0.41776 -1.17283,0.53204 -1.40625,0.59375 -0.0914,-0.24555 -0.26527,-0.69385 -0.34375,-1.53125 -0.32004,-3.41475 0.6731,-10.63926 2.6875,-20.0625 3.83505,-17.94014 11.03673,-44.49922 17.40625,-74.9375 6.52116,-0.4737 11.75,-5.9602 11.75,-12.59375 0,-6.94014 -5.71611,-12.65625 -12.65625,-12.65625 z m 0,6.28125 c 3.56238,0 6.375,2.81262 6.375,6.375 0,3.56238 -2.81262,6.40625 -6.375,6.40625 -3.56238,0 -6.40625,-2.84387 -6.40625,-6.40625 0,-3.56238 2.84387,-6.375 6.40625,-6.375 z"
       id="path3158" />
    <path
       inkscape:connector-curvature="0"
       style="font-size:medium;font-style:normal;font-variant:normal;font-weight:normal;font-stretch:normal;text-indent:0;text-align:start;text-decoration:none;line-height:normal;letter-spacing:normal;word-spacing:normal;text-transform:none;direction:ltr;block-progression:tb;writing-mode:lr-tb;text-anchor:start;baseline-shift:baseline;color:#000000;fill:#000000;fill-opacity:1;stroke:none;stroke-width:6.25;marker:none;visibility:visible;display:inline;overflow:visible;enable-background:accumulate;font-family:Sans;-inkscape-font-specification:Sans"
       d="m 368.47783,438.39343 c -6.94014,0 -12.625,5.68486 -12.625,12.625 0,5.26276 3.26211,9.82468 7.875,11.71875 l -14.875,97.75 -8.4375,0 c -12.18879,0 -20.21711,4.25218 -24,11 -3.78289,6.74782 -3.33117,15.1166 -1.03125,23.125 2.29992,8.0084 6.5471,15.8208 11.3125,21.8125 4.7654,5.9917 9.80944,10.625 15.6875,10.625 l 2.6875,0 0.40625,-2.6562 8.75,-57.6563 13.375,0 0,-6.25 -12.40625,0 14.71875,-96.90625 c 6.28467,-0.71206 11.21875,-6.10013 11.21875,-12.5625 0,-6.94014 -5.71611,-12.625 -12.65625,-12.625 z m 0,6.28125 c 3.56238,0 6.375,2.78137 6.375,6.34375 0,3.56238 -2.81262,6.4375 -6.375,6.4375 -3.56238,0 -6.40625,-2.87512 -6.40625,-6.4375 0,-3.56238 2.84387,-6.34375 6.40625,-6.34375 z m -28.0625,122.0625 7.5,0 -8.0625,53.0625 c -2.2714,-1.2293 -5.35972,-3.616 -8.25,-7.25 -4.22757,-5.3154 -8.15771,-12.5885 -10.1875,-19.6562 -2.02979,-7.0679 -2.08721,-13.78454 0.46875,-18.3438 2.55596,-4.55926 7.70729,-7.8125 18.53125,-7.8125 z"
       id="path3162" />
    <path
       style="font-size:medium;font-style:normal;font-variant:normal;font-weight:normal;font-stretch:normal;text-indent:0;text-align:start;text-decoration:none;line-height:normal;letter-spacing:normal;word-spacing:normal;text-transform:none;direction:ltr;block-progression:tb;writing-mode:lr-tb;text-anchor:start;baseline-shift:baseline;color:#000000;fill:#000000;fill-opacity:1;stroke:none;stroke-width:6.25;marker:none;visibility:visible;display:inline;overflow:visible;enable-background:accumulate;font-family:Sans;-inkscape-font-specification:Sans"
       d="m 411.17697,437.91186 -30.84375,108.21875 6.03125,1.71875 29.46875,-103.53125 c 12.21345,0.41296 20.28328,3.74923 24.84375,8.34375 4.86233,4.89864 6.27516,11.20109 4.84375,17.90625 -2.86282,13.41031 -17.81147,27.75 -40.6875,27.75 l 0,6.25 c 25.4792,0 43.22602,-15.88736 46.8125,-32.6875 1.79324,-8.40007 -0.14862,-17.19472 -6.53125,-23.625 -6.38263,-6.43028 -16.85094,-10.34375 -31.59375,-10.34375 z"
       id="path3938"
       inkscape:connector-curvature="0"
       sodipodi:nodetypes="ccccssccsssc" />
  </g>
</svg>
