<?xml version="1.0" encoding="UTF-8" standalone="no"?>
<!-- Created with Inkscape (http://www.inkscape.org/) -->

<svg
   xmlns:dc="http://purl.org/dc/elements/1.1/"
   xmlns:cc="http://creativecommons.org/ns#"
   xmlns:rdf="http://www.w3.org/1999/02/22-rdf-syntax-ns#"
   xmlns:svg="http://www.w3.org/2000/svg"
   xmlns="http://www.w3.org/2000/svg"
   xmlns:sodipodi="http://sodipodi.sourceforge.net/DTD/sodipodi-0.dtd"
   xmlns:inkscape="http://www.inkscape.org/namespaces/inkscape"
   width="744.09448819"
   height="1052.3622047"
   id="svg4028"
   version="1.1"
   inkscape:version="0.48.1 r9760"
   sodipodi:docname="ponctuation_3.svg">
  <defs
     id="defs4030" />
  <sodipodi:namedview
     id="base"
     pagecolor="#ffffff"
     bordercolor="#666666"
     borderopacity="1.0"
     inkscape:pageopacity="0.0"
     inkscape:pageshadow="2"
     inkscape:zoom="1"
     inkscape:cx="442.39272"
     inkscape:cy="741.57215"
     inkscape:document-units="px"
     inkscape:current-layer="layer1"
     showgrid="false"
     inkscape:window-width="1280"
     inkscape:window-height="741"
     inkscape:window-x="0"
     inkscape:window-y="26"
     inkscape:window-maximized="1" />
  <metadata
     id="metadata4033">
    <rdf:RDF>
      <cc:Work
         rdf:about="">
        <dc:format>image/svg+xml</dc:format>
        <dc:type
           rdf:resource="http://purl.org/dc/dcmitype/StillImage" />
        <dc:title></dc:title>
      </cc:Work>
    </rdf:RDF>
  </metadata>
  <g
     inkscape:label="Layer 1"
     inkscape:groupmode="layer"
     id="layer1">
    <path
       style="font-size:medium;font-style:normal;font-variant:normal;font-weight:normal;font-stretch:normal;text-indent:0;text-align:start;text-decoration:none;line-height:normal;letter-spacing:normal;word-spacing:normal;text-transform:none;direction:ltr;block-progression:tb;writing-mode:lr-tb;text-anchor:start;baseline-shift:baseline;color:#000000;fill:#000000;fill-opacity:1;stroke:none;stroke-width:6.25;marker:none;visibility:visible;display:inline;overflow:visible;enable-background:accumulate;font-family:Sans;-inkscape-font-specification:Sans"
       d="m 203.05374,339.22993 c -1.3861,0.24708 -2.7425,0.83251 -4.0285,1.54789 -5.1441,2.86148 -10.6824,8.71253 -16.3925,16.05117 -11.4199,14.67726 -22.92129,35.00949 -25.32949,49.14852 -0.6021,3.53477 -0.6872,6.73005 0.342,9.61161 1.0291,2.88157 3.5948,5.28407 6.8268,5.96217 5.71569,1.19925 13.08559,-1.4298 23.64149,-7.59243 -4.3953,11.7872 -9.5981,25.0166 -16.0114,40.42709 l 5.7852,2.40818 c 13.5256,-32.50064 22.3152,-56.62889 27.5872,-74.19703 5.2721,-17.56814 7.1414,-28.38024 6.2946,-35.22556 -0.1367,-1.10351 -0.393,-2.16855 -0.7375,-3.13563 l 3.1762,3.23418 c 2.1334,-2.06903 4.0941,-3.64205 5.6685,-4.57304 1.5742,-0.93094 2.6813,-1.07059 2.8859,-1.03904 0.2045,0.0316 0.1638,-0.22259 0.5591,0.90998 0.3953,1.13256 0.6982,3.51051 0.4354,6.98287 -1.0509,13.88937 -10.1651,45.04213 -33.4951,101.10185 l 5.7852,2.40818 c 23.4202,-56.27651 32.7511,-87.23629 33.9464,-103.03614 0.2988,-3.94995 0.1112,-6.9859 -0.7654,-9.49737 -0.8766,-2.51149 -2.98,-4.65302 -5.5018,-5.04207 -1.2608,-0.19452 -2.4768,-0.0501 -3.6358,0.29355 -1.1591,0.34362 -2.2776,0.89274 -3.3911,1.55122 -2.0804,1.2302 -4.2094,2.94655 -6.4064,5.03495 -0.729,-1.2576 -1.7284,-2.23729 -3.068,-2.84138 -1.3917,-0.62766 -2.7847,-0.74079 -4.171,-0.49372 z"
       id="path3956"
       inkscape:connector-curvature="0" />
    <path
       style="font-size:medium;font-style:normal;font-variant:normal;font-weight:normal;font-stretch:normal;text-indent:0;text-align:start;text-decoration:none;line-height:normal;letter-spacing:normal;word-spacing:normal;text-transform:none;direction:ltr;block-progression:tb;writing-mode:lr-tb;text-anchor:start;baseline-shift:baseline;color:#000000;fill:#000000;fill-opacity:1;stroke:none;stroke-width:6.25;marker:none;visibility:visible;display:inline;overflow:visible;enable-background:accumulate;font-family:Sans;-inkscape-font-specification:Sans"
       d="M 304.53125 317.25 C 287.98595 317.25 278.06105 320.32563 272.9375 326.71875 C 268.91908 331.7329 268.62089 338.06988 270.0625 344.71875 C 263.36177 346.29187 258.61878 349.00333 255.6875 352.875 C 252.31084 357.33493 251.75456 362.93061 252.6875 368.59375 C 254.55337 379.92003 261.94978 392.70176 268.03125 405.03125 C 274.11272 417.36074 278.5051 429.07683 276.40625 436.3125 C 275.35682 439.93033 273.02475 442.80147 267.6875 445.125 C 262.35025 447.44853 254.01577 448.9375 242 448.9375 L 242 455.1875 C 254.51548 455.1875 263.57063 453.71075 270.15625 450.84375 C 276.74187 447.97675 280.84678 443.43867 282.40625 438.0625 C 283.46325 434.41855 283.48983 430.57462 282.84375 426.59375 C 291.18351 424.06635 296.44752 419.73415 298.75 414.0625 C 301.3492 407.65995 300.21435 400.38345 297.71875 392.9375 C 292.72755 378.0456 281.90398 361.43086 277.5 348.28125 C 274.88613 340.47673 274.64063 334.58283 277.8125 330.625 C 280.98437 326.66717 288.79245 323.5 304.53125 323.5 L 304.53125 317.25 z M 271.78125 350.75 C 276.71308 365.12722 287.27981 381.50687 291.78125 394.9375 C 294.05803 401.73056 294.67131 407.49361 292.96875 411.6875 C 291.48596 415.34002 288.23659 418.40428 281.375 420.5 C 279.55497 414.56667 276.66099 408.40512 273.625 402.25 C 267.43481 389.70008 260.38372 376.94171 258.84375 367.59375 C 258.07377 362.91977 258.57776 359.40154 260.65625 356.65625 C 262.48727 354.23782 265.87517 352.09247 271.78125 350.75 z "
       id="path3960" />
    <path
       style="font-size:medium;font-style:normal;font-variant:normal;font-weight:normal;font-stretch:normal;text-indent:0;text-align:start;text-decoration:none;line-height:normal;letter-spacing:normal;word-spacing:normal;text-transform:none;direction:ltr;block-progression:tb;writing-mode:lr-tb;text-anchor:start;baseline-shift:baseline;color:#000000;fill:#000000;fill-opacity:1;stroke:none;stroke-width:6.25;marker:none;visibility:visible;display:inline;overflow:visible;enable-background:accumulate;font-family:Sans;-inkscape-font-specification:Sans"
       d="m 559.17119,328.57695 -1.875,2.5 c -16.933,22.51429 -27.4643,36.05616 -33.6875,44 -3.1116,3.97192 -5.1466,6.53342 -6.4062,8.15625 -0.6299,0.81142 -1.0494,1.37459 -1.375,1.84375 -0.1629,0.23458 -0.2814,0.43596 -0.4688,0.8125 -0.094,0.18827 -0.246,0.36451 -0.3438,1 -0.049,0.31775 -0.1048,0.8053 0.125,1.5 0.2299,0.6947 0.9531,1.53816 1.6876,1.875 1.4688,0.67368 2.0731,0.2106 2.4062,0.0937 0.3331,-0.11685 0.4587,-0.20482 0.5938,-0.28125 0.2701,-0.15286 0.446,-0.28105 0.625,-0.40625 0.3578,-0.2504 0.7264,-0.50741 1.1562,-0.8125 0.8596,-0.61019 1.9205,-1.29759 2.75,-1.65625 0.6737,-0.2913 0.7479,-0.25251 0.6562,-0.3125 0.046,0.15817 0.1293,0.44374 0.1876,1.21875 0.03,18.30675 3.5362,31.42898 7.125,40 3.6041,8.6076 7.4687,12.875 7.4687,12.875 l 2.125,2.28125 4.5937,-4.25 -2.125,-2.28125 c 0,0 -3.0223,-3.20461 -6.3124,-11.0625 -3.2902,-7.85789 -6.625,-20.14831 -6.625,-37.78125 l 0,-0.125 -0.031,-0.125 c -0.2119,-2.8211 -1.3206,-5.3576 -3.5937,-6.4375 -0.2906,-0.13804 -0.5597,-0.19656 -0.8438,-0.28125 0.6355,-0.80848 0.8041,-1.00072 1.5625,-1.96875 6.2436,-7.96996 16.7628,-21.58029 33.7187,-44.125 l 1.9063,-2.5 -5,-3.75 z"
       id="path3970"
       inkscape:connector-curvature="0" />
    <path
       style="font-size:medium;font-style:normal;font-variant:normal;font-weight:normal;font-stretch:normal;text-indent:0;text-align:start;text-decoration:none;line-height:normal;letter-spacing:normal;word-spacing:normal;text-transform:none;direction:ltr;block-progression:tb;writing-mode:lr-tb;text-anchor:start;baseline-shift:baseline;color:#000000;fill:#000000;fill-opacity:1;stroke:none;stroke-width:6.25;marker:none;visibility:visible;display:inline;overflow:visible;enable-background:accumulate;font-family:Sans;-inkscape-font-specification:Sans"
       d="m 583.20249,328.57695 -1.875,2.5 c -16.9331,22.51429 -27.4331,36.05616 -33.6563,44 -3.1116,3.97192 -5.1466,6.53342 -6.4063,8.15625 -0.6298,0.81142 -1.0806,1.37459 -1.4062,1.84375 -0.1628,0.23458 -0.2814,0.43596 -0.4688,0.8125 -0.094,0.18827 -0.2459,0.36451 -0.3437,1 -0.049,0.31775 -0.1048,0.8053 0.125,1.5 0.2298,0.6947 0.9531,1.53816 1.6875,1.875 1.4688,0.67368 2.0732,0.2106 2.4062,0.0937 0.3331,-0.11685 0.49,-0.20482 0.625,-0.28125 0.2702,-0.15286 0.4149,-0.28105 0.5938,-0.40625 0.3579,-0.2504 0.7265,-0.50741 1.1562,-0.8125 0.8596,-0.61019 1.9518,-1.29759 2.7813,-1.65625 0.6958,-0.30083 0.7802,-0.24186 0.6563,-0.3125 0.046,0.1582 0.098,0.44384 0.1562,1.21875 0.03,18.30675 3.5362,31.42898 7.125,40 3.6041,8.6076 7.5,12.875 7.5,12.875 l 2.125,2.28125 4.5938,-4.25 -2.125,-2.28125 c 0,0 -3.0224,-3.20461 -6.3126,-11.0625 -3.2901,-7.85789 -6.6562,-20.14831 -6.6562,-37.78125 l 0,-0.125 0,-0.125 c -0.2119,-2.8211 -1.3206,-5.3576 -3.5938,-6.4375 -0.2952,-0.14025 -0.5864,-0.19601 -0.875,-0.28125 0.6365,-0.8097 0.8028,-0.99892 1.5626,-1.96875 6.2436,-7.96996 16.794,-21.58029 33.75,-44.125 l 1.875,-2.5 -5,-3.75 z"
       id="path3972"
       inkscape:connector-curvature="0" />
    <path
       style="font-size:medium;font-style:normal;font-variant:normal;font-weight:normal;font-stretch:normal;text-indent:0;text-align:start;text-decoration:none;line-height:normal;letter-spacing:normal;word-spacing:normal;text-transform:none;direction:ltr;block-progression:tb;writing-mode:lr-tb;text-anchor:start;baseline-shift:baseline;color:#000000;fill:#000000;fill-opacity:1;stroke:none;stroke-width:6.25;marker:none;visibility:visible;display:inline;overflow:visible;enable-background:accumulate;font-family:Sans;-inkscape-font-specification:Sans"
       d="m 392.0768,296.48791 c -16.3179,0 -29.8036,13.62478 -40.1875,32 -10.3839,18.37522 -17.8825,42.01496 -21.6875,64.125 -3.805,22.11004 -4.117,42.51722 0.9687,55.28125 2.5429,6.38202 6.9561,11.2172 13.0938,12 6.1377,0.7828 12.9247,-2.25329 20.75,-8.875 l -4.0625,-4.78125 c -7.1542,6.05377 -12.4928,7.87284 -15.9063,7.4375 -3.4134,-0.43534 -5.9854,-2.8809 -8.0624,-8.09375 -4.1541,-10.42569 -4.3225,-30.42117 -0.625,-51.90625 3.6974,-21.48508 11.0851,-44.63501 20.9687,-62.125 9.8836,-17.48999 22.0124,-28.8125 34.75,-28.8125 l 0,-6.25 z"
       id="path3978"
       inkscape:connector-curvature="0" />
    <path
       inkscape:connector-curvature="0"
       id="path4002"
       d="m 655.62483,443.26435 1.875,-2.5 c 16.933,-22.51429 27.4643,-36.05616 33.6875,-44 3.1116,-3.97192 5.1466,-6.53342 6.4062,-8.15625 0.6299,-0.81142 1.0494,-1.37459 1.375,-1.84375 0.1629,-0.23458 0.2814,-0.43596 0.4688,-0.8125 0.094,-0.18827 0.246,-0.36451 0.3438,-1 0.049,-0.31775 0.1048,-0.8053 -0.125,-1.5 -0.2299,-0.6947 -0.9531,-1.53816 -1.6876,-1.875 -1.4688,-0.67368 -2.0731,-0.2106 -2.4062,-0.0937 -0.3331,0.11685 -0.4587,0.20482 -0.5938,0.28125 -0.2701,0.15286 -0.446,0.28105 -0.625,0.40625 -0.3578,0.2504 -0.7264,0.50741 -1.1562,0.8125 -0.8596,0.61019 -1.9205,1.29759 -2.75,1.65625 -0.6737,0.2913 -0.7479,0.25251 -0.6562,0.3125 -0.046,-0.15817 -0.1293,-0.44374 -0.1876,-1.21875 -0.03,-18.30675 -3.5362,-31.42898 -7.125,-40 -3.6041,-8.6076 -7.4687,-12.875 -7.4687,-12.875 l -2.125,-2.28125 -4.5937,4.25 2.125,2.28125 c 0,0 3.0223,3.20461 6.3124,11.0625 3.2902,7.85789 6.625,20.14831 6.625,37.78125 l 0,0.125 0.031,0.125 c 0.2119,2.8211 1.3206,5.3576 3.5937,6.4375 0.2906,0.13804 0.5597,0.19656 0.8438,0.28125 -0.6355,0.80848 -0.8041,1.00072 -1.5625,1.96875 -6.2436,7.96996 -16.7628,21.58029 -33.7187,44.125 l -1.9063,2.5 5,3.75 z"
       style="font-size:medium;font-style:normal;font-variant:normal;font-weight:normal;font-stretch:normal;text-indent:0;text-align:start;text-decoration:none;line-height:normal;letter-spacing:normal;word-spacing:normal;text-transform:none;direction:ltr;block-progression:tb;writing-mode:lr-tb;text-anchor:start;baseline-shift:baseline;color:#000000;fill:#000000;fill-opacity:1;stroke:none;stroke-width:6.25;marker:none;visibility:visible;display:inline;overflow:visible;enable-background:accumulate;font-family:Sans;-inkscape-font-specification:Sans" />
    <path
       inkscape:connector-curvature="0"
       id="path4004"
       d="m 631.59353,443.26435 1.875,-2.5 c 16.9331,-22.51429 27.4331,-36.05616 33.6563,-44 3.1116,-3.97192 5.1466,-6.53342 6.4063,-8.15625 0.6298,-0.81142 1.0806,-1.37459 1.4062,-1.84375 0.1628,-0.23458 0.2814,-0.43596 0.4688,-0.8125 0.094,-0.18827 0.2459,-0.36451 0.3437,-1 0.049,-0.31775 0.1048,-0.8053 -0.125,-1.5 -0.2298,-0.6947 -0.9531,-1.53816 -1.6875,-1.875 -1.4688,-0.67368 -2.0732,-0.2106 -2.4062,-0.0937 -0.3331,0.11685 -0.49,0.20482 -0.625,0.28125 -0.2702,0.15286 -0.4149,0.28105 -0.5938,0.40625 -0.3579,0.2504 -0.7265,0.50741 -1.1562,0.8125 -0.8596,0.61019 -1.9518,1.29759 -2.7813,1.65625 -0.6958,0.30083 -0.7802,0.24186 -0.6563,0.3125 -0.046,-0.1582 -0.098,-0.44384 -0.1562,-1.21875 -0.03,-18.30675 -3.5362,-31.42898 -7.125,-40 -3.6041,-8.6076 -7.5,-12.875 -7.5,-12.875 l -2.125,-2.28125 -4.5938,4.25 2.125,2.28125 c 0,0 3.0224,3.20461 6.3126,11.0625 3.2901,7.85789 6.6562,20.14831 6.6562,37.78125 l 0,0.125 0,0.125 c 0.2119,2.8211 1.3206,5.3576 3.5938,6.4375 0.2952,0.14025 0.5864,0.19601 0.875,0.28125 -0.6365,0.8097 -0.8028,0.99892 -1.5626,1.96875 -6.2436,7.96996 -16.794,21.58029 -33.75,44.125 l -1.875,2.5 5,3.75 z"
       style="font-size:medium;font-style:normal;font-variant:normal;font-weight:normal;font-stretch:normal;text-indent:0;text-align:start;text-decoration:none;line-height:normal;letter-spacing:normal;word-spacing:normal;text-transform:none;direction:ltr;block-progression:tb;writing-mode:lr-tb;text-anchor:start;baseline-shift:baseline;color:#000000;fill:#000000;fill-opacity:1;stroke:none;stroke-width:6.25;marker:none;visibility:visible;display:inline;overflow:visible;enable-background:accumulate;font-family:Sans;-inkscape-font-specification:Sans" />
    <path
       inkscape:connector-curvature="0"
       id="path4057"
       d="m 418.77615,460.01476 c 16.3179,0 29.8036,-13.62478 40.1875,-32 10.3839,-18.37522 17.8825,-42.01496 21.6875,-64.125 3.805,-22.11004 4.117,-42.51722 -0.9687,-55.28125 -2.5429,-6.38202 -6.9561,-11.2172 -13.0938,-12 -6.1377,-0.7828 -12.9247,2.25329 -20.75,8.875 l 4.0625,4.78125 c 7.1542,-6.05377 12.4928,-7.87284 15.9063,-7.4375 3.4134,0.43534 5.9854,2.8809 8.0624,8.09375 4.1541,10.42569 4.3225,30.42117 0.625,51.90625 -3.6974,21.48508 -11.0851,44.63501 -20.9687,62.125 -9.8836,17.48999 -22.0124,28.8125 -34.75,28.8125 l 0,6.25 z"
       style="font-size:medium;font-style:normal;font-variant:normal;font-weight:normal;font-stretch:normal;text-indent:0;text-align:start;text-decoration:none;line-height:normal;letter-spacing:normal;word-spacing:normal;text-transform:none;direction:ltr;block-progression:tb;writing-mode:lr-tb;text-anchor:start;baseline-shift:baseline;color:#000000;fill:#000000;fill-opacity:1;stroke:none;stroke-width:6.25;marker:none;visibility:visible;display:inline;overflow:visible;enable-background:accumulate;font-family:Sans;-inkscape-font-specification:Sans" />
    <path
       style="font-size:medium;font-style:normal;font-variant:normal;font-weight:normal;font-stretch:normal;text-indent:0;text-align:start;text-decoration:none;line-height:normal;letter-spacing:normal;word-spacing:normal;text-transform:none;direction:ltr;block-progression:tb;writing-mode:lr-tb;text-anchor:start;baseline-shift:baseline;color:#000000;fill:#000000;fill-opacity:1;stroke:none;stroke-width:6.25;marker:none;visibility:visible;display:inline;overflow:visible;enable-background:accumulate;font-family:Sans;-inkscape-font-specification:Sans"
       d="m 389.0625,207.71875 -25.5,25.53125 4.40625,4.40625 17.3125,-17.3125 -11.1875,41.71875 6.03125,1.625 14.1875,-52.9375 -5.25,-3.03125 z"
       id="path3887"
       inkscape:connector-curvature="0" />
    <path
       style="font-size:medium;font-style:normal;font-variant:normal;font-weight:normal;font-stretch:normal;text-indent:0;text-align:start;text-decoration:none;line-height:normal;letter-spacing:normal;word-spacing:normal;text-transform:none;direction:ltr;block-progression:tb;writing-mode:lr-tb;text-anchor:start;baseline-shift:baseline;color:#000000;fill:#000000;fill-opacity:1;stroke:none;stroke-width:6.25;marker:none;visibility:visible;display:inline;overflow:visible;enable-background:accumulate;font-family:Sans;-inkscape-font-specification:Sans"
       d="m 427.90625,204.6875 c -19.40076,0 -27.3125,16.90625 -27.3125,16.90625 l 5.6875,2.59375 c 0,0 5.79266,-13.25 21.625,-13.25 0.55713,0 0.62477,0.0711 0.6875,0.0937 0.0216,0.36679 -0.0971,1.83018 -0.9375,3.875 -1.81439,4.41483 -6.08225,10.97171 -10.9375,17.5 -9.7105,13.05658 -21.6875,26.25 -21.6875,26.25 l -4.78125,5.21875 7.09375,0 33.5,0 0,-6.25 -26.625,0 c 4.25339,-4.83644 10.65581,-12.26617 17.5,-21.46875 4.98843,-6.70736 9.45348,-13.36309 11.71875,-18.875 1.13263,-2.75595 1.90838,-5.25923 1.21875,-7.96875 -0.34481,-1.35476 -1.24898,-2.75376 -2.53125,-3.5625 -1.28227,-0.80874 -2.7264,-1.0625 -4.21875,-1.0625 z"
       id="path3889"
       inkscape:connector-curvature="0" />
    <path
       style="font-size:medium;font-style:normal;font-variant:normal;font-weight:normal;font-stretch:normal;text-indent:0;text-align:start;text-decoration:none;line-height:normal;letter-spacing:normal;word-spacing:normal;text-transform:none;direction:ltr;block-progression:tb;writing-mode:lr-tb;text-anchor:start;baseline-shift:baseline;color:#000000;fill:#000000;fill-opacity:1;stroke:none;stroke-width:6.25;marker:none;visibility:visible;display:inline;overflow:visible;enable-background:accumulate;font-family:Sans;-inkscape-font-specification:Sans"
       d="m 468.68042,205.40362 c -19.40076,0 -27.3125,16.90625 -27.3125,16.90625 l -1.28125,2.84375 5.6875,2.59375 1.28125,-2.84375 c 0,0 5.79266,-13.25 21.625,-13.25 0.63672,0 0.70332,0.0596 0.71875,0.0625 0.0512,0.52666 -0.31354,2.58796 -1.53125,5.1875 -2.47713,5.28811 -7.70305,12.80621 -13.1875,19.90625 l -1.90625,2.46875 0,0.0625 1.8125,2.53125 c 4.16315,5.86087 7.58066,11.54598 8.8125,15.125 0.57622,1.67416 0.47145,2.60239 0.46875,2.71875 -0.0984,0.032 -0.1983,0.0937 -0.6875,0.0937 -15.83234,0 -21.59375,-13.25 -21.59375,-13.25 l -1.28125,-2.84375 -5.71875,2.5625 1.3125,2.84375 c 0,0 7.88049,16.9375 27.28125,16.9375 1.35623,0 2.67229,-0.22583 3.875,-0.875 1.20271,-0.64917 2.21261,-1.80762 2.6875,-3.03125 0.94979,-2.44726 0.40038,-4.75311 -0.4375,-7.1875 -1.56204,-4.53837 -4.85417,-9.88298 -8.78125,-15.5 5.27081,-6.89268 10.24128,-14.01701 13,-19.90625 1.4589,-3.11441 2.47313,-5.83989 2.0625,-8.78125 -0.20531,-1.47069 -0.99955,-3.07097 -2.34375,-4.0625 -1.3442,-0.99153 -2.92913,-1.3125 -4.5625,-1.3125 z"
       id="path18"
       inkscape:connector-curvature="0"
       sodipodi:nodetypes="sccccscsccccscsccccsssscssss" />
    <path
       style="font-size:medium;font-style:normal;font-variant:normal;font-weight:normal;font-stretch:normal;text-indent:0;text-align:start;text-decoration:none;line-height:normal;letter-spacing:normal;word-spacing:normal;text-transform:none;direction:ltr;block-progression:tb;writing-mode:lr-tb;text-anchor:start;baseline-shift:baseline;color:#000000;fill:#000000;fill-opacity:1;stroke:none;stroke-width:6.25;marker:none;visibility:visible;display:inline;overflow:visible;enable-background:accumulate;font-family:Sans;-inkscape-font-specification:Sans"
       d="m 494.93838,207.43487 c -4.81583,17.97293 -20.375,33.53125 -20.375,33.53125 l -5.4375,5.375 7.625,0 19.0625,0 -3.84375,14.3125 6.03125,1.625 14.1875,-52.96875 -6.03125,-1.59375 -8.6875,32.375 -13.78125,0 c 5.31996,-6.2552 13.67745,-17.46505 17.3125,-31.03125 l -6.0625,-1.625 z"
       id="path3899"
       inkscape:connector-curvature="0" />
    <path
       style="font-size:medium;font-style:normal;font-variant:normal;font-weight:normal;font-stretch:normal;text-indent:0;text-align:start;text-decoration:none;line-height:normal;letter-spacing:normal;word-spacing:normal;text-transform:none;direction:ltr;block-progression:tb;writing-mode:lr-tb;text-anchor:start;baseline-shift:baseline;color:#000000;fill:#000000;fill-opacity:1;stroke:none;stroke-width:6.25;marker:none;visibility:visible;display:inline;overflow:visible;enable-background:accumulate;font-family:Sans;-inkscape-font-specification:Sans"
       d="m 521.07931,205.40362 -0.59375,2.34375 -7.4375,29 -1,3.90625 4.03125,0 c 8.20448,0 13.40912,1.47549 15.84375,3.0625 1.21732,0.7935 1.74694,1.51944 1.96875,2.125 0.22181,0.60556 0.20581,1.21257 -0.125,2.09375 -0.66162,1.76237 -3.07638,4.39715 -7.21875,6.46875 -4.14237,2.0716 -9.88231,3.64207 -16.71875,3.9375 l 0.28125,6.25 c 7.63258,-0.32984 14.15797,-2.06285 19.21875,-4.59375 5.06078,-2.5309 8.78768,-5.81334 10.3125,-9.875 0.76241,-2.03083 0.86118,-4.31111 0.0937,-6.40625 -0.76743,-2.09514 -2.33301,-3.89857 -4.40625,-5.25 -3.47637,-2.26606 -8.50724,-3.53671 -15.25,-3.90625 l 5.875,-22.90625 16.0625,0 0,-6.25 -18.5,0 -2.4375,0 z"
       id="path3903"
       inkscape:connector-curvature="0" />
    <path
       style="font-size:medium;font-style:normal;font-variant:normal;font-weight:normal;font-stretch:normal;text-indent:0;text-align:start;text-decoration:none;line-height:normal;letter-spacing:normal;word-spacing:normal;text-transform:none;direction:ltr;block-progression:tb;writing-mode:lr-tb;text-anchor:start;baseline-shift:baseline;color:#000000;fill:#000000;fill-opacity:1;stroke:none;stroke-width:6.25;marker:none;visibility:visible;display:inline;overflow:visible;enable-background:accumulate;font-family:Sans;-inkscape-font-specification:Sans"
       d="m 584.83052,206.81783 0,6.25 21.3125,0 -27.84375,48.25 5.40625,3.125 30.5625,-52.9375 2.71875,-4.6875 -5.40625,0 -26.75,0 z"
       id="path3907"
       inkscape:connector-curvature="0" />
    <path
       style="font-size:medium;font-style:normal;font-variant:normal;font-weight:normal;font-stretch:normal;text-indent:0;text-align:start;text-decoration:none;line-height:normal;letter-spacing:normal;word-spacing:normal;text-transform:none;direction:ltr;block-progression:tb;writing-mode:lr-tb;text-anchor:start;baseline-shift:baseline;color:#000000;fill:#000000;fill-opacity:1;stroke:none;stroke-width:6.25;marker:none;visibility:visible;display:inline;overflow:visible;enable-background:accumulate;font-family:Sans;-inkscape-font-specification:Sans"
       d="m 656.35133,205.65362 c -2.70218,0.10438 -5.50775,0.36174 -8.28125,0.6875 -11.09399,1.30303 -21.71875,3.875 -21.71875,3.875 l -5.1875,1.28125 3.625,3.90625 c 0,0 11.03267,11.94296 18.21875,23.59375 0.20607,0.33409 0.30177,0.6349 0.5,0.96875 -5.34291,5.01033 -10.01067,9.59214 -12,14.15625 -0.53338,1.22374 -0.90222,2.5247 -0.8125,3.96875 0.0897,1.44405 0.81794,2.96934 1.9375,4 2.23913,2.06132 5.2223,2.5 9.28125,2.5 4.14796,0 7.45077,-0.8251 9.875,-2.78125 2.42423,-1.95615 3.49447,-4.9715 3.5,-7.875 0.008,-4.07891 -1.78298,-8.35411 -4.03125,-12.6875 5.10373,-4.66773 10.62876,-9.51445 15.0625,-13.9375 2.57045,-2.56425 4.78698,-4.97802 6.375,-7.28125 1.58802,-2.30324 2.94598,-4.61522 2.15625,-7.5625 -0.61749,-2.30452 -2.41854,-3.98647 -4.34375,-4.9375 -1.92521,-0.95104 -4.08762,-1.39314 -6.46875,-1.65625 -2.38113,-0.26312 -4.98532,-0.32314 -7.6875,-0.21875 z m 0.25,6.25 c 2.48889,-0.0947 4.80759,-0.0584 6.75,0.15625 1.94241,0.21463 3.5107,0.65135 4.40625,1.09375 0.89555,0.44239 0.99727,0.66279 1.0625,0.90625 -0.10699,-0.39931 -0.0914,0.71177 -1.28125,2.4375 -1.18984,1.72572 -3.18756,3.94344 -5.625,6.375 -3.84784,3.83855 -8.90732,8.30898 -13.6875,12.65625 -5.62193,-9.0692 -11.73747,-16.21737 -15.34375,-20.3125 3.99312,-0.84435 9.41534,-1.89387 15.90625,-2.65625 2.64987,-0.31124 5.32361,-0.56158 7.8125,-0.65625 z m -10.0625,33.90625 c 1.46146,3.23297 2.50367,6.1994 2.5,8.125 -0.003,1.61456 -0.34555,2.35187 -1.1875,3.03125 -0.84195,0.67938 -2.63136,1.375 -5.9375,1.375 -3.23417,0 -4.74029,-0.69725 -4.9375,-0.8125 0.009,-0.12453 0.0433,-0.3604 0.28125,-0.90625 0.94023,-2.15716 4.74629,-6.37361 9.28125,-10.8125 z"
       id="path3909"
       inkscape:connector-curvature="0" />
    <path
       style="font-size:medium;font-style:normal;font-variant:normal;font-weight:normal;font-stretch:normal;text-indent:0;text-align:start;text-decoration:none;line-height:normal;letter-spacing:normal;word-spacing:normal;text-transform:none;direction:ltr;block-progression:tb;writing-mode:lr-tb;text-anchor:start;baseline-shift:baseline;color:#000000;fill:#000000;fill-opacity:1;stroke:none;stroke-width:6.25;marker:none;visibility:visible;display:inline;overflow:visible;enable-background:accumulate;font-family:Sans;-inkscape-font-specification:Sans"
       d="m 701.13258,206.17322 c -0.94556,-0.0182 -1.87572,0.20381 -2.6875,0.46875 -3.24713,1.05979 -6.51259,3.46925 -10.09375,6.59375 -7.16232,6.24901 -14.81272,15.05755 -17.5625,22.34375 -0.68744,1.82155 -1.13826,3.59426 -0.84375,5.53125 0.29451,1.93699 1.76949,3.95946 3.71875,4.78125 2.57198,1.08433 5.53863,0.90269 9.28125,-0.0937 -2.82293,4.52562 -5.65175,9.06926 -9.34375,14.625 l 5.1875,3.46875 c 9.76063,-14.68784 16.41392,-25.71174 20.71875,-33.90625 4.30483,-8.19451 6.35018,-13.34216 6.625,-17.3125 0.13741,-1.98517 -0.29272,-4.27499 -2.15625,-5.59375 -0.93176,-0.65937 -1.89819,-0.88808 -2.84375,-0.90625 z m -1.40625,6.78125 c -0.31941,2.13807 -1.89111,6.77938 -5.75,14.125 -1.66934,3.17768 -4.03298,7.20886 -6.53125,11.40625 l -0.25,-0.65625 c -6.70562,2.5626 -10.55543,2.51095 -11.0625,2.3125 -0.0333,-0.25291 0.0361,-1.14572 0.5,-2.375 1.87909,-4.9791 9.27361,-14.10743 15.8125,-19.8125 2.93858,-2.56386 5.67075,-4.2941 7.28125,-5 z"
       id="path3911"
       inkscape:connector-curvature="0" />
    <path
       style="font-size:medium;font-style:normal;font-variant:normal;font-weight:normal;font-stretch:normal;text-indent:0;text-align:start;text-decoration:none;line-height:normal;letter-spacing:normal;word-spacing:normal;text-transform:none;direction:ltr;block-progression:tb;writing-mode:lr-tb;text-anchor:start;baseline-shift:baseline;color:#000000;fill:#000000;fill-opacity:1;stroke:none;stroke-width:6.25;marker:none;visibility:visible;display:inline;overflow:visible;enable-background:accumulate;font-family:Sans;-inkscape-font-specification:Sans"
       d="m 572.2913,208.16158 c -9.76063,14.68784 -16.41392,25.74299 -20.71875,33.9375 -4.30483,8.19451 -6.35018,13.31091 -6.625,17.28125 -0.13741,1.98517 0.29272,4.275 2.15625,5.59375 1.86353,1.31875 3.90768,0.99864 5.53125,0.46875 3.24713,-1.05978 6.51259,-3.5005 10.09375,-6.625 7.16232,-6.249 14.84397,-15.0263 17.59375,-22.3125 0.68744,-1.82155 1.10701,-3.62551 0.8125,-5.5625 -0.29451,-1.93699 -1.76949,-3.95946 -3.71875,-4.78125 -2.57998,-1.0877 -5.52153,-0.88008 -9.28125,0.125 2.82641,-4.53179 5.67655,-9.09081 9.375,-14.65625 l -5.21875,-3.46875 z m 2.65625,23.75 c 0.0333,0.25291 -0.0361,1.14572 -0.5,2.375 -1.87909,4.9791 -9.27361,14.10743 -15.8125,19.8125 -2.92794,2.55457 -5.63602,4.31915 -7.25,5.03125 0.31236,-2.12813 1.84869,-6.75811 5.71875,-14.125 1.67198,-3.18271 4.05889,-7.23179 6.5625,-11.4375 l 0.25,0.65625 c 6.70562,-2.5626 10.52418,-2.51095 11.03125,-2.3125 z"
       id="path3993"
       inkscape:connector-curvature="0" />
    <path
       style="font-size:medium;font-style:normal;font-variant:normal;font-weight:normal;font-stretch:normal;text-indent:0;text-align:start;text-decoration:none;line-height:normal;letter-spacing:normal;word-spacing:normal;text-transform:none;direction:ltr;block-progression:tb;writing-mode:lr-tb;text-anchor:start;baseline-shift:baseline;color:#000000;fill:#000000;fill-opacity:1;stroke:none;stroke-width:12.11469078;marker:none;visibility:visible;display:inline;overflow:visible;enable-background:accumulate;font-family:Sans;-inkscape-font-specification:Sans"
       d="m 348.95682,202.21693 c -5.1483,-1.39294 -10.09859,1.72629 -14.01398,6.36292 -3.91538,4.63664 -7.21019,11.21652 -9.2844,18.88277 -2.07421,7.66626 -2.54657,15.00979 -1.5032,20.98809 1.04337,5.97829 3.74557,11.16801 8.89387,12.56095 5.14829,1.39294 10.09859,-1.72629 14.01397,-6.36292 3.91539,-4.63664 7.21019,-11.21651 9.2844,-18.88277 2.07422,-7.66626 2.54658,-15.00979 1.50321,-20.98809 -1.04337,-5.97829 -3.74557,-11.16801 -8.89387,-12.56095 z m -1.62951,6.02265 c 1.6585,0.44873 3.52109,2.83101 4.35487,7.6084 0.83378,4.77738 0.49525,11.37958 -1.3729,18.28427 -1.86816,6.90468 -4.90475,12.77688 -8.03362,16.48212 -3.12887,3.70524 -5.93434,4.80781 -7.59283,4.35908 -1.6585,-0.44873 -3.52531,-2.81545 -4.35909,-7.59284 -0.83378,-4.77738 -0.49525,-11.37958 1.37291,-18.28426 1.86816,-6.90469 4.90474,-12.77689 8.03361,-16.48213 3.12887,-3.70524 5.93856,-4.82337 7.59705,-4.37464 z"
       id="path3957"
       inkscape:connector-curvature="0" />
    <path
       style="font-size:medium;font-style:normal;font-variant:normal;font-weight:normal;font-stretch:normal;text-indent:0;text-align:start;text-decoration:none;line-height:normal;letter-spacing:normal;word-spacing:normal;text-transform:none;direction:ltr;block-progression:tb;writing-mode:lr-tb;text-anchor:start;baseline-shift:baseline;color:#000000;fill:#000000;fill-opacity:1;stroke:none;stroke-width:6.25;marker:none;visibility:visible;display:inline;overflow:visible;enable-background:accumulate;font-family:Sans;-inkscape-font-specification:Sans"
       d="m 624.40625,81.90625 -61.1875,105.9375 5.4375,3.125 61.15625,-105.9375 -5.40625,-3.125 z"
       id="path3985"
       inkscape:connector-curvature="0" />
    <path
       style="font-size:medium;font-style:normal;font-variant:normal;font-weight:normal;font-stretch:normal;text-indent:0;text-align:start;text-decoration:none;line-height:normal;letter-spacing:normal;word-spacing:normal;text-transform:none;direction:ltr;block-progression:tb;writing-mode:lr-tb;text-anchor:start;baseline-shift:baseline;color:#000000;fill:#000000;fill-opacity:1;stroke:none;stroke-width:6.25;marker:none;visibility:visible;display:inline;overflow:visible;enable-background:accumulate;font-family:Sans;-inkscape-font-specification:Sans"
       d="M 688.5,84.09375 627.3125,190.0625 632.75,193.1875 693.90625,87.21875 688.5,84.09375 z"
       id="path3036"
       inkscape:connector-curvature="0" />
  </g>
</svg>
