<?xml version="1.0" encoding="UTF-8" standalone="no"?>
<!-- Created with Inkscape (http://www.inkscape.org/) -->

<svg
   xmlns:dc="http://purl.org/dc/elements/1.1/"
   xmlns:cc="http://creativecommons.org/ns#"
   xmlns:rdf="http://www.w3.org/1999/02/22-rdf-syntax-ns#"
   xmlns:svg="http://www.w3.org/2000/svg"
   xmlns="http://www.w3.org/2000/svg"
   xmlns:sodipodi="http://sodipodi.sourceforge.net/DTD/sodipodi-0.dtd"
   xmlns:inkscape="http://www.inkscape.org/namespaces/inkscape"
   width="744.09448819"
   height="1052.3622047"
   id="svg4167"
   version="1.1"
   inkscape:version="0.48.1 r9760"
   sodipodi:docname="New document 9">
  <defs
     id="defs4169" />
  <sodipodi:namedview
     id="base"
     pagecolor="#ffffff"
     bordercolor="#666666"
     borderopacity="1.0"
     inkscape:pageopacity="0.0"
     inkscape:pageshadow="2"
     inkscape:zoom="0.35"
     inkscape:cx="375"
     inkscape:cy="520"
     inkscape:document-units="px"
     inkscape:current-layer="layer1"
     showgrid="false"
     inkscape:window-width="554"
     inkscape:window-height="464"
     inkscape:window-x="2"
     inkscape:window-y="94"
     inkscape:window-maximized="0" />
  <metadata
     id="metadata4172">
    <rdf:RDF>
      <cc:Work
         rdf:about="">
        <dc:format>image/svg+xml</dc:format>
        <dc:type
           rdf:resource="http://purl.org/dc/dcmitype/StillImage" />
        <dc:title></dc:title>
      </cc:Work>
    </rdf:RDF>
  </metadata>
  <g
     inkscape:label="Layer 1"
     inkscape:groupmode="layer"
     id="layer1">
    <path
       style="font-size:medium;font-style:normal;font-variant:normal;font-weight:normal;font-stretch:normal;text-indent:0;text-align:start;text-decoration:none;line-height:normal;letter-spacing:normal;word-spacing:normal;text-transform:none;direction:ltr;block-progression:tb;writing-mode:lr-tb;text-anchor:start;baseline-shift:baseline;color:#000000;fill:#000000;fill-opacity:1;stroke:none;stroke-width:6.25;marker:none;visibility:visible;display:inline;overflow:visible;enable-background:accumulate;font-family:Sans;-inkscape-font-specification:Sans"
       d="m 452.34208,471.89229 c -3.7841,0.0661 -8.0039,1.34396 -12.6562,3.25 -12.4064,5.08277 -27.5472,15.41786 -37.875,27.34375 -5.164,5.96294 -9.1453,12.32145 -10.75,18.875 -1.6048,6.55355 -0.5741,13.45862 4.1874,19.09375 l 4.7813,-4.03125 c -3.5114,-4.15569 -4.1543,-8.46573 -2.9063,-13.5625 1.2481,-5.09677 4.6575,-10.79767 9.4063,-16.28125 9.4976,-10.96716 24.2346,-21.04091 35.5,-25.65625 5.6327,-2.30767 10.4879,-3.0649 12.5313,-2.59375 1.0216,0.23558 1.2213,0.44871 1.4374,0.90625 0.2162,0.45754 0.4267,1.6083 -0.094,3.6875 -1.0409,4.15839 -4.8953,11.40159 -12.6563,21.5 -7.7609,10.09841 -19.3862,23.16753 -35.875,39.65625 l -0.9374,0.90625 0,27.76317 6.25,0 0,-25.20067 c 16.0695,-16.12844 27.6888,-29.10804 35.5312,-39.3125 8.0107,-10.42344 12.2874,-17.93806 13.75,-23.78125 0.7313,-2.9216 0.7743,-5.57494 -0.3125,-7.875 -1.0868,-2.30006 -3.3597,-3.80702 -5.6875,-4.34375 -1.1639,-0.26837 -2.3636,-0.36579 -3.625,-0.34375 z"
       id="path5026"
       inkscape:connector-curvature="0"
       sodipodi:nodetypes="cssccccsscccscccccsssscc" />
    <path
       style="font-size:medium;font-style:normal;font-variant:normal;font-weight:normal;font-stretch:normal;text-indent:0;text-align:start;text-decoration:none;line-height:normal;letter-spacing:normal;word-spacing:normal;text-transform:none;direction:ltr;block-progression:tb;writing-mode:lr-tb;text-anchor:start;baseline-shift:baseline;color:#000000;fill:#000000;fill-opacity:1;stroke:none;stroke-width:3.29177046;marker:none;visibility:visible;display:inline;overflow:visible;enable-background:accumulate;font-family:Sans;-inkscape-font-specification:Sans"
       d="m 409.82758,578.59227 c -6.9851,0 -12.6973,5.71224 -12.6973,12.69738 0,6.98515 5.7122,12.75672 12.6973,12.75672 6.9852,0 12.6974,-5.77157 12.6974,-12.75672 0,-6.98514 -5.7122,-12.69738 -12.6974,-12.69738 z m 0,6.23002 c 3.6075,0 6.4674,2.85996 6.4674,6.46736 0,3.60741 -2.8599,6.46736 -6.4674,6.46736 -3.6074,0 -6.4673,-2.85995 -6.4673,-6.46736 0,-3.6074 2.8599,-6.46736 6.4673,-6.46736 z"
       id="path4117"
       inkscape:connector-curvature="0" />
    <path
       style="font-size:medium;font-style:normal;font-variant:normal;font-weight:normal;font-stretch:normal;text-indent:0;text-align:start;text-decoration:none;line-height:normal;letter-spacing:normal;word-spacing:normal;text-transform:none;direction:ltr;block-progression:tb;writing-mode:lr-tb;text-anchor:start;baseline-shift:baseline;color:#000000;fill:#000000;fill-opacity:1;stroke:none;stroke-width:6.25;marker:none;visibility:visible;display:inline;overflow:visible;enable-background:accumulate;font-family:Sans;-inkscape-font-specification:Sans"
       d="m 516.96708,471.90511 -26.5625,100.93566 6.0313,0 26.9687,-100.93566 z"
       id="path4119"
       inkscape:connector-curvature="0"
       sodipodi:nodetypes="ccccc" />
    <path
       style="font-size:medium;font-style:normal;font-variant:normal;font-weight:normal;font-stretch:normal;text-indent:0;text-align:start;text-decoration:none;line-height:normal;letter-spacing:normal;word-spacing:normal;text-transform:none;direction:ltr;block-progression:tb;writing-mode:lr-tb;text-anchor:start;baseline-shift:baseline;color:#000000;fill:#000000;fill-opacity:1;stroke:none;stroke-width:3.29177046;marker:none;visibility:visible;display:inline;overflow:visible;enable-background:accumulate;font-family:Sans;-inkscape-font-specification:Sans"
       d="m 492.82758,578.59226 c -6.9851,0 -12.6973,5.71224 -12.6973,12.69739 0,6.98514 5.7122,12.75672 12.6973,12.75672 6.9852,0 12.6974,-5.77158 12.6974,-12.75672 0,-6.98515 -5.7122,-12.69739 -12.6974,-12.69739 z m 0,6.23003 c 3.6075,0 6.4674,2.85995 6.4674,6.46736 0,3.6074 -2.8599,6.46736 -6.4674,6.46736 -3.6074,0 -6.4673,-2.85996 -6.4673,-6.46736 0,-3.60741 2.8599,-6.46736 6.4673,-6.46736 z"
       id="path4121"
       inkscape:connector-curvature="0" />
    <path
       style="font-size:medium;font-style:normal;font-variant:normal;font-weight:normal;font-stretch:normal;text-indent:0;text-align:start;text-decoration:none;line-height:normal;letter-spacing:normal;word-spacing:normal;text-transform:none;direction:ltr;block-progression:tb;writing-mode:lr-tb;text-anchor:start;baseline-shift:baseline;color:#000000;fill:#000000;fill-opacity:1;stroke:none;stroke-width:6.25;marker:none;visibility:visible;display:inline;overflow:visible;enable-background:accumulate;font-family:Sans;-inkscape-font-specification:Sans"
       d="m 614.52958,466.39229 -2.9375,10.59375 c -11.5839,5.48873 -24.7743,14.93079 -34.0625,25.65625 -5.164,5.96294 -9.1453,12.32145 -10.75,18.875 -1.6048,6.55355 -0.574,13.45862 4.1875,19.09375 l 4.7812,-4.03125 c -3.5114,-4.15569 -4.1542,-8.46573 -2.9062,-13.5625 1.2481,-5.09677 4.6574,-10.79767 9.4062,-16.28125 7.2582,-8.38119 17.6037,-16.23098 27.0938,-21.53125 l -12.4062,44.75 c -4.1895,4.44795 -8.7585,9.19594 -13.8438,14.28125 l -0.9375,0.90625 0.5,27.60325 9.7813,0 10.0937,-39.6345 c 8.9999,-9.58697 16.0889,-17.79985 21.4063,-24.71875 8.0107,-10.42344 12.2873,-17.93806 13.75,-23.78125 0.7312,-2.9216 0.7743,-5.57494 -0.3126,-7.875 -1.0868,-2.30006 -3.3596,-3.80702 -5.6874,-4.34375 -1.164,-0.26837 -2.3636,-0.36579 -3.625,-0.34375 -2.8194,0.0493 -5.8858,0.75306 -9.1876,1.90625 l 2.0938,-7.5625 z m 13.75,11.96875 c 0.8305,-0.0408 1.4891,0.007 2,0.125 1.0216,0.23558 1.2214,0.44871 1.4375,0.90625 0.2162,0.45754 0.427,1.6083 -0.094,3.6875 -1.0408,4.15839 -4.8952,11.40159 -12.6562,21.5 -3.4507,4.49 -7.7148,9.57722 -12.7812,15.28125 l 10.625,-38.375 c 0.3165,-0.13582 0.6261,-0.27867 0.9374,-0.40625 4.2246,-1.73075 8.0397,-2.59637 10.5313,-2.71875 z m -34.8437,64.25 -5.0313,22.74388 0,-17.65013 c 1.7309,-1.73725 3.4028,-3.4291 5.0313,-5.09375 z"
       id="path4130"
       inkscape:connector-curvature="0"
       sodipodi:nodetypes="ccsccccscccccccscccscccccccscccsccccc" />
    <path
       style="font-size:medium;font-style:normal;font-variant:normal;font-weight:normal;font-stretch:normal;text-indent:0;text-align:start;text-decoration:none;line-height:normal;letter-spacing:normal;word-spacing:normal;text-transform:none;direction:ltr;block-progression:tb;writing-mode:lr-tb;text-anchor:start;baseline-shift:baseline;color:#000000;fill:#000000;fill-opacity:1;stroke:none;stroke-width:3.29177046;marker:none;visibility:visible;display:inline;overflow:visible;enable-background:accumulate;font-family:Sans;-inkscape-font-specification:Sans"
       d="m 588.32758,578.59227 c -6.9851,0 -12.6973,5.71224 -12.6973,12.69738 0,6.98515 5.7122,12.75672 12.6973,12.75672 6.9852,0 12.6974,-5.77157 12.6974,-12.75672 0,-6.98514 -5.7122,-12.69738 -12.6974,-12.69738 z m 0,6.23002 c 3.6075,0 6.4674,2.85996 6.4674,6.46736 0,3.60741 -2.8599,6.46736 -6.4674,6.46736 -3.6074,0 -6.4673,-2.85995 -6.4673,-6.46736 0,-3.6074 2.8599,-6.46736 6.4673,-6.46736 z"
       id="path4135"
       inkscape:connector-curvature="0" />
  </g>
</svg>
