<?xml version="1.0" encoding="UTF-8" standalone="no"?>
<!-- Created with Inkscape (http://www.inkscape.org/) -->

<svg
   xmlns:dc="http://purl.org/dc/elements/1.1/"
   xmlns:cc="http://creativecommons.org/ns#"
   xmlns:rdf="http://www.w3.org/1999/02/22-rdf-syntax-ns#"
   xmlns:svg="http://www.w3.org/2000/svg"
   xmlns="http://www.w3.org/2000/svg"
   xmlns:sodipodi="http://sodipodi.sourceforge.net/DTD/sodipodi-0.dtd"
   xmlns:inkscape="http://www.inkscape.org/namespaces/inkscape"
   width="744.09448819"
   height="1052.3622047"
   id="svg4028"
   version="1.1"
   inkscape:version="0.48.1 r9760"
   sodipodi:docname="New document 3">
  <defs
     id="defs4030" />
  <sodipodi:namedview
     id="base"
     pagecolor="#ffffff"
     bordercolor="#666666"
     borderopacity="1.0"
     inkscape:pageopacity="0.0"
     inkscape:pageshadow="2"
     inkscape:zoom="0.49497475"
     inkscape:cx="367.22315"
     inkscape:cy="666.97673"
     inkscape:document-units="px"
     inkscape:current-layer="layer1"
     showgrid="false"
     inkscape:window-width="1280"
     inkscape:window-height="741"
     inkscape:window-x="0"
     inkscape:window-y="26"
     inkscape:window-maximized="1" />
  <metadata
     id="metadata4033">
    <rdf:RDF>
      <cc:Work
         rdf:about="">
        <dc:format>image/svg+xml</dc:format>
        <dc:type
           rdf:resource="http://purl.org/dc/dcmitype/StillImage" />
        <dc:title></dc:title>
      </cc:Work>
    </rdf:RDF>
  </metadata>
  <g
     inkscape:label="Layer 1"
     inkscape:groupmode="layer"
     id="layer1">
    <path
       style="font-size:medium;font-style:normal;font-variant:normal;font-weight:normal;font-stretch:normal;text-indent:0;text-align:start;text-decoration:none;line-height:normal;letter-spacing:normal;word-spacing:normal;text-transform:none;direction:ltr;block-progression:tb;writing-mode:lr-tb;text-anchor:start;baseline-shift:baseline;color:#000000;fill:#000000;fill-opacity:1;stroke:none;stroke-width:6.25;marker:none;visibility:visible;display:inline;overflow:visible;enable-background:accumulate;font-family:Sans;-inkscape-font-specification:Sans"
       d="m 203.05374,339.22993 c -1.3861,0.24708 -2.7425,0.83251 -4.0285,1.54789 -5.1441,2.86148 -10.6824,8.71253 -16.3925,16.05117 -11.4199,14.67726 -22.92129,35.00949 -25.32949,49.14852 -0.6021,3.53477 -0.6872,6.73005 0.342,9.61161 1.0291,2.88157 3.5948,5.28407 6.8268,5.96217 5.71569,1.19925 13.08559,-1.4298 23.64149,-7.59243 -4.3953,11.7872 -9.5981,25.0166 -16.0114,40.42709 l 5.7852,2.40818 c 13.5256,-32.50064 22.3152,-56.62889 27.5872,-74.19703 5.2721,-17.56814 7.1414,-28.38024 6.2946,-35.22556 -0.1367,-1.10351 -0.393,-2.16855 -0.7375,-3.13563 l 3.1762,3.23418 c 2.1334,-2.06903 4.0941,-3.64205 5.6685,-4.57304 1.5742,-0.93094 2.6813,-1.07059 2.8859,-1.03904 0.2045,0.0316 0.1638,-0.22259 0.5591,0.90998 0.3953,1.13256 0.6982,3.51051 0.4354,6.98287 -1.0509,13.88937 -10.1651,45.04213 -33.4951,101.10185 l 5.7852,2.40818 c 23.4202,-56.27651 32.7511,-87.23629 33.9464,-103.03614 0.2988,-3.94995 0.1112,-6.9859 -0.7654,-9.49737 -0.8766,-2.51149 -2.98,-4.65302 -5.5018,-5.04207 -1.2608,-0.19452 -2.4768,-0.0501 -3.6358,0.29355 -1.1591,0.34362 -2.2776,0.89274 -3.3911,1.55122 -2.0804,1.2302 -4.2094,2.94655 -6.4064,5.03495 -0.729,-1.2576 -1.7284,-2.23729 -3.068,-2.84138 -1.3917,-0.62766 -2.7847,-0.74079 -4.171,-0.49372 z"
       id="path3956"
       inkscape:connector-curvature="0" />
    <path
       sodipodi:nodetypes="csc"
       inkscape:connector-curvature="0"
       id="path3960"
       d="m 304.52952,320.36384 c -32.2841,0 -35.4806,12.49781 -29.9852,28.90601 9.2589,27.64567 43.1919,66.3921 4.246,75.16565"
       style="fill:none;stroke:#000000;stroke-width:6.25;stroke-linecap:butt;stroke-linejoin:miter;stroke-miterlimit:4;stroke-opacity:1;stroke-dasharray:none" />
    <path
       style="fill:none;stroke:#000000;stroke-width:6.25;stroke-linecap:butt;stroke-linejoin:miter;stroke-miterlimit:4;stroke-opacity:1;stroke-dasharray:none"
       d="m 273.78552,347.16834 c -63.63051,10.74495 66.3339,104.89014 -31.79111,104.89014"
       id="path3962"
       inkscape:connector-curvature="0"
       sodipodi:nodetypes="cc" />
    <path
       style="font-size:medium;font-style:normal;font-variant:normal;font-weight:normal;font-stretch:normal;text-indent:0;text-align:start;text-decoration:none;line-height:normal;letter-spacing:normal;word-spacing:normal;text-transform:none;direction:ltr;block-progression:tb;writing-mode:lr-tb;text-anchor:start;baseline-shift:baseline;color:#000000;fill:#000000;fill-opacity:1;stroke:none;stroke-width:6.25;marker:none;visibility:visible;display:inline;overflow:visible;enable-background:accumulate;font-family:Sans;-inkscape-font-specification:Sans"
       d="m 559.17119,328.57695 -1.875,2.5 c -16.933,22.51429 -27.4643,36.05616 -33.6875,44 -3.1116,3.97192 -5.1466,6.53342 -6.4062,8.15625 -0.6299,0.81142 -1.0494,1.37459 -1.375,1.84375 -0.1629,0.23458 -0.2814,0.43596 -0.4688,0.8125 -0.094,0.18827 -0.246,0.36451 -0.3438,1 -0.049,0.31775 -0.1048,0.8053 0.125,1.5 0.2299,0.6947 0.9531,1.53816 1.6876,1.875 1.4688,0.67368 2.0731,0.2106 2.4062,0.0937 0.3331,-0.11685 0.4587,-0.20482 0.5938,-0.28125 0.2701,-0.15286 0.446,-0.28105 0.625,-0.40625 0.3578,-0.2504 0.7264,-0.50741 1.1562,-0.8125 0.8596,-0.61019 1.9205,-1.29759 2.75,-1.65625 0.6737,-0.2913 0.7479,-0.25251 0.6562,-0.3125 0.046,0.15817 0.1293,0.44374 0.1876,1.21875 0.03,18.30675 3.5362,31.42898 7.125,40 3.6041,8.6076 7.4687,12.875 7.4687,12.875 l 2.125,2.28125 4.5937,-4.25 -2.125,-2.28125 c 0,0 -3.0223,-3.20461 -6.3124,-11.0625 -3.2902,-7.85789 -6.625,-20.14831 -6.625,-37.78125 l 0,-0.125 -0.031,-0.125 c -0.2119,-2.8211 -1.3206,-5.3576 -3.5937,-6.4375 -0.2906,-0.13804 -0.5597,-0.19656 -0.8438,-0.28125 0.6355,-0.80848 0.8041,-1.00072 1.5625,-1.96875 6.2436,-7.96996 16.7628,-21.58029 33.7187,-44.125 l 1.9063,-2.5 -5,-3.75 z"
       id="path3970"
       inkscape:connector-curvature="0" />
    <path
       style="font-size:medium;font-style:normal;font-variant:normal;font-weight:normal;font-stretch:normal;text-indent:0;text-align:start;text-decoration:none;line-height:normal;letter-spacing:normal;word-spacing:normal;text-transform:none;direction:ltr;block-progression:tb;writing-mode:lr-tb;text-anchor:start;baseline-shift:baseline;color:#000000;fill:#000000;fill-opacity:1;stroke:none;stroke-width:6.25;marker:none;visibility:visible;display:inline;overflow:visible;enable-background:accumulate;font-family:Sans;-inkscape-font-specification:Sans"
       d="m 583.20249,328.57695 -1.875,2.5 c -16.9331,22.51429 -27.4331,36.05616 -33.6563,44 -3.1116,3.97192 -5.1466,6.53342 -6.4063,8.15625 -0.6298,0.81142 -1.0806,1.37459 -1.4062,1.84375 -0.1628,0.23458 -0.2814,0.43596 -0.4688,0.8125 -0.094,0.18827 -0.2459,0.36451 -0.3437,1 -0.049,0.31775 -0.1048,0.8053 0.125,1.5 0.2298,0.6947 0.9531,1.53816 1.6875,1.875 1.4688,0.67368 2.0732,0.2106 2.4062,0.0937 0.3331,-0.11685 0.49,-0.20482 0.625,-0.28125 0.2702,-0.15286 0.4149,-0.28105 0.5938,-0.40625 0.3579,-0.2504 0.7265,-0.50741 1.1562,-0.8125 0.8596,-0.61019 1.9518,-1.29759 2.7813,-1.65625 0.6958,-0.30083 0.7802,-0.24186 0.6563,-0.3125 0.046,0.1582 0.098,0.44384 0.1562,1.21875 0.03,18.30675 3.5362,31.42898 7.125,40 3.6041,8.6076 7.5,12.875 7.5,12.875 l 2.125,2.28125 4.5938,-4.25 -2.125,-2.28125 c 0,0 -3.0224,-3.20461 -6.3126,-11.0625 -3.2901,-7.85789 -6.6562,-20.14831 -6.6562,-37.78125 l 0,-0.125 0,-0.125 c -0.2119,-2.8211 -1.3206,-5.3576 -3.5938,-6.4375 -0.2952,-0.14025 -0.5864,-0.19601 -0.875,-0.28125 0.6365,-0.8097 0.8028,-0.99892 1.5626,-1.96875 6.2436,-7.96996 16.794,-21.58029 33.75,-44.125 l 1.875,-2.5 -5,-3.75 z"
       id="path3972"
       inkscape:connector-curvature="0" />
    <path
       style="font-size:medium;font-style:normal;font-variant:normal;font-weight:normal;font-stretch:normal;text-indent:0;text-align:start;text-decoration:none;line-height:normal;letter-spacing:normal;word-spacing:normal;text-transform:none;direction:ltr;block-progression:tb;writing-mode:lr-tb;text-anchor:start;baseline-shift:baseline;color:#000000;fill:#000000;fill-opacity:1;stroke:none;stroke-width:6.25;marker:none;visibility:visible;display:inline;overflow:visible;enable-background:accumulate;font-family:Sans;-inkscape-font-specification:Sans"
       d="m 392.0768,296.48791 c -16.3179,0 -29.8036,13.62478 -40.1875,32 -10.3839,18.37522 -17.8825,42.01496 -21.6875,64.125 -3.805,22.11004 -4.117,42.51722 0.9687,55.28125 2.5429,6.38202 6.9561,11.2172 13.0938,12 6.1377,0.7828 12.9247,-2.25329 20.75,-8.875 l -4.0625,-4.78125 c -7.1542,6.05377 -12.4928,7.87284 -15.9063,7.4375 -3.4134,-0.43534 -5.9854,-2.8809 -8.0624,-8.09375 -4.1541,-10.42569 -4.3225,-30.42117 -0.625,-51.90625 3.6974,-21.48508 11.0851,-44.63501 20.9687,-62.125 9.8836,-17.48999 22.0124,-28.8125 34.75,-28.8125 l 0,-6.25 z"
       id="path3978"
       inkscape:connector-curvature="0" />
    <path
       inkscape:connector-curvature="0"
       id="path4002"
       d="m 655.62483,443.26435 1.875,-2.5 c 16.933,-22.51429 27.4643,-36.05616 33.6875,-44 3.1116,-3.97192 5.1466,-6.53342 6.4062,-8.15625 0.6299,-0.81142 1.0494,-1.37459 1.375,-1.84375 0.1629,-0.23458 0.2814,-0.43596 0.4688,-0.8125 0.094,-0.18827 0.246,-0.36451 0.3438,-1 0.049,-0.31775 0.1048,-0.8053 -0.125,-1.5 -0.2299,-0.6947 -0.9531,-1.53816 -1.6876,-1.875 -1.4688,-0.67368 -2.0731,-0.2106 -2.4062,-0.0937 -0.3331,0.11685 -0.4587,0.20482 -0.5938,0.28125 -0.2701,0.15286 -0.446,0.28105 -0.625,0.40625 -0.3578,0.2504 -0.7264,0.50741 -1.1562,0.8125 -0.8596,0.61019 -1.9205,1.29759 -2.75,1.65625 -0.6737,0.2913 -0.7479,0.25251 -0.6562,0.3125 -0.046,-0.15817 -0.1293,-0.44374 -0.1876,-1.21875 -0.03,-18.30675 -3.5362,-31.42898 -7.125,-40 -3.6041,-8.6076 -7.4687,-12.875 -7.4687,-12.875 l -2.125,-2.28125 -4.5937,4.25 2.125,2.28125 c 0,0 3.0223,3.20461 6.3124,11.0625 3.2902,7.85789 6.625,20.14831 6.625,37.78125 l 0,0.125 0.031,0.125 c 0.2119,2.8211 1.3206,5.3576 3.5937,6.4375 0.2906,0.13804 0.5597,0.19656 0.8438,0.28125 -0.6355,0.80848 -0.8041,1.00072 -1.5625,1.96875 -6.2436,7.96996 -16.7628,21.58029 -33.7187,44.125 l -1.9063,2.5 5,3.75 z"
       style="font-size:medium;font-style:normal;font-variant:normal;font-weight:normal;font-stretch:normal;text-indent:0;text-align:start;text-decoration:none;line-height:normal;letter-spacing:normal;word-spacing:normal;text-transform:none;direction:ltr;block-progression:tb;writing-mode:lr-tb;text-anchor:start;baseline-shift:baseline;color:#000000;fill:#000000;fill-opacity:1;stroke:none;stroke-width:6.25;marker:none;visibility:visible;display:inline;overflow:visible;enable-background:accumulate;font-family:Sans;-inkscape-font-specification:Sans" />
    <path
       inkscape:connector-curvature="0"
       id="path4004"
       d="m 631.59353,443.26435 1.875,-2.5 c 16.9331,-22.51429 27.4331,-36.05616 33.6563,-44 3.1116,-3.97192 5.1466,-6.53342 6.4063,-8.15625 0.6298,-0.81142 1.0806,-1.37459 1.4062,-1.84375 0.1628,-0.23458 0.2814,-0.43596 0.4688,-0.8125 0.094,-0.18827 0.2459,-0.36451 0.3437,-1 0.049,-0.31775 0.1048,-0.8053 -0.125,-1.5 -0.2298,-0.6947 -0.9531,-1.53816 -1.6875,-1.875 -1.4688,-0.67368 -2.0732,-0.2106 -2.4062,-0.0937 -0.3331,0.11685 -0.49,0.20482 -0.625,0.28125 -0.2702,0.15286 -0.4149,0.28105 -0.5938,0.40625 -0.3579,0.2504 -0.7265,0.50741 -1.1562,0.8125 -0.8596,0.61019 -1.9518,1.29759 -2.7813,1.65625 -0.6958,0.30083 -0.7802,0.24186 -0.6563,0.3125 -0.046,-0.1582 -0.098,-0.44384 -0.1562,-1.21875 -0.03,-18.30675 -3.5362,-31.42898 -7.125,-40 -3.6041,-8.6076 -7.5,-12.875 -7.5,-12.875 l -2.125,-2.28125 -4.5938,4.25 2.125,2.28125 c 0,0 3.0224,3.20461 6.3126,11.0625 3.2901,7.85789 6.6562,20.14831 6.6562,37.78125 l 0,0.125 0,0.125 c 0.2119,2.8211 1.3206,5.3576 3.5938,6.4375 0.2952,0.14025 0.5864,0.19601 0.875,0.28125 -0.6365,0.8097 -0.8028,0.99892 -1.5626,1.96875 -6.2436,7.96996 -16.794,21.58029 -33.75,44.125 l -1.875,2.5 5,3.75 z"
       style="font-size:medium;font-style:normal;font-variant:normal;font-weight:normal;font-stretch:normal;text-indent:0;text-align:start;text-decoration:none;line-height:normal;letter-spacing:normal;word-spacing:normal;text-transform:none;direction:ltr;block-progression:tb;writing-mode:lr-tb;text-anchor:start;baseline-shift:baseline;color:#000000;fill:#000000;fill-opacity:1;stroke:none;stroke-width:6.25;marker:none;visibility:visible;display:inline;overflow:visible;enable-background:accumulate;font-family:Sans;-inkscape-font-specification:Sans" />
    <path
       inkscape:connector-curvature="0"
       id="path4057"
       d="m 418.77615,460.01476 c 16.3179,0 29.8036,-13.62478 40.1875,-32 10.3839,-18.37522 17.8825,-42.01496 21.6875,-64.125 3.805,-22.11004 4.117,-42.51722 -0.9687,-55.28125 -2.5429,-6.38202 -6.9561,-11.2172 -13.0938,-12 -6.1377,-0.7828 -12.9247,2.25329 -20.75,8.875 l 4.0625,4.78125 c 7.1542,-6.05377 12.4928,-7.87284 15.9063,-7.4375 3.4134,0.43534 5.9854,2.8809 8.0624,8.09375 4.1541,10.42569 4.3225,30.42117 0.625,51.90625 -3.6974,21.48508 -11.0851,44.63501 -20.9687,62.125 -9.8836,17.48999 -22.0124,28.8125 -34.75,28.8125 l 0,6.25 z"
       style="font-size:medium;font-style:normal;font-variant:normal;font-weight:normal;font-stretch:normal;text-indent:0;text-align:start;text-decoration:none;line-height:normal;letter-spacing:normal;word-spacing:normal;text-transform:none;direction:ltr;block-progression:tb;writing-mode:lr-tb;text-anchor:start;baseline-shift:baseline;color:#000000;fill:#000000;fill-opacity:1;stroke:none;stroke-width:6.25;marker:none;visibility:visible;display:inline;overflow:visible;enable-background:accumulate;font-family:Sans;-inkscape-font-specification:Sans" />
  </g>
</svg>
