<?xml version="1.0" encoding="UTF-8" standalone="no"?>
<!-- Created with Inkscape (http://www.inkscape.org/) -->

<svg
   xmlns:dc="http://purl.org/dc/elements/1.1/"
   xmlns:cc="http://creativecommons.org/ns#"
   xmlns:rdf="http://www.w3.org/1999/02/22-rdf-syntax-ns#"
   xmlns:svg="http://www.w3.org/2000/svg"
   xmlns="http://www.w3.org/2000/svg"
   xmlns:sodipodi="http://sodipodi.sourceforge.net/DTD/sodipodi-0.dtd"
   xmlns:inkscape="http://www.inkscape.org/namespaces/inkscape"
   width="744.09448819"
   height="1052.3622047"
   id="svg3987"
   version="1.1"
   inkscape:version="0.48.1 r9760"
   sodipodi:docname="New document 3">
  <defs
     id="defs3989" />
  <sodipodi:namedview
     id="base"
     pagecolor="#ffffff"
     bordercolor="#666666"
     borderopacity="1.0"
     inkscape:pageopacity="0.0"
     inkscape:pageshadow="2"
     inkscape:zoom="0.35"
     inkscape:cx="375"
     inkscape:cy="520"
     inkscape:document-units="px"
     inkscape:current-layer="layer1"
     showgrid="false"
     inkscape:window-width="554"
     inkscape:window-height="464"
     inkscape:window-x="2"
     inkscape:window-y="94"
     inkscape:window-maximized="0" />
  <metadata
     id="metadata3992">
    <rdf:RDF>
      <cc:Work
         rdf:about="">
        <dc:format>image/svg+xml</dc:format>
        <dc:type
           rdf:resource="http://purl.org/dc/dcmitype/StillImage" />
        <dc:title></dc:title>
      </cc:Work>
    </rdf:RDF>
  </metadata>
  <g
     inkscape:label="Layer 1"
     inkscape:groupmode="layer"
     id="layer1">
    <path
       style="font-size:medium;font-style:normal;font-variant:normal;font-weight:normal;font-stretch:normal;text-indent:0;text-align:start;text-decoration:none;line-height:normal;letter-spacing:normal;word-spacing:normal;text-transform:none;direction:ltr;block-progression:tb;writing-mode:lr-tb;text-anchor:start;baseline-shift:baseline;color:#000000;fill:#000000;fill-opacity:1;stroke:none;stroke-width:6.25;marker:none;visibility:visible;display:inline;overflow:visible;enable-background:accumulate;font-family:Sans;-inkscape-font-specification:Sans"
       d="m 327.66744,589.58895 c -0.7643,-0.008 -1.5625,0.0786 -2.3438,0.28125 -6.2507,1.62118 -11.5779,8.19221 -20.1562,22.59375 l 5.375,3.1875 c 8.3575,-14.03085 13.9699,-19.09497 16.375,-19.71875 1.2025,-0.31189 1.871,-0.12321 3.25,0.875 1.3789,0.99821 3.0748,2.88007 5.0312,5.15625 3.9128,4.55235 8.9826,10.68675 17.125,13.90625 8.1424,3.2195 19.0564,3.23883 33.9375,-3.1875 l -2.4687,-5.75 c -13.882,5.99481 -22.7607,5.66617 -29.1876,3.125 -6.4268,-2.54117 -10.7021,-7.55588 -14.6562,-12.15625 -1.977,-2.30019 -3.8415,-4.50316 -6.125,-6.15625 -1.7127,-1.23982 -3.8634,-2.13138 -6.1562,-2.15625 z"
       id="path3190"
       inkscape:connector-curvature="0" />
  </g>
</svg>
